SplineFontDB: 3.0
FontName: Boon-700
FullName: Boon 700
FamilyName: Boon
Weight: 700
Copyright: Copyright 2013-2015, Sungsit Sawaiwan (https://fontuni.com | uni@fontuni.com). This Font Software is licensed under the SIL Open Font License, Version 1.1 (http://scripts.sil.org/OFL).
Version: 1.0
ItalicAngle: 0
UnderlinePosition: -120
UnderlineWidth: 60
Ascent: 960
Descent: 240
InvalidEm: 0
sfntRevision: 0x00010000
LayerCount: 2
Layer: 0 0 "Back" 1
Layer: 1 0 "Fore" 0
XUID: [1021 556 -266790205 12924711]
StyleMap: 0x0000
FSType: 0
OS2Version: 3
OS2_WeightWidthSlopeOnly: 0
OS2_UseTypoMetrics: 0
CreationTime: 1369324892
ModificationTime: 1445629899
PfmFamily: 17
TTFWeight: 700
TTFWidth: 5
LineGap: 90
VLineGap: 0
Panose: 2 0 5 3 0 0 0 0 0 0
OS2TypoAscent: 960
OS2TypoAOffset: 0
OS2TypoDescent: -240
OS2TypoDOffset: 0
OS2TypoLinegap: 90
OS2WinAscent: 1320
OS2WinAOffset: 0
OS2WinDescent: 480
OS2WinDOffset: 0
HheadAscent: 1320
HheadAOffset: 0
HheadDescent: -480
HheadDOffset: 0
OS2SubXSize: 780
OS2SubYSize: 840
OS2SubXOff: 0
OS2SubYOff: 168
OS2SupXSize: 780
OS2SupYSize: 840
OS2SupXOff: 0
OS2SupYOff: 576
OS2StrikeYSize: 59
OS2StrikeYPos: 310
OS2CapHeight: 780
OS2XHeight: 600
OS2Vendor: 'FUni'
OS2CodePages: 20010193.00000000
OS2UnicodeRanges: a30000ff.5000207b.00000000.00000000
Lookup: 1 0 0 "ThaiRC.rd" { "ThaiRC.rd subtable"  } ['ccmp' ('thai' <'PAL ' 'SAN ' > ) 'locl' ('thai' <'PAL ' 'SAN ' > ) 'ss01' ('thai' <'dflt' > ) ]
Lookup: 6 0 0 "ThaiContextRC.rd" { "ThaiContextRC.rd subtable"  } ['ccmp' ('thai' <'dflt' > ) ]
Lookup: 2 0 0 "ThaiDecomp" { "ThaiDecomp subtable"  } ['ccmp' ('thai' <'dflt' > ) ]
Lookup: 1 0 0 "ThaiT.0E4D" { "ThaiT.0E4D subtable"  } []
Lookup: 1 0 0 "Thai0E4D.0E48" { "Thai0E4D.0E48 subtable"  } []
Lookup: 1 0 0 "Thai0E4D.0E49" { "Thai0E4D.0E49 subtable"  } []
Lookup: 1 0 0 "Thai0E4D.0E4A" { "Thai0E4D.0E4A subtable"  } []
Lookup: 1 0 0 "Thai0E4D.0E4B" { "Thai0E4D.0E4B subtable"  } []

StartChar: .notdef
Encoding: 65536 -1 0
Width: 660
Flags: W
LayerCount: 2
Fore
SplineSet
80 0 m 1
 80 600 l 1
 330 600 l 1
 580 600 l 1
 580 0 l 1
 330 0 l 1
 80 0 l 1
330 120 m 1
 430 120 l 1
 430 480 l 1
 330 480 l 1
 230 480 l 1
 230 120 l 1
 330 120 l 1
EndSplineSet
EndChar

StartChar: exclam
Encoding: 33 33 5
Width: 330
GlyphClass: 2
Flags: W
LayerCount: 2
Fore
SplineSet
110 270 m 1
 70 810 l 1
 260 810 l 1
 220 270 l 1
 110 270 l 1
70 82 m 0
 70 136 111 170 165 170 c 0
 219 170 260 136 260 82 c 0
 260 28 219 -6 165 -6 c 0
 111 -6 70 28 70 82 c 0
EndSplineSet
EndChar

StartChar: quotedbl
Encoding: 34 34 6
Width: 540
GlyphClass: 2
Flags: W
LayerCount: 2
Fore
SplineSet
455 900 m 1
 430 540 l 1
 330 540 l 1
 305 900 l 1
 455 900 l 1
235 900 m 1
 210 540 l 1
 110 540 l 1
 85 900 l 1
 235 900 l 1
EndSplineSet
EndChar

StartChar: numbersign
Encoding: 35 35 7
Width: 810
GlyphClass: 2
Flags: W
LayerCount: 2
Fore
SplineSet
30 190 m 1
 30 300 l 1
 176 300 l 1
 224 480 l 1
 90 480 l 1
 90 590 l 1
 254 590 l 1
 305 780 l 1
 435 780 l 1
 384 590 l 1
 534 590 l 1
 585 780 l 1
 715 780 l 1
 664 590 l 1
 780 590 l 1
 780 480 l 1
 634 480 l 1
 586 300 l 1
 720 300 l 1
 720 190 l 1
 556 190 l 1
 505 0 l 1
 375 0 l 1
 426 190 l 1
 276 190 l 1
 225 0 l 1
 95 0 l 1
 146 190 l 1
 30 190 l 1
354 480 m 1
 306 300 l 1
 456 300 l 1
 504 480 l 1
 354 480 l 1
EndSplineSet
EndChar

StartChar: dollar
Encoding: 36 36 8
Width: 660
GlyphClass: 2
Flags: W
LayerCount: 2
Fore
SplineSet
45 191 m 1
 210 201 l 1
 219 142 270 105 331 105 c 0
 401 105 450 132 450 210 c 0
 450 278 395 299 375 306 c 0
 324 322 255 351 207 370 c 0
 137 399 62 464 62 574 c 0
 62 675 133 772 275 792 c 1
 275 900 l 1
 395 900 l 1
 395 791 l 1
 537 766 589 656 599 594 c 1
 434 582 l 1
 425 643 385 675 331 675 c 0
 284 675 227 650 227 574 c 0
 227 518 276 499 307 486 c 0
 355 467 421 441 461 428 c 0
 544 401 615 336 615 210 c 0
 615 109 544 10 395 -12 c 1
 395 -120 l 1
 275 -120 l 1
 275 -12 l 1
 116 10 55 123 45 191 c 1
EndSplineSet
EndChar

StartChar: percent
Encoding: 37 37 9
Width: 780
GlyphClass: 2
Flags: W
LayerCount: 2
Fore
SplineSet
615 68 m 0
 636 68 660 96 660 186 c 2
 660 205 l 2
 660 295 636 322 615 322 c 0
 594 322 570 295 570 205 c 2
 570 186 l 2
 570 96 594 68 615 68 c 0
615 401 m 0
 741 401 762 282 762 205 c 2
 762 186 l 2
 762 109 741 -11 615 -11 c 0
 489 -11 468 109 468 186 c 2
 468 205 l 2
 468 282 489 401 615 401 c 0
165 458 m 0
 186 458 210 486 210 576 c 2
 210 595 l 2
 210 685 186 712 165 712 c 0
 144 712 120 685 120 595 c 2
 120 576 l 2
 120 486 144 458 165 458 c 0
165 791 m 0
 291 791 312 672 312 595 c 2
 312 576 l 2
 312 499 291 379 165 379 c 0
 39 379 18 499 18 576 c 2
 18 595 l 2
 18 672 39 791 165 791 c 0
60 0 m 1
 60 8 l 1
 620 780 l 1
 720 780 l 1
 720 772 l 1
 160 0 l 1
 60 0 l 1
EndSplineSet
EndChar

StartChar: ampersand
Encoding: 38 38 10
Width: 810
GlyphClass: 2
Flags: W
LayerCount: 2
Fore
SplineSet
805 8 m 1
 805 0 l 1
 620 0 l 1
 620 0 596 26 561 64 c 1
 491 12 405 -21 310 -21 c 0
 131 -21 50 75 50 180 c 0
 50 289 139 366 236 428 c 1
 196 484 160 552 160 615 c 0
 160 736 249 801 360 801 c 0
 496 801 555 715 555 638 c 0
 555 554 506 472 421 412 c 1
 458 373 512 315 568 256 c 1
 592 304 606 360 610 420 c 1
 750 400 l 1
 744 316 710 232 658 161 c 1
 739 77 805 8 805 8 c 1
310 338 m 1
 236 279 215 225 215 180 c 0
 215 123 254 101 310 101 c 0
 380 101 436 119 480 151 c 1
 421 215 356 287 310 338 c 1
360 695 m 0
 319 695 305 655 305 611 c 0
 305 577 321 538 346 501 c 1
 395 547 415 602 415 638 c 0
 415 679 389 695 360 695 c 0
EndSplineSet
EndChar

StartChar: quotesingle
Encoding: 39 39 11
Width: 330
GlyphClass: 2
Flags: W
LayerCount: 2
Fore
SplineSet
240 900 m 1
 215 540 l 1
 115 540 l 1
 90 900 l 1
 240 900 l 1
EndSplineSet
EndChar

StartChar: parenleft
Encoding: 40 40 12
Width: 390
GlyphClass: 2
Flags: W
LayerCount: 2
Fore
SplineSet
50 390 m 0
 50 612 129 786 235 915 c 1
 335 875 l 1
 245 756 195 598 195 390 c 0
 195 182 245 24 335 -95 c 1
 235 -135 l 1
 129 -6 50 168 50 390 c 0
EndSplineSet
Substitution2: "Latin.subs subtable" parenleft.subs
Substitution2: "Latin.sups subtable" parenleft.sups
EndChar

StartChar: parenright
Encoding: 41 41 13
Width: 390
GlyphClass: 2
Flags: W
LayerCount: 2
Fore
SplineSet
340 390 m 0
 340 168 261 -6 155 -135 c 1
 55 -95 l 1
 145 24 195 182 195 390 c 0
 195 598 145 756 55 875 c 1
 155 915 l 1
 261 786 340 612 340 390 c 0
EndSplineSet
Substitution2: "Latin.subs subtable" parenright.subs
Substitution2: "Latin.sups subtable" parenright.sups
EndChar

StartChar: asterisk
Encoding: 42 42 14
Width: 570
GlyphClass: 2
Flags: W
LayerCount: 2
Fore
SplineSet
35 668 m 1
 78 801 l 1
 245 715 l 1
 215 900 l 1
 355 900 l 1
 325 715 l 1
 492 801 l 1
 535 668 l 1
 350 639 l 1
 483 507 l 1
 370 425 l 1
 285 592 l 1
 200 425 l 1
 87 507 l 1
 220 639 l 1
 35 668 l 1
EndSplineSet
EndChar

StartChar: plus
Encoding: 43 43 15
Width: 600
GlyphClass: 2
Flags: W
LayerCount: 2
Fore
SplineSet
75 415 m 1
 225 415 l 1
 225 570 l 1
 375 570 l 1
 375 415 l 1
 525 415 l 1
 525 305 l 1
 375 305 l 1
 375 150 l 1
 225 150 l 1
 225 305 l 1
 75 305 l 1
 75 415 l 1
EndSplineSet
EndChar

StartChar: comma
Encoding: 44 44 16
Width: 330
GlyphClass: 2
Flags: W
LayerCount: 2
Fore
SplineSet
70 78 m 0
 70 131 105 170 165 170 c 0
 244 170 275 105 275 45 c 0
 275 -78 191 -166 118 -210 c 1
 70 -146 l 1
 114 -119 152 -74 165 -6 c 1
 160 -6 l 2
 109 -6 70 26 70 78 c 0
EndSplineSet
EndChar

StartChar: hyphen
Encoding: 45 45 17
Width: 600
GlyphClass: 2
Flags: W
LayerCount: 2
Fore
SplineSet
75 420 m 1
 525 420 l 1
 525 300 l 1
 75 300 l 1
 75 420 l 1
EndSplineSet
EndChar

StartChar: period
Encoding: 46 46 18
Width: 330
GlyphClass: 2
Flags: W
LayerCount: 2
Fore
SplineSet
70 82 m 0
 70 136 111 170 165 170 c 0
 219 170 260 136 260 82 c 0
 260 28 219 -6 165 -6 c 0
 111 -6 70 28 70 82 c 0
EndSplineSet
EndChar

StartChar: slash
Encoding: 47 47 19
Width: 510
GlyphClass: 2
Flags: W
LayerCount: 2
Fore
SplineSet
165 0 m 1
 20 0 l 1
 20 8 l 1
 345 780 l 1
 490 780 l 1
 490 772 l 1
 165 0 l 1
EndSplineSet
Substitution2: "LatinSlash.frac subtable" fraction
EndChar

StartChar: zero
Encoding: 48 48 20
Width: 660
GlyphClass: 2
Flags: W
LayerCount: 2
Fore
SplineSet
45 370 m 2
 45 410 l 2
 45 570 87 801 330 801 c 0
 573 801 615 570 615 410 c 2
 615 370 l 2
 615 210 573 -21 330 -21 c 0
 87 -21 45 210 45 370 c 2
330 101 m 0
 390 101 449 182 449 370 c 2
 449 410 l 2
 449 598 390 679 330 679 c 0
 270 679 211 598 211 410 c 2
 211 370 l 2
 211 182 270 101 330 101 c 0
EndSplineSet
Substitution2: "Latin.dnom subtable" zero.dnom
Substitution2: "Latin.numr subtable" zero.numr
Substitution2: "Latin.subs subtable" zero.subs
Substitution2: "Latin.sups subtable" zero.sups
Substitution2: "Latin.pnum subtable" zero.pnum
EndChar

StartChar: one
Encoding: 49 49 21
Width: 660
GlyphClass: 2
Flags: W
LayerCount: 2
Fore
SplineSet
80 630 m 1
 345 786 l 1
 464 774 l 1
 464 130 l 1
 605 130 l 1
 605 0 l 1
 120 0 l 1
 120 130 l 1
 300 130 l 1
 300 605 l 1
 150 512 l 1
 80 630 l 1
EndSplineSet
Substitution2: "Latin.dnom subtable" one.dnom
Substitution2: "Latin.numr subtable" one.numr
Substitution2: "Latin.subs subtable" one.subs
Substitution2: "Latin.sups subtable" one.sups
Substitution2: "Latin.pnum subtable" one.pnum
EndChar

StartChar: two
Encoding: 50 50 22
Width: 660
GlyphClass: 2
Flags: W
LayerCount: 2
Fore
SplineSet
55 60 m 0
 55 237 204 343 312 412 c 0
 387 460 438 504 438 570 c 0
 438 631 411 679 333 679 c 0
 282 679 241 637 231 587 c 1
 60 603 l 1
 74 674 148 801 330 801 c 0
 566 801 600 634 600 570 c 0
 600 440 488 356 415 308 c 0
 325 249 262 198 240 130 c 1
 605 130 l 1
 605 0 l 1
 64 0 l 1
 64 0 55 25 55 60 c 0
EndSplineSet
Substitution2: "Latin.dnom subtable" two.dnom
Substitution2: "Latin.numr subtable" two.numr
Substitution2: "Latin.subs subtable" two.subs
Substitution2: "Latin.sups subtable" two.sups
Substitution2: "Latin.pnum subtable" two.pnum
EndChar

StartChar: three
Encoding: 51 51 23
Width: 660
GlyphClass: 2
Flags: W
LayerCount: 2
Fore
SplineSet
35 603 m 1
 49 674 123 801 305 801 c 0
 541 801 575 634 575 570 c 0
 575 489 532 437 482 402 c 1
 574 364 600 285 600 230 c 0
 600 149 557 -21 303 -21 c 0
 113 -21 41 92 25 137 c 1
 189 167 l 1
 199 140 225 99 303 99 c 0
 401 99 431 158 431 220 c 0
 431 287 397 325 311 325 c 2
 195 325 l 1
 195 445 l 1
 295 445 l 2
 370 445 413 498 413 570 c 0
 413 631 386 679 308 679 c 0
 257 679 216 637 206 587 c 1
 35 603 l 1
EndSplineSet
Substitution2: "Latin.dnom subtable" three.dnom
Substitution2: "Latin.numr subtable" three.numr
Substitution2: "Latin.subs subtable" three.subs
Substitution2: "Latin.sups subtable" three.sups
Substitution2: "Latin.pnum subtable" three.pnum
EndChar

StartChar: four
Encoding: 52 52 24
Width: 660
GlyphClass: 2
Flags: W
LayerCount: 2
Fore
SplineSet
360 180 m 1
 27 180 l 1
 15 260 l 1
 380 786 l 1
 520 774 l 1
 520 300 l 1
 645 300 l 1
 645 180 l 1
 520 180 l 1
 520 0 l 1
 360 0 l 1
 360 180 l 1
365 300 m 1
 365 560 l 1
 190 300 l 1
 365 300 l 1
EndSplineSet
Substitution2: "Latin.dnom subtable" four.dnom
Substitution2: "Latin.numr subtable" four.numr
Substitution2: "Latin.subs subtable" four.subs
Substitution2: "Latin.sups subtable" four.sups
Substitution2: "Latin.pnum subtable" four.pnum
EndChar

StartChar: five
Encoding: 53 53 25
Width: 660
GlyphClass: 2
Flags: W
LayerCount: 2
Fore
SplineSet
45 137 m 1
 209 167 l 1
 219 140 245 99 323 99 c 0
 421 99 451 168 451 240 c 0
 451 317 424 381 338 381 c 0
 280 381 234 336 202 290 c 1
 201 291 l 1
 201 290 l 1
 81 354 l 1
 96 780 l 1
 573 780 l 1
 573 660 l 1
 251 660 l 1
 244 464 l 1
 276 482 317 496 371 496 c 0
 579 496 620 319 620 250 c 0
 620 166 577 -21 323 -21 c 0
 133 -21 61 92 45 137 c 1
EndSplineSet
Substitution2: "Latin.dnom subtable" five.dnom
Substitution2: "Latin.numr subtable" five.numr
Substitution2: "Latin.subs subtable" five.subs
Substitution2: "Latin.sups subtable" five.sups
Substitution2: "Latin.pnum subtable" five.pnum
EndChar

StartChar: six
Encoding: 54 54 26
Width: 660
GlyphClass: 2
Flags: W
LayerCount: 2
Fore
SplineSet
65 301 m 2
 65 434 l 2
 65 549 84 801 344 801 c 0
 532 801 588 674 601 632 c 1
 439 606 l 1
 428 642 404 679 344 679 c 0
 270 679 235 599 231 459 c 1
 267 482 313 495 368 495 c 0
 533 495 620 375 620 240 c 0
 620 107 530 -21 344 -21 c 0
 150 -21 65 114 65 301 c 2
455 240 m 0
 455 345 400 381 338 381 c 0
 289 381 245 352 231 280 c 1
 236 121 300 101 344 101 c 0
 398 101 455 133 455 240 c 0
EndSplineSet
Substitution2: "Latin.dnom subtable" six.dnom
Substitution2: "Latin.numr subtable" six.numr
Substitution2: "Latin.subs subtable" six.subs
Substitution2: "Latin.sups subtable" six.sups
Substitution2: "Latin.pnum subtable" six.pnum
EndChar

StartChar: seven
Encoding: 55 55 27
Width: 660
GlyphClass: 2
Flags: W
LayerCount: 2
Fore
SplineSet
50 650 m 1
 50 780 l 1
 588 780 l 1
 600 689 l 1
 498 554 368 291 368 60 c 2
 368 0 l 1
 193 0 l 1
 193 60 l 2
 193 261 304 485 405 650 c 1
 50 650 l 1
EndSplineSet
Substitution2: "Latin.dnom subtable" seven.dnom
Substitution2: "Latin.numr subtable" seven.numr
Substitution2: "Latin.subs subtable" seven.subs
Substitution2: "Latin.sups subtable" seven.sups
Substitution2: "Latin.pnum subtable" seven.pnum
EndChar

StartChar: eight
Encoding: 56 56 28
Width: 660
GlyphClass: 2
Flags: W
LayerCount: 2
Fore
SplineSet
330 -21 m 0
 148 -21 35 86 35 210 c 0
 35 323 124 374 184 401 c 1
 125 432 70 484 70 574 c 0
 70 693 166 801 330 801 c 0
 494 801 590 693 590 574 c 0
 590 484 535 432 476 401 c 1
 536 374 625 323 625 210 c 0
 625 86 512 -21 330 -21 c 0
330 99 m 0
 406 99 455 134 455 210 c 0
 455 281 414 308 374 325 c 0
 363 330 347 336 330 343 c 1
 313 336 297 330 286 325 c 0
 246 308 205 281 205 210 c 0
 205 134 254 99 330 99 c 0
330 681 m 0
 286 681 235 655 235 574 c 0
 235 513 270 482 299 470 c 0
 308 467 318 462 330 458 c 1
 342 462 352 467 361 470 c 0
 390 482 425 513 425 574 c 0
 425 655 374 681 330 681 c 0
EndSplineSet
Substitution2: "Latin.dnom subtable" eight.dnom
Substitution2: "Latin.numr subtable" eight.numr
Substitution2: "Latin.subs subtable" eight.subs
Substitution2: "Latin.sups subtable" eight.sups
Substitution2: "Latin.pnum subtable" eight.pnum
EndChar

StartChar: nine
Encoding: 57 57 29
Width: 660
GlyphClass: 2
Flags: W
LayerCount: 2
Fore
SplineSet
595 479 m 2
 595 346 l 2
 595 231 576 -21 316 -21 c 0
 128 -21 72 106 59 148 c 1
 221 174 l 1
 232 138 256 101 316 101 c 0
 390 101 425 181 429 321 c 1
 393 298 347 285 292 285 c 0
 127 285 40 405 40 540 c 0
 40 673 130 801 316 801 c 0
 510 801 595 666 595 479 c 2
205 540 m 0
 205 435 260 399 322 399 c 0
 371 399 415 428 429 500 c 1
 424 659 360 679 316 679 c 0
 262 679 205 647 205 540 c 0
EndSplineSet
Substitution2: "Latin.dnom subtable" nine.dnom
Substitution2: "Latin.numr subtable" nine.numr
Substitution2: "Latin.subs subtable" nine.subs
Substitution2: "Latin.sups subtable" nine.sups
Substitution2: "Latin.pnum subtable" nine.pnum
EndChar

StartChar: colon
Encoding: 58 58 30
Width: 330
GlyphClass: 2
Flags: W
LayerCount: 2
Fore
SplineSet
70 502 m 0
 70 556 111 590 165 590 c 0
 219 590 260 556 260 502 c 0
 260 448 219 414 165 414 c 0
 111 414 70 448 70 502 c 0
70 82 m 0
 70 136 111 170 165 170 c 0
 219 170 260 136 260 82 c 0
 260 28 219 -6 165 -6 c 0
 111 -6 70 28 70 82 c 0
EndSplineSet
EndChar

StartChar: semicolon
Encoding: 59 59 31
Width: 330
GlyphClass: 2
Flags: W
LayerCount: 2
Fore
SplineSet
70 502 m 0
 70 556 111 590 165 590 c 0
 219 590 260 556 260 502 c 0
 260 448 219 414 165 414 c 0
 111 414 70 448 70 502 c 0
70 78 m 0
 70 131 105 170 165 170 c 0
 244 170 275 105 275 45 c 0
 275 -78 191 -166 118 -210 c 1
 70 -146 l 1
 114 -119 152 -74 165 -6 c 1
 160 -6 l 2
 109 -6 70 26 70 78 c 0
EndSplineSet
EndChar

StartChar: less
Encoding: 60 60 32
Width: 600
GlyphClass: 2
Flags: W
LayerCount: 2
Fore
SplineSet
75 315 m 1
 75 360 l 1
 75 405 l 1
 495 660 l 1
 525 535 l 1
 225 360 l 1
 525 185 l 1
 495 60 l 1
 75 315 l 1
EndSplineSet
EndChar

StartChar: equal
Encoding: 61 61 33
Width: 600
GlyphClass: 2
Flags: W
LayerCount: 2
Fore
SplineSet
75 300 m 1
 525 300 l 1
 525 185 l 1
 75 185 l 1
 75 300 l 1
75 535 m 1
 525 535 l 1
 525 420 l 1
 75 420 l 1
 75 535 l 1
EndSplineSet
EndChar

StartChar: greater
Encoding: 62 62 34
Width: 600
GlyphClass: 2
Flags: W
LayerCount: 2
Fore
SplineSet
525 405 m 1
 525 360 l 1
 525 315 l 1
 105 60 l 1
 75 185 l 1
 375 360 l 1
 75 535 l 1
 105 660 l 1
 525 405 l 1
EndSplineSet
EndChar

StartChar: question
Encoding: 63 63 35
Width: 570
GlyphClass: 2
Flags: W
LayerCount: 2
Fore
SplineSet
40 640 m 0
 40 744 132 831 285 831 c 0
 432 831 520 749 520 630 c 0
 520 467 330 431 330 330 c 0
 330 312 334 298 340 285 c 1
 210 270 l 1
 197 292 190 315 190 340 c 0
 190 494 350 510 350 625 c 0
 350 695 309 708 280 708 c 0
 241 708 210 689 210 640 c 0
 210 623 213 605 220 590 c 1
 60 550 l 1
 47 579 40 610 40 640 c 0
190 82 m 0
 190 136 231 170 285 170 c 0
 339 170 380 136 380 82 c 0
 380 28 339 -6 285 -6 c 0
 231 -6 190 28 190 82 c 0
EndSplineSet
EndChar

StartChar: at
Encoding: 64 64 36
Width: 1020
GlyphClass: 2
Flags: W
LayerCount: 2
Fore
SplineSet
70 238 m 0
 70 489 243 780 558 780 c 0
 821 780 950 595 950 395 c 0
 950 234 857 31 698 31 c 0
 641 31 612 57 598 88 c 1
 565 51 522 25 470 25 c 0
 321 25 275 141 275 230 c 0
 275 363 367 567 578 567 c 0
 682 567 717 488 717 431 c 0
 717 386 694 294 694 292 c 0
 684 232 678 187 678 157 c 0
 678 127 684 111 698 111 c 0
 761 111 860 240 860 395 c 0
 860 567 761 700 558 700 c 0
 317 700 160 467 160 238 c 0
 160 49 264 -110 502 -110 c 0
 566 -110 647 -76 671 -62 c 1
 721 -128 l 1
 685 -150 596 -190 502 -190 c 0
 200 -190 70 23 70 238 c 0
470 115 m 0
 531 115 566 180 586 308 c 0
 586 309 607 405 607 431 c 0
 607 472 589 477 578 477 c 0
 491 477 395 357 395 230 c 0
 395 147 435 115 470 115 c 0
EndSplineSet
EndChar

StartChar: A
Encoding: 65 65 37
Width: 750
GlyphClass: 2
Flags: W
AnchorPoint: "LatinOgonek.mark" 670 0 basechar 0
AnchorPoint: "LatinBelow.mark" 375 0 basechar 0
AnchorPoint: "LatinAbove.mark" 375 150 basechar 0
LayerCount: 2
Fore
SplineSet
750 0 m 1
 560 0 l 1
 511 150 l 1
 239 150 l 1
 190 0 l 1
 0 0 l 1
 0 11 l 1
 305 780 l 1
 445 780 l 1
 750 11 l 1
 750 0 l 1
472 270 m 1
 375 566 l 1
 278 270 l 1
 472 270 l 1
EndSplineSet
EndChar

StartChar: B
Encoding: 66 66 38
Width: 745
GlyphClass: 2
Flags: W
AnchorPoint: "LatinBelow.mark" 320 0 basechar 0
AnchorPoint: "LatinAbove.mark" 320 150 basechar 0
LayerCount: 2
Fore
SplineSet
541 440 m 1
 643 406 705 337 705 235 c 0
 705 85 570 -9 370 -9 c 0
 232 -9 75 0 75 0 c 1
 75 780 l 1
 75 780 221 789 345 789 c 0
 501 789 630 717 630 590 c 0
 630 519 593 471 541 440 c 1
370 464 m 1
 415 470 465 502 465 575 c 0
 465 643 413 670 325 670 c 0
 286 670 248 668 235 667 c 1
 235 462 l 1
 276 463 323 464 370 464 c 1
235 115 m 1
 266 113 311 111 350 111 c 0
 452 111 539 136 539 235 c 0
 539 334 452 354 350 354 c 0
 311 354 266 352 235 350 c 1
 235 115 l 1
EndSplineSet
EndChar

StartChar: C
Encoding: 67 67 39
Width: 755
GlyphClass: 2
Flags: W
AnchorPoint: "LatinCedilla.mark" 412 0 basechar 0
AnchorPoint: "LatinBelow.mark" 410 0 basechar 0
AnchorPoint: "LatinAbove.mark" 410 150 basechar 0
LayerCount: 2
Fore
SplineSet
45 375 m 2
 45 405 l 2
 45 580 123 801 412 801 c 0
 624 801 715 664 730 582 c 1
 556 566 l 1
 547 616 498 673 412 673 c 0
 295 673 223 582 223 405 c 2
 223 375 l 2
 223 198 295 107 412 107 c 0
 498 107 547 164 556 214 c 1
 730 198 l 1
 715 116 624 -21 412 -21 c 0
 123 -21 45 200 45 375 c 2
EndSplineSet
EndChar

StartChar: D
Encoding: 68 68 40
Width: 770
GlyphClass: 2
Flags: W
AnchorPoint: "LatinBelow.mark" 320 0 basechar 0
AnchorPoint: "LatinAbove.mark" 320 150 basechar 0
LayerCount: 2
Fore
SplineSet
245 114 m 1
 264 114 284 113 300 113 c 0
 485 113 555 215 555 380 c 2
 555 400 l 2
 555 565 485 667 300 667 c 0
 284 667 264 666 245 666 c 1
 245 114 l 1
75 780 m 1
 75 780 187 789 300 789 c 0
 621 789 725 583 725 400 c 2
 725 380 l 2
 725 197 621 -9 300 -9 c 0
 187 -9 75 0 75 0 c 1
 75 780 l 1
EndSplineSet
EndChar

StartChar: E
Encoding: 69 69 41
Width: 675
GlyphClass: 2
Flags: W
AnchorPoint: "LatinOgonek.mark" 545 0 basechar 0
AnchorPoint: "LatinBelow.mark" 350 0 basechar 0
AnchorPoint: "LatinAbove.mark" 350 150 basechar 0
LayerCount: 2
Fore
SplineSet
75 0 m 1
 75 780 l 1
 620 780 l 1
 620 650 l 1
 245 650 l 1
 245 445 l 1
 580 445 l 1
 580 325 l 1
 245 325 l 1
 245 130 l 1
 635 130 l 1
 635 0 l 1
 75 0 l 1
EndSplineSet
EndChar

StartChar: F
Encoding: 70 70 42
Width: 640
GlyphClass: 2
Flags: W
AnchorPoint: "LatinBelow.mark" 160 0 basechar 0
AnchorPoint: "LatinAbove.mark" 340 150 basechar 0
LayerCount: 2
Fore
SplineSet
75 0 m 1
 75 780 l 1
 610 780 l 1
 610 650 l 1
 247 650 l 1
 247 450 l 1
 570 450 l 1
 570 320 l 1
 247 320 l 1
 247 0 l 1
 75 0 l 1
EndSplineSet
EndChar

StartChar: G
Encoding: 71 71 43
Width: 770
GlyphClass: 2
Flags: W
AnchorPoint: "LatinBelow.mark" 410 0 basechar 0
AnchorPoint: "LatinAbove.mark" 410 150 basechar 0
LayerCount: 2
Fore
SplineSet
415 285 m 1
 415 405 l 1
 725 405 l 1
 725 135 l 1
 684 66 586 -21 412 -21 c 0
 123 -21 45 200 45 375 c 2
 45 405 l 2
 45 580 123 801 412 801 c 0
 624 801 715 664 730 582 c 1
 558 566 l 1
 549 616 500 675 412 675 c 0
 291 675 219 586 219 405 c 2
 219 375 l 2
 219 194 291 105 412 105 c 0
 498 105 544 131 570 160 c 1
 570 285 l 1
 415 285 l 1
EndSplineSet
EndChar

StartChar: H
Encoding: 72 72 44
Width: 790
GlyphClass: 2
Flags: W
AnchorPoint: "LatinBelow.mark" 395 0 basechar 0
AnchorPoint: "LatinAbove.mark" 395 150 basechar 0
LayerCount: 2
Fore
SplineSet
75 0 m 1
 75 780 l 1
 245 780 l 1
 245 455 l 1
 545 455 l 1
 545 780 l 1
 715 780 l 1
 715 0 l 1
 545 0 l 1
 545 325 l 1
 245 325 l 1
 245 0 l 1
 75 0 l 1
EndSplineSet
EndChar

StartChar: I
Encoding: 73 73 45
Width: 320
GlyphClass: 2
Flags: W
AnchorPoint: "LatinOgonek.mark" 165 0 basechar 0
AnchorPoint: "LatinBelow.mark" 160 0 basechar 0
AnchorPoint: "LatinAbove.mark" 160 150 basechar 0
LayerCount: 2
Fore
SplineSet
75 0 m 1
 75 780 l 1
 245 780 l 1
 245 0 l 1
 75 0 l 1
EndSplineSet
EndChar

StartChar: J
Encoding: 74 74 46
Width: 520
GlyphClass: 2
Flags: W
AnchorPoint: "LatinBelow.mark" 230 0 basechar 0
AnchorPoint: "LatinAbove.mark" 360 150 basechar 0
LayerCount: 2
Fore
SplineSet
5 143 m 1
 175 155 l 1
 182 109 204 99 225 99 c 0
 245 99 275 106 275 169 c 2
 275 780 l 1
 445 780 l 1
 445 169 l 2
 445 72 369 -21 225 -21 c 0
 82 -21 16 69 5 143 c 1
EndSplineSet
EndChar

StartChar: K
Encoding: 75 75 47
Width: 715
GlyphClass: 2
Flags: W
AnchorPoint: "LatinBelow.mark" 360 0 basechar 0
AnchorPoint: "LatinAbove.mark" 360 150 basechar 0
LayerCount: 2
Fore
SplineSet
75 0 m 1
 75 780 l 1
 239 780 l 1
 239 467 l 1
 505 780 l 1
 695 767 l 1
 695 759 l 1
 392 445 l 1
 725 8 l 1
 725 0 l 1
 526 0 l 1
 283 332 l 1
 239 287 l 1
 239 0 l 1
 75 0 l 1
EndSplineSet
EndChar

StartChar: L
Encoding: 76 76 48
Width: 570
GlyphClass: 2
Flags: W
AnchorPoint: "LatinBelow.mark" 320 0 basechar 0
AnchorPoint: "LatinAbove.mark" 160 150 basechar 0
LayerCount: 2
Fore
SplineSet
75 0 m 1
 75 780 l 1
 247 780 l 1
 247 130 l 1
 560 130 l 1
 560 0 l 1
 75 0 l 1
EndSplineSet
EndChar

StartChar: M
Encoding: 77 77 49
Width: 880
GlyphClass: 2
Flags: W
AnchorPoint: "LatinBelow.mark" 440 0 basechar 0
AnchorPoint: "LatinAbove.mark" 440 150 basechar 0
LayerCount: 2
Fore
SplineSet
805 0 m 1
 637 0 l 1
 637 466 l 1
 480 195 l 1
 400 195 l 1
 243 466 l 1
 243 0 l 1
 75 0 l 1
 75 765 l 1
 215 780 l 1
 440 368 l 1
 665 780 l 1
 805 765 l 1
 805 0 l 1
EndSplineSet
EndChar

StartChar: N
Encoding: 78 78 50
Width: 790
GlyphClass: 2
Flags: W
AnchorPoint: "LatinBelow.mark" 395 0 basechar 0
AnchorPoint: "LatinAbove.mark" 395 150 basechar 0
LayerCount: 2
Fore
SplineSet
75 0 m 1
 75 765 l 1
 220 780 l 1
 549 273 l 1
 549 780 l 1
 715 780 l 1
 715 0 l 1
 570 0 l 1
 241 507 l 1
 241 0 l 1
 75 0 l 1
EndSplineSet
EndChar

StartChar: O
Encoding: 79 79 51
Width: 820
GlyphClass: 2
Flags: W
AnchorPoint: "LatinOgonek.mark" 480 0 basechar 0
AnchorPoint: "LatinBelow.mark" 410 0 basechar 0
AnchorPoint: "LatinAbove.mark" 410 150 basechar 0
LayerCount: 2
Fore
SplineSet
45 373 m 2
 45 407 l 2
 45 581 121 801 410 801 c 0
 699 801 775 581 775 407 c 2
 775 373 l 2
 775 199 699 -21 410 -21 c 0
 121 -21 45 199 45 373 c 2
410 104 m 0
 531 104 601 197 601 373 c 2
 601 407 l 2
 601 583 531 676 410 676 c 0
 289 676 219 583 219 407 c 2
 219 373 l 2
 219 197 289 104 410 104 c 0
EndSplineSet
EndChar

StartChar: P
Encoding: 80 80 52
Width: 710
GlyphClass: 2
Flags: W
AnchorPoint: "LatinBelow.mark" 160 0 basechar 0
AnchorPoint: "LatinAbove.mark" 360 150 basechar 0
LayerCount: 2
Fore
SplineSet
243 424 m 1
 267 423 298 421 330 421 c 0
 432 421 517 446 517 545 c 0
 517 644 432 669 330 669 c 0
 298 669 267 667 243 666 c 1
 243 424 l 1
243 303 m 1
 243 0 l 1
 75 0 l 1
 75 310 l 1
 75 780 l 1
 75 780 212 789 350 789 c 0
 550 789 685 695 685 545 c 0
 685 395 550 301 350 301 c 0
 313 301 277 302 243 303 c 1
EndSplineSet
EndChar

StartChar: Q
Encoding: 81 81 53
Width: 820
GlyphClass: 2
Flags: W
AnchorPoint: "LatinBelow.mark" 410 0 basechar 0
AnchorPoint: "LatinAbove.mark" 410 150 basechar 0
LayerCount: 2
Fore
SplineSet
375 250 m 1
 440 335 l 1
 579 227 l 1
 593 266 601 315 601 373 c 2
 601 407 l 2
 601 583 531 676 410 676 c 0
 289 676 219 583 219 407 c 2
 219 373 l 2
 219 197 289 104 410 104 c 0
 451 104 487 115 516 136 c 1
 375 250 l 1
45 373 m 2
 45 407 l 2
 45 581 121 801 410 801 c 0
 699 801 775 581 775 407 c 2
 775 373 l 2
 775 292 758 200 711 126 c 1
 810 49 l 1
 740 -45 l 1
 632 42 l 1
 578 3 506 -21 410 -21 c 0
 121 -21 45 199 45 373 c 2
EndSplineSet
EndChar

StartChar: R
Encoding: 82 82 54
Width: 730
GlyphClass: 2
Flags: W
AnchorPoint: "LatinBelow.mark" 360 0 basechar 0
AnchorPoint: "LatinAbove.mark" 360 150 basechar 0
LayerCount: 2
Fore
SplineSet
280 302 m 1
 268 302 255 303 243 303 c 1
 243 0 l 1
 75 0 l 1
 75 310 l 1
 75 780 l 1
 75 780 212 789 350 789 c 0
 550 789 685 695 685 545 c 0
 685 425 599 341 462 312 c 1
 715 8 l 1
 715 0 l 1
 523 0 l 1
 280 302 l 1
243 424 m 1
 267 423 298 421 330 421 c 0
 432 421 517 446 517 545 c 0
 517 644 432 669 330 669 c 0
 298 669 267 667 243 666 c 1
 243 424 l 1
EndSplineSet
EndChar

StartChar: S
Encoding: 83 83 55
Width: 710
GlyphClass: 2
Flags: W
AnchorPoint: "LatinCedilla.mark" 380 0 basechar 0
AnchorPoint: "LatinBelow.mark" 355 0 basechar 0
AnchorPoint: "LatinAbove.mark" 355 150 basechar 0
LayerCount: 2
Fore
SplineSet
40 184 m 1
 208 208 l 1
 217 156 266 101 355 101 c 0
 454 101 505 139 505 207 c 0
 505 270 459 288 428 297 c 0
 372 312 287 340 230 360 c 0
 157 387 57 448 57 569 c 0
 57 701 178 801 355 801 c 0
 544 801 635 678 650 600 c 1
 482 576 l 1
 473 628 426 679 355 679 c 0
 274 679 222 639 222 577 c 0
 222 527 262 512 304 496 c 0
 356 478 439 452 488 437 c 0
 575 410 670 347 670 215 c 0
 670 82 550 -21 355 -21 c 0
 150 -21 55 104 40 184 c 1
EndSplineSet
EndChar

StartChar: T
Encoding: 84 84 56
Width: 620
GlyphClass: 2
Flags: W
AnchorPoint: "LatinCedilla.mark" 320 0 basechar 0
AnchorPoint: "LatinBelow.mark" 310 0 basechar 0
AnchorPoint: "LatinAbove.mark" 310 150 basechar 0
LayerCount: 2
Fore
SplineSet
15 655 m 1
 15 780 l 1
 605 780 l 1
 605 655 l 1
 395 655 l 1
 395 0 l 1
 225 0 l 1
 225 655 l 1
 15 655 l 1
EndSplineSet
EndChar

StartChar: U
Encoding: 85 85 57
Width: 770
GlyphClass: 2
Flags: W
AnchorPoint: "LatinOgonek.mark" 480 0 basechar 0
AnchorPoint: "LatinBelow.mark" 385 0 basechar 0
AnchorPoint: "LatinAbove.mark" 385 150 basechar 0
LayerCount: 2
Fore
SplineSet
65 246 m 2
 65 780 l 1
 237 780 l 1
 237 246 l 2
 237 143 302 103 385 103 c 0
 468 103 533 143 533 246 c 2
 533 780 l 1
 705 780 l 1
 705 246 l 2
 705 99 582 -21 385 -21 c 0
 188 -21 65 99 65 246 c 2
EndSplineSet
EndChar

StartChar: V
Encoding: 86 86 58
Width: 750
GlyphClass: 2
Flags: W
AnchorPoint: "LatinBelow.mark" 375 0 basechar 0
AnchorPoint: "LatinAbove.mark" 375 150 basechar 0
LayerCount: 2
Fore
SplineSet
5 754 m 1
 5 765 l 1
 205 780 l 1
 375 228 l 1
 545 780 l 1
 745 765 l 1
 745 754 l 1
 445 0 l 1
 305 0 l 1
 5 754 l 1
EndSplineSet
EndChar

StartChar: W
Encoding: 87 87 59
Width: 1060
GlyphClass: 2
Flags: W
AnchorPoint: "LatinBelow.mark" 530 0 basechar 0
AnchorPoint: "LatinAbove.mark" 530 150 basechar 0
LayerCount: 2
Fore
SplineSet
10 754 m 1
 10 764 l 1
 195 780 l 1
 321 247 l 1
 460 760 l 1
 600 760 l 1
 739 247 l 1
 865 780 l 1
 1050 764 l 1
 1050 754 l 1
 825 0 l 1
 680 0 l 1
 530 518 l 1
 380 0 l 1
 235 0 l 1
 10 754 l 1
EndSplineSet
EndChar

StartChar: X
Encoding: 88 88 60
Width: 740
GlyphClass: 2
Flags: W
AnchorPoint: "LatinBelow.mark" 370 0 basechar 0
AnchorPoint: "LatinAbove.mark" 370 150 basechar 0
LayerCount: 2
Fore
SplineSet
40 754 m 1
 40 764 l 1
 228 780 l 1
 370 526 l 1
 512 780 l 1
 700 764 l 1
 700 754 l 1
 465 414 l 1
 750 8 l 1
 750 0 l 1
 553 0 l 1
 370 274 l 1
 187 0 l 1
 -10 0 l 1
 -10 8 l 1
 275 414 l 1
 40 754 l 1
EndSplineSet
EndChar

StartChar: Y
Encoding: 89 89 61
Width: 670
GlyphClass: 2
Flags: W
AnchorPoint: "LatinBelow.mark" 335 0 basechar 0
AnchorPoint: "LatinAbove.mark" 335 150 basechar 0
LayerCount: 2
Fore
SplineSet
-5 754 m 1
 -5 765 l 1
 185 780 l 1
 335 450 l 1
 485 780 l 1
 675 765 l 1
 675 754 l 1
 420 290 l 1
 420 0 l 1
 250 0 l 1
 250 290 l 1
 -5 754 l 1
EndSplineSet
EndChar

StartChar: Z
Encoding: 90 90 62
Width: 670
GlyphClass: 2
Flags: W
AnchorPoint: "LatinBelow.mark" 335 0 basechar 0
AnchorPoint: "LatinAbove.mark" 335 150 basechar 0
LayerCount: 2
Fore
SplineSet
20 96 m 1
 413 650 l 1
 50 650 l 1
 50 780 l 1
 627 780 l 1
 639 684 l 1
 248 130 l 1
 650 130 l 1
 650 0 l 1
 32 0 l 1
 20 96 l 1
EndSplineSet
EndChar

StartChar: bracketleft
Encoding: 91 91 63
Width: 435
GlyphClass: 2
Flags: W
LayerCount: 2
Fore
SplineSet
105 -120 m 1
 105 900 l 1
 360 900 l 1
 360 805 l 1
 240 805 l 1
 240 -25 l 1
 358 -25 l 1
 358 -120 l 1
 105 -120 l 1
EndSplineSet
EndChar

StartChar: backslash
Encoding: 92 92 64
Width: 510
GlyphClass: 2
Flags: W
LayerCount: 2
Fore
SplineSet
355 0 m 1
 30 772 l 1
 30 780 l 1
 155 780 l 1
 480 8 l 1
 480 0 l 1
 355 0 l 1
EndSplineSet
EndChar

StartChar: bracketright
Encoding: 93 93 65
Width: 435
GlyphClass: 2
Flags: W
LayerCount: 2
Fore
SplineSet
330 900 m 1
 330 -120 l 1
 75 -120 l 1
 75 -25 l 1
 195 -25 l 1
 195 805 l 1
 77 805 l 1
 77 900 l 1
 330 900 l 1
EndSplineSet
EndChar

StartChar: asciicircum
Encoding: 94 94 66
Width: 630
GlyphClass: 2
Flags: W
LayerCount: 2
Fore
SplineSet
15 595 m 1
 285 900 l 1
 345 900 l 1
 615 595 l 1
 535 540 l 1
 315 732 l 1
 95 540 l 1
 15 595 l 1
EndSplineSet
EndChar

StartChar: underscore
Encoding: 95 95 67
Width: 600
GlyphClass: 2
Flags: W
LayerCount: 2
Fore
SplineSet
0 0 m 1
 600 0 l 1
 600 -120 l 1
 0 -120 l 1
 0 0 l 1
EndSplineSet
EndChar

StartChar: grave
Encoding: 96 96 68
Width: 390
GlyphClass: 2
Flags: W
LayerCount: 2
Fore
SplineSet
375 595 m 1
 295 540 l 1
 -15 811 l 1
 105 900 l 1
 375 595 l 1
EndSplineSet
EndChar

StartChar: a
Encoding: 97 97 69
Width: 625
GlyphClass: 2
Flags: W
AnchorPoint: "LatinOgonek.mark" 515 0 basechar 0
AnchorPoint: "LatinBelow.mark" 330 0 basechar 0
AnchorPoint: "LatinAbove.mark" 310 0 basechar 0
LayerCount: 2
Fore
SplineSet
40 174 m 0
 40 249 103 330 253 330 c 0
 305 330 356 327 400 323 c 1
 400 412 l 2
 400 486 353 507 300 507 c 0
 253 507 214 481 205 415 c 1
 45 427 l 1
 58 519 137 621 300 621 c 0
 457 621 555 528 555 412 c 2
 555 155 l 2
 555 109 563 93 610 87 c 1
 570 -16 l 1
 534 -11 471 2 441 56 c 1
 405 15 351 -16 270 -16 c 0
 124 -16 40 60 40 174 c 0
408 230 m 1
 367 235 313 239 262 239 c 0
 234 239 195 222 195 172 c 0
 195 101 245 79 290 79 c 0
 367 79 398 135 408 203 c 1
 408 230 l 1
EndSplineSet
Substitution2: "Latin.ss20 subtable" uni0251
Substitution2: "Latin.ss19 subtable" uni0251
EndChar

StartChar: b
Encoding: 98 98 70
Width: 675
GlyphClass: 2
Flags: W
AnchorPoint: "LatinBelow.mark" 360 0 basechar 0
AnchorPoint: "LatinAbove.mark" 135 180 basechar 0
LayerCount: 2
Fore
SplineSet
206 0 m 1
 70 0 l 1
 70 810 l 1
 225 810 l 1
 225 539 l 1
 262 584 313 616 380 616 c 0
 569 616 635 440 635 310 c 2
 635 290 l 2
 635 160 569 -16 380 -16 c 0
 307 -16 254 22 216 73 c 1
 206 0 l 1
225 364 m 1
 225 236 l 1
 243 157 289 100 360 100 c 0
 425 100 475 153 475 290 c 2
 475 310 l 2
 475 447 425 500 360 500 c 0
 289 500 243 443 225 364 c 1
EndSplineSet
EndChar

StartChar: c
Encoding: 99 99 71
Width: 605
GlyphClass: 2
Flags: W
AnchorPoint: "LatinCedilla.mark" 330 0 basechar 0
AnchorPoint: "LatinBelow.mark" 330 0 basechar 0
AnchorPoint: "LatinAbove.mark" 330 0 basechar 0
LayerCount: 2
Fore
SplineSet
424 168 m 1
 585 154 l 1
 574 90 503 -21 330 -21 c 0
 94 -21 40 158 40 288 c 2
 40 312 l 2
 40 442 94 621 330 621 c 0
 503 621 574 510 585 446 c 1
 424 432 l 1
 417 468 381 505 330 505 c 0
 260 505 204 446 204 312 c 2
 204 288 l 2
 204 154 260 95 330 95 c 0
 381 95 417 132 424 168 c 1
EndSplineSet
EndChar

StartChar: d
Encoding: 100 100 72
Width: 680
GlyphClass: 2
Flags: W
AnchorPoint: "LatinBelow.mark" 360 0 basechar 0
AnchorPoint: "LatinAbove.mark" 525 180 basechar 0
LayerCount: 2
Fore
SplineSet
40 290 m 2
 40 310 l 2
 40 440 106 616 295 616 c 0
 362 616 413 584 450 539 c 1
 450 810 l 1
 605 810 l 1
 605 155 l 2
 605 109 613 93 660 87 c 1
 620 -16 l 1
 576 -10 490 9 477 100 c 1
 439 36 380 -16 295 -16 c 0
 106 -16 40 160 40 290 c 2
450 364 m 1
 432 443 386 500 315 500 c 0
 250 500 200 447 200 310 c 2
 200 290 l 2
 200 153 250 100 315 100 c 0
 386 100 432 157 450 236 c 1
 450 364 l 1
EndSplineSet
EndChar

StartChar: e
Encoding: 101 101 73
Width: 640
GlyphClass: 2
Flags: W
AnchorPoint: "LatinOgonek.mark" 410 0 basechar 0
AnchorPoint: "LatinBelow.mark" 330 0 basechar 0
AnchorPoint: "LatinAbove.mark" 330 0 basechar 0
LayerCount: 2
Fore
SplineSet
40 287 m 2
 40 313 l 2
 40 444 100 621 328 621 c 0
 514 621 600 485 600 357 c 0
 600 326 596 295 590 265 c 1
 197 265 l 1
 203 147 255 91 328 91 c 0
 387 91 425 131 431 167 c 1
 585 153 l 1
 573 87 499 -21 328 -21 c 0
 95 -21 40 156 40 287 c 2
199 365 m 1
 450 365 l 1
 448 472 393 509 328 509 c 0
 262 509 212 462 199 365 c 1
EndSplineSet
EndChar

StartChar: f
Encoding: 102 102 74
Width: 400
GlyphClass: 2
Flags: W
AnchorPoint: "LatinBelow.mark" 180 0 basechar 0
AnchorPoint: "LatinAbove.mark" 270 180 basechar 0
LayerCount: 2
Fore
SplineSet
20 500 m 1
 20 600 l 1
 100 600 l 1
 100 667 l 2
 100 725 137 831 283 831 c 0
 367 831 421 791 435 780 c 1
 369 695 l 1
 357 703 328 721 295 721 c 0
 271 721 255 701 255 667 c 2
 255 600 l 1
 390 600 l 1
 390 500 l 1
 260 500 l 1
 260 0 l 1
 100 0 l 1
 100 500 l 1
 20 500 l 1
EndSplineSet
EndChar

StartChar: g
Encoding: 103 103 75
Width: 670
GlyphClass: 2
Flags: W
AnchorPoint: "LatinBelow.mark" 360 -180 basechar 0
AnchorPoint: "LatinAbove.mark" 360 0 basechar 0
LayerCount: 2
Fore
SplineSet
40 315 m 0
 40 440 106 616 295 616 c 0
 368 616 421 578 459 527 c 1
 469 600 l 1
 605 600 l 1
 605 -15 l 2
 605 -135 505 -231 347 -231 c 0
 193 -231 112 -159 95 -117 c 1
 243 -75 l 1
 250 -91 281 -122 347 -122 c 0
 410 -122 455 -93 455 -15 c 2
 455 98 l 1
 418 50 365 14 295 14 c 0
 106 14 40 190 40 315 c 0
450 364 m 1
 432 443 386 500 315 500 c 0
 250 500 200 447 200 315 c 0
 200 183 250 130 315 130 c 0
 386 130 432 187 450 266 c 1
 450 364 l 1
EndSplineSet
Substitution2: "Latin.ss20 subtable" g.alt
Substitution2: "Latin.ss18 subtable" g.alt
EndChar

StartChar: h
Encoding: 104 104 76
Width: 665
GlyphClass: 2
Flags: W
AnchorPoint: "LatinBelow.mark" 360 0 basechar 0
AnchorPoint: "LatinAbove.mark" 135 180 basechar 0
LayerCount: 2
Fore
SplineSet
70 0 m 1
 70 810 l 1
 225 810 l 1
 225 482 l 1
 267 555 334 616 435 616 c 0
 557 616 610 510 610 406 c 2
 610 0 l 1
 450 0 l 1
 450 400 l 2
 450 479 413 490 390 490 c 0
 323 490 250 403 230 303 c 1
 230 0 l 1
 70 0 l 1
EndSplineSet
EndChar

StartChar: i
Encoding: 105 105 77
Width: 300
GlyphClass: 3
Flags: W
AnchorPoint: "LatinOgonek.mark" 155 0 basechar 0
AnchorPoint: "LatinBelow.mark" 150 0 basechar 0
AnchorPoint: "LatinAbove.mark" 150 180 basechar 0
LayerCount: 2
Fore
SplineSet
55 780 m 0
 55 834 96 868 150 868 c 0
 204 868 245 834 245 780 c 0
 245 726 204 692 150 692 c 0
 96 692 55 726 55 780 c 0
70 0 m 1
 70 600 l 1
 230 600 l 1
 230 0 l 1
 70 0 l 1
EndSplineSet
Substitution2: "Latin.ij.dotless subtable" dotlessi
Ligature2: "Latin.ij subtable" dotlessi uni0307
EndChar

StartChar: j
Encoding: 106 106 78
Width: 310
GlyphClass: 3
Flags: W
AnchorPoint: "LatinBelow.mark" 150 -180 basechar 0
AnchorPoint: "LatinAbove.mark" 150 180 basechar 0
LayerCount: 2
Fore
SplineSet
65 780 m 0
 65 834 106 868 160 868 c 0
 214 868 255 834 255 780 c 0
 255 726 212 692 158 692 c 0
 104 692 65 726 65 780 c 0
35 -226 m 1
 -15 -125 l 1
 50 -109 80 -82 80 -5 c 2
 80 600 l 1
 240 600 l 1
 240 -15 l 2
 240 -136 139 -204 35 -226 c 1
EndSplineSet
Substitution2: "Latin.ij.dotless subtable" uni0237
Ligature2: "Latin.ij subtable" uni0237 uni0307
Ligature2: "Latin.ij subtable" uni0237 uni200D uni0307
Ligature2: "Latin.ij subtable" dotlessi uni200D uni0307
EndChar

StartChar: k
Encoding: 107 107 79
Width: 605
GlyphClass: 2
Flags: W
AnchorPoint: "LatinBelow.mark" 360 0 basechar 0
AnchorPoint: "LatinAbove.mark" 135 180 basechar 0
LayerCount: 2
Fore
SplineSet
80 0 m 1
 80 810 l 1
 232 810 l 1
 232 382 l 1
 420 600 l 1
 595 590 l 1
 595 584 l 1
 357 341 l 1
 615 6 l 1
 615 0 l 1
 433 0 l 1
 256 238 l 1
 232 213 l 1
 232 0 l 1
 80 0 l 1
EndSplineSet
EndChar

StartChar: l
Encoding: 108 108 80
Width: 315
GlyphClass: 2
Flags: W
AnchorPoint: "LatinBelow.mark" 190 0 basechar 0
AnchorPoint: "LatinAbove.mark" 140 180 basechar 0
LayerCount: 2
Fore
SplineSet
70 140 m 2
 70 810 l 1
 230 810 l 1
 230 155 l 2
 230 109 253 93 315 87 c 1
 285 -16 l 1
 198 -10 70 14 70 140 c 2
EndSplineSet
EndChar

StartChar: m
Encoding: 109 109 81
Width: 945
GlyphClass: 2
Flags: W
AnchorPoint: "LatinBelow.mark" 480 0 basechar 0
AnchorPoint: "LatinAbove.mark" 480 0 basechar 0
LayerCount: 2
Fore
SplineSet
60 591 m 1
 205 603 l 1
 218 506 l 1
 252 568 306 616 390 616 c 0
 474 616 523 566 545 501 c 1
 579 565 633 616 720 616 c 0
 842 616 890 510 890 406 c 2
 890 0 l 1
 730 0 l 1
 730 400 l 2
 730 479 698 490 675 490 c 0
 621 490 577 415 560 323 c 1
 560 0 l 1
 400 0 l 1
 400 400 l 2
 400 479 368 490 345 490 c 0
 291 490 247 415 230 323 c 1
 230 0 l 1
 70 0 l 1
 70 420 l 1
 60 591 l 1
EndSplineSet
EndChar

StartChar: n
Encoding: 110 110 82
Width: 655
GlyphClass: 2
Flags: W
AnchorPoint: "LatinBelow.mark" 360 0 basechar 0
AnchorPoint: "LatinAbove.mark" 330 0 basechar 0
LayerCount: 2
Fore
SplineSet
70 0 m 1
 70 420 l 1
 60 591 l 1
 205 603 l 1
 221 484 l 1
 261 556 325 616 425 616 c 0
 547 616 600 510 600 406 c 2
 600 0 l 1
 440 0 l 1
 440 400 l 2
 440 479 403 490 380 490 c 0
 313 490 249 405 230 305 c 1
 230 0 l 1
 70 0 l 1
EndSplineSet
Substitution2: "Latin.sups subtable" n.sups
EndChar

StartChar: o
Encoding: 111 111 83
Width: 660
GlyphClass: 2
Flags: W
AnchorPoint: "LatinOgonek.mark" 400 0 basechar 0
AnchorPoint: "LatinBelow.mark" 330 0 basechar 0
AnchorPoint: "LatinAbove.mark" 330 0 basechar 0
LayerCount: 2
Fore
SplineSet
40 287 m 2
 40 313 l 2
 40 443 95 621 330 621 c 0
 565 621 620 443 620 313 c 2
 620 287 l 2
 620 157 565 -21 330 -21 c 0
 95 -21 40 157 40 287 c 2
330 93 m 0
 405 93 460 153 460 287 c 2
 460 313 l 2
 460 447 405 507 330 507 c 0
 255 507 200 447 200 313 c 2
 200 287 l 2
 200 153 255 93 330 93 c 0
EndSplineSet
EndChar

StartChar: p
Encoding: 112 112 84
Width: 675
GlyphClass: 2
Flags: W
AnchorPoint: "LatinBelow.mark" 150 -180 basechar 0
AnchorPoint: "LatinAbove.mark" 330 0 basechar 0
LayerCount: 2
Fore
SplineSet
635 290 m 2
 635 160 569 -16 380 -16 c 0
 316 -16 266 13 230 55 c 1
 230 -210 l 1
 70 -210 l 1
 70 420 l 1
 60 591 l 1
 205 603 l 1
 215 526 l 1
 253 577 307 616 380 616 c 0
 569 616 635 440 635 310 c 2
 635 290 l 2
230 217 m 1
 251 148 294 100 360 100 c 0
 425 100 475 153 475 290 c 2
 475 310 l 2
 475 447 425 500 360 500 c 0
 294 500 251 452 230 383 c 1
 230 217 l 1
EndSplineSet
EndChar

StartChar: q
Encoding: 113 113 85
Width: 675
GlyphClass: 2
Flags: W
AnchorPoint: "LatinBelow.mark" 535 -240 basechar 0
AnchorPoint: "LatinAbove.mark" 360 0 basechar 0
LayerCount: 2
Fore
SplineSet
469 600 m 1
 605 600 l 1
 605 -210 l 1
 450 -210 l 1
 450 61 l 1
 413 16 362 -16 295 -16 c 0
 106 -16 40 160 40 290 c 2
 40 310 l 2
 40 440 106 616 295 616 c 0
 368 616 421 578 459 527 c 1
 469 600 l 1
450 236 m 1
 450 364 l 1
 432 443 386 500 315 500 c 0
 250 500 200 447 200 310 c 2
 200 290 l 2
 200 153 250 100 315 100 c 0
 386 100 432 157 450 236 c 1
EndSplineSet
EndChar

StartChar: r
Encoding: 114 114 86
Width: 435
GlyphClass: 2
Flags: W
AnchorPoint: "LatinBelow.mark" 170 0 basechar 0
AnchorPoint: "LatinAbove.mark" 240 0 basechar 0
LayerCount: 2
Fore
SplineSet
55 588 m 1
 189 603 l 1
 222 483 l 1
 248 555 294 616 379 616 c 0
 407 616 430 609 450 599 c 1
 390 469 l 1
 379 476 367 480 351 480 c 0
 302 480 264 407 250 314 c 1
 250 0 l 1
 90 0 l 1
 90 450 l 1
 55 588 l 1
EndSplineSet
EndChar

StartChar: s
Encoding: 115 115 87
Width: 570
GlyphClass: 2
Flags: W
AnchorPoint: "LatinCedilla.mark" 310 0 basechar 0
AnchorPoint: "LatinBelow.mark" 285 0 basechar 0
AnchorPoint: "LatinAbove.mark" 285 0 basechar 0
LayerCount: 2
Fore
SplineSet
30 143 m 1
 185 163 l 1
 191 124 228 91 291 91 c 0
 352 91 388 118 388 162 c 0
 388 204 353 219 333 225 c 0
 289 238 228 254 185 270 c 0
 125 292 45 332 45 435 c 0
 45 539 140 621 285 621 c 0
 443 621 513 524 525 460 c 1
 370 440 l 1
 364 479 338 509 285 509 c 0
 233 509 197 483 197 441 c 0
 197 408 230 393 255 385 c 0
 296 372 360 354 393 344 c 0
 465 322 540 281 540 168 c 0
 540 62 442 -21 285 -21 c 0
 116 -21 42 77 30 143 c 1
EndSplineSet
EndChar

StartChar: t
Encoding: 116 116 88
Width: 415
GlyphClass: 2
Flags: W
AnchorPoint: "LatinCedilla.mark" 270 0 basechar 0
AnchorPoint: "LatinBelow.mark" 280 0 basechar 0
AnchorPoint: "LatinAbove.mark" 180 120 basechar 0
LayerCount: 2
Fore
SplineSet
20 500 m 1
 20 600 l 1
 106 600 l 1
 106 723 l 1
 257 735 l 1
 257 600 l 1
 390 600 l 1
 390 500 l 1
 260 500 l 1
 260 164 l 2
 260 111 270 98 299 98 c 0
 334 98 370 111 383 119 c 1
 420 15 l 1
 388 -1 342 -16 278 -16 c 0
 173 -16 100 27 100 140 c 2
 100 500 l 1
 20 500 l 1
EndSplineSet
EndChar

StartChar: u
Encoding: 117 117 89
Width: 620
GlyphClass: 2
Flags: W
AnchorPoint: "LatinOgonek.mark" 380 0 basechar 0
AnchorPoint: "LatinBelow.mark" 310 0 basechar 0
AnchorPoint: "LatinAbove.mark" 310 0 basechar 0
LayerCount: 2
Fore
SplineSet
50 194 m 2
 50 600 l 1
 210 600 l 1
 210 194 l 2
 210 118 256 93 310 93 c 0
 364 93 410 118 410 194 c 2
 410 600 l 1
 570 600 l 1
 570 194 l 2
 570 78 472 -21 310 -21 c 0
 148 -21 50 78 50 194 c 2
EndSplineSet
EndChar

StartChar: v
Encoding: 118 118 90
Width: 600
GlyphClass: 2
Flags: W
AnchorPoint: "LatinBelow.mark" 300 0 basechar 0
AnchorPoint: "LatinAbove.mark" 300 0 basechar 0
LayerCount: 2
Fore
SplineSet
0 580 m 1
 0 588 l 1
 175 600 l 1
 300 205 l 1
 425 600 l 1
 600 588 l 1
 600 580 l 1
 365 0 l 1
 235 0 l 1
 0 580 l 1
EndSplineSet
EndChar

StartChar: w
Encoding: 119 119 91
Width: 830
GlyphClass: 2
Flags: W
AnchorPoint: "LatinBelow.mark" 415 0 basechar 0
AnchorPoint: "LatinAbove.mark" 415 0 basechar 0
LayerCount: 2
Fore
SplineSet
825 580 m 1
 652 0 l 1
 517 0 l 1
 415 362 l 1
 313 0 l 1
 178 0 l 1
 5 580 l 1
 5 588 l 1
 175 600 l 1
 259 236 l 1
 352 585 l 1
 478 585 l 1
 571 236 l 1
 655 600 l 1
 825 588 l 1
 825 580 l 1
EndSplineSet
EndChar

StartChar: x
Encoding: 120 120 92
Width: 600
GlyphClass: 2
Flags: W
AnchorPoint: "LatinBelow.mark" 300 0 basechar 0
AnchorPoint: "LatinAbove.mark" 300 0 basechar 0
LayerCount: 2
Fore
SplineSet
35 580 m 1
 35 588 l 1
 204 600 l 1
 300 428 l 1
 396 600 l 1
 565 588 l 1
 565 580 l 1
 387 323 l 1
 605 6 l 1
 605 0 l 1
 426 0 l 1
 300 193 l 1
 174 0 l 1
 -5 0 l 1
 -5 6 l 1
 213 323 l 1
 35 580 l 1
EndSplineSet
EndChar

StartChar: y
Encoding: 121 121 93
Width: 600
GlyphClass: 2
Flags: W
AnchorPoint: "LatinBelow.mark" 300 -180 basechar 0
AnchorPoint: "LatinAbove.mark" 300 0 basechar 0
LayerCount: 2
Fore
SplineSet
0 580 m 1
 0 588 l 1
 175 600 l 1
 302 200 l 1
 425 600 l 1
 600 588 l 1
 600 580 l 1
 365 -15 l 1
 315 -124 278 -231 138 -231 c 0
 80 -231 37 -209 10 -189 c 1
 85 -95 l 1
 100 -108 116 -121 133 -121 c 0
 172 -121 193 -81 232 8 c 1
 0 580 l 1
EndSplineSet
EndChar

StartChar: z
Encoding: 122 122 94
Width: 530
GlyphClass: 2
Flags: W
AnchorPoint: "LatinBelow.mark" 265 0 basechar 0
AnchorPoint: "LatinAbove.mark" 265 0 basechar 0
LayerCount: 2
Fore
SplineSet
15 79 m 1
 300 490 l 1
 40 490 l 1
 40 600 l 1
 500 600 l 1
 509 521 l 1
 224 110 l 1
 515 110 l 1
 515 0 l 1
 24 0 l 1
 15 79 l 1
EndSplineSet
EndChar

StartChar: braceleft
Encoding: 123 123 95
Width: 390
GlyphClass: 2
Flags: W
LayerCount: 2
Fore
SplineSet
30 365 m 1
 30 390 l 1
 30 415 l 1
 76 429 125 457 125 540 c 0
 125 576 90 670 90 730 c 0
 90 817 149 900 270 900 c 2
 330 900 l 1
 330 820 l 1
 290 820 l 2
 271 820 230 813 230 720 c 0
 230 672 260 577 260 525 c 0
 260 453 226 411 173 390 c 1
 226 369 260 327 260 255 c 0
 260 203 230 108 230 60 c 0
 230 -33 271 -40 290 -40 c 2
 330 -40 l 1
 330 -120 l 1
 270 -120 l 2
 149 -120 90 -37 90 50 c 0
 90 110 125 204 125 240 c 0
 125 323 76 351 30 365 c 1
EndSplineSet
EndChar

StartChar: bar
Encoding: 124 124 96
Width: 360
GlyphClass: 2
Flags: W
LayerCount: 2
Fore
SplineSet
110 -120 m 1
 110 900 l 1
 250 900 l 1
 250 -120 l 1
 110 -120 l 1
EndSplineSet
EndChar

StartChar: braceright
Encoding: 125 125 97
Width: 390
GlyphClass: 2
Flags: W
LayerCount: 2
Fore
SplineSet
360 415 m 1
 360 390 l 1
 360 365 l 1
 314 351 265 323 265 240 c 0
 265 204 300 110 300 50 c 0
 300 -37 241 -120 120 -120 c 2
 60 -120 l 1
 60 -40 l 1
 100 -40 l 2
 119 -40 160 -33 160 60 c 0
 160 108 130 203 130 255 c 0
 130 327 164 369 217 390 c 1
 164 411 130 453 130 525 c 0
 130 577 160 672 160 720 c 0
 160 813 119 820 100 820 c 2
 60 820 l 1
 60 900 l 1
 120 900 l 2
 241 900 300 817 300 730 c 0
 300 670 265 576 265 540 c 0
 265 457 314 429 360 415 c 1
EndSplineSet
EndChar

StartChar: asciitilde
Encoding: 126 126 98
Width: 600
GlyphClass: 2
Flags: W
LayerCount: 2
Fore
SplineSet
30 315 m 1
 62 409 100 505 204 505 c 0
 273 505 316 458 342 432 c 0
 372 402 389 390 401 390 c 0
 431 390 455 436 470 495 c 1
 570 465 l 1
 538 371 500 275 396 275 c 0
 327 275 284 322 258 348 c 0
 228 378 211 390 199 390 c 0
 169 390 145 344 130 285 c 1
 30 315 l 1
EndSplineSet
EndChar

StartChar: exclamdown
Encoding: 161 161 100
Width: 330
GlyphClass: 2
Flags: W
LayerCount: 2
Fore
SplineSet
220 330 m 1
 260 -210 l 1
 70 -210 l 1
 110 330 l 1
 220 330 l 1
260 518 m 0
 260 464 219 430 165 430 c 0
 111 430 70 464 70 518 c 0
 70 572 111 606 165 606 c 0
 219 606 260 572 260 518 c 0
EndSplineSet
EndChar

StartChar: cent
Encoding: 162 162 101
Width: 605
GlyphClass: 2
Flags: W
LayerCount: 2
Fore
SplineSet
40 318 m 2
 40 342 l 2
 40 461 85 621 275 647 c 1
 275 780 l 1
 395 780 l 1
 395 645 l 1
 521 621 575 531 585 476 c 1
 424 462 l 1
 417 498 381 535 330 535 c 0
 260 535 204 476 204 342 c 2
 204 318 l 2
 204 184 260 125 330 125 c 0
 381 125 417 162 424 198 c 1
 585 184 l 1
 575 129 521 39 395 15 c 1
 395 -120 l 1
 275 -120 l 1
 275 13 l 1
 85 39 40 199 40 318 c 2
EndSplineSet
EndChar

StartChar: sterling
Encoding: 163 163 102
Width: 660
GlyphClass: 2
Flags: W
LayerCount: 2
Fore
SplineSet
60 96 m 1
 118 141 155 189 155 302 c 2
 155 345 l 1
 60 345 l 1
 60 435 l 1
 155 435 l 1
 155 543 l 2
 155 586 158 801 383 801 c 0
 558 801 602 666 610 632 c 1
 452 614 l 1
 442 658 422 687 383 687 c 0
 335 687 315 624 315 543 c 2
 315 435 l 1
 510 435 l 1
 510 345 l 1
 315 345 l 1
 315 302 l 2
 315 226 299 165 268 114 c 1
 620 114 l 1
 620 0 l 1
 75 0 l 1
 60 96 l 1
EndSplineSet
EndChar

StartChar: currency
Encoding: 164 164 103
Width: 720
GlyphClass: 2
Flags: W
LayerCount: 2
Fore
SplineSet
672 162 m 1
 588 78 l 1
 498 168 l 1
 460 148 414 135 360 135 c 0
 306 135 260 148 222 168 c 1
 132 78 l 1
 48 162 l 1
 133 247 l 1
 105 289 90 339 90 390 c 0
 90 441 105 491 133 533 c 1
 48 618 l 1
 132 702 l 1
 222 612 l 1
 260 632 306 645 360 645 c 0
 414 645 460 632 498 612 c 1
 588 702 l 1
 672 618 l 1
 587 533 l 1
 615 491 630 441 630 390 c 0
 630 339 615 289 587 247 c 1
 672 162 l 1
360 255 m 0
 426 255 480 298 480 390 c 0
 480 482 426 525 360 525 c 0
 294 525 240 482 240 390 c 0
 240 298 294 255 360 255 c 0
EndSplineSet
EndChar

StartChar: yen
Encoding: 165 165 104
Width: 660
GlyphClass: 2
Flags: W
LayerCount: 2
Fore
SplineSet
90 150 m 1
 90 240 l 1
 245 240 l 1
 245 299 l 1
 245 300 l 1
 90 300 l 1
 90 390 l 1
 198 390 l 1
 10 754 l 1
 10 765 l 1
 200 780 l 1
 330 450 l 1
 460 780 l 1
 650 765 l 1
 650 754 l 1
 462 390 l 1
 570 390 l 1
 570 300 l 1
 415 300 l 1
 415 299 l 1
 415 240 l 1
 570 240 l 1
 570 150 l 1
 415 150 l 1
 415 0 l 1
 245 0 l 1
 245 150 l 1
 90 150 l 1
EndSplineSet
EndChar

StartChar: brokenbar
Encoding: 166 166 105
Width: 360
GlyphClass: 2
Flags: W
LayerCount: 2
Fore
SplineSet
110 450 m 1
 110 900 l 1
 250 900 l 1
 250 450 l 1
 110 450 l 1
110 -120 m 1
 110 330 l 1
 250 330 l 1
 250 -120 l 1
 110 -120 l 1
EndSplineSet
EndChar

StartChar: section
Encoding: 167 167 106
Width: 660
GlyphClass: 2
Flags: W
LayerCount: 2
Fore
SplineSet
86 609 m 0
 86 726 178 831 341 831 c 0
 515 831 584 703 595 629 c 1
 440 617 l 1
 431 675 399 721 341 721 c 0
 285 721 241 686 241 609 c 0
 241 549 279 530 312 515 c 0
 355 496 417 471 458 457 c 0
 534 431 610 365 610 245 c 0
 610 197 586 151 547 112 c 1
 567 80 580 41 580 -5 c 0
 580 -124 487 -231 311 -231 c 0
 127 -231 52 -103 40 -25 c 1
 195 -13 l 1
 203 -69 239 -121 311 -121 c 0
 383 -121 425 -88 425 -5 c 0
 425 67 385 85 354 97 c 0
 308 115 250 140 201 161 c 0
 138 188 56 253 56 359 c 0
 56 406 78 454 124 491 c 1
 102 521 86 560 86 609 c 0
446 200 m 1
 452 212 455 226 455 245 c 0
 455 318 415 337 389 347 c 0
 343 365 280 390 231 411 c 0
 229 412 228 412 226 413 c 0
 217 399 211 382 211 359 c 0
 211 299 259 280 292 265 c 0
 335 246 389 221 428 207 c 0
 434 205 440 203 446 200 c 1
EndSplineSet
EndChar

StartChar: dieresis
Encoding: 168 168 107
Width: 510
GlyphClass: 2
Flags: W
LayerCount: 2
Fore
SplineSet
130 859 m 0
 179 859 215 829 215 780 c 0
 215 731 179 701 130 701 c 0
 81 701 45 731 45 780 c 0
 45 829 81 859 130 859 c 0
380 859 m 0
 429 859 465 829 465 780 c 0
 465 731 429 701 380 701 c 0
 331 701 295 731 295 780 c 0
 295 829 331 859 380 859 c 0
EndSplineSet
EndChar

StartChar: copyright
Encoding: 169 169 108
Width: 1020
GlyphClass: 2
Flags: W
LayerCount: 2
Fore
SplineSet
685 498 m 1
 583 489 l 1
 579 514 554 538 521 538 c 0
 475 538 437 499 437 411 c 2
 437 395 l 2
 437 307 475 268 521 268 c 0
 554 268 579 292 583 317 c 1
 685 308 l 1
 677 268 633 197 521 197 c 0
 370 197 335 311 335 395 c 2
 335 411 l 2
 335 495 370 609 521 609 c 0
 633 609 677 538 685 498 c 1
510 -20 m 0
 245 -20 75 164 75 405 c 0
 75 646 245 830 510 830 c 0
 775 830 945 646 945 405 c 0
 945 164 775 -20 510 -20 c 0
510 60 m 0
 719 60 855 198 855 405 c 0
 855 612 719 750 510 750 c 0
 301 750 165 612 165 405 c 0
 165 198 301 60 510 60 c 0
EndSplineSet
EndChar

StartChar: ordfeminine
Encoding: 170 170 109
Width: 313
GlyphClass: 2
Flags: W
LayerCount: 2
Fore
SplineSet
16 597 m 0
 16 647 56 677 134 677 c 0
 152 677 170 677 185 676 c 1
 185 717 l 2
 185 751 164 755 150 755 c 0
 139 755 119 749 115 718 c 1
 18 724 l 1
 24 767 62 821 150 821 c 0
 234 821 282 772 282 717 c 2
 282 595 l 2
 282 572 285 564 309 561 c 1
 285 501 l 1
 264 503 234 511 216 533 c 1
 198 515 172 501 135 501 c 0
 56 501 16 540 16 597 c 0
191 622 m 1
 176 624 160 625 141 625 c 0
 123 625 111 614 111 596 c 0
 111 574 124 557 148 557 c 0
 178 557 190 579 191 622 c 1
EndSplineSet
EndChar

StartChar: guillemotleft
Encoding: 171 171 110
Width: 780
GlyphClass: 2
Flags: W
LayerCount: 2
Fore
SplineSet
60 330 m 1
 60 390 l 1
 365 660 l 1
 420 580 l 1
 228 360 l 1
 420 140 l 1
 365 60 l 1
 60 330 l 1
360 330 m 1
 360 390 l 1
 665 660 l 1
 720 580 l 1
 528 360 l 1
 720 140 l 1
 665 60 l 1
 360 330 l 1
EndSplineSet
EndChar

StartChar: logicalnot
Encoding: 172 172 111
Width: 600
GlyphClass: 2
Flags: W
LayerCount: 2
Fore
SplineSet
75 295 m 1
 75 415 l 1
 525 415 l 1
 525 175 l 1
 375 175 l 1
 375 295 l 1
 75 295 l 1
EndSplineSet
EndChar

StartChar: uni00AD
Encoding: 173 173 112
Width: 450
GlyphClass: 2
Flags: W
LayerCount: 2
Fore
SplineSet
60 420 m 1
 390 420 l 1
 390 300 l 1
 60 300 l 1
 60 420 l 1
EndSplineSet
EndChar

StartChar: registered
Encoding: 174 174 113
Width: 870
GlyphClass: 2
Flags: W
LayerCount: 2
Fore
SplineSet
435 259 m 0
 220 259 84 408 84 600 c 0
 84 792 220 941 435 941 c 0
 650 941 786 792 786 600 c 0
 786 408 650 259 435 259 c 0
435 319 m 0
 602 319 714 430 714 600 c 0
 714 770 602 881 435 881 c 0
 268 881 156 770 156 600 c 0
 156 430 268 319 435 319 c 0
602 673 m 0
 602 613 558 570 490 556 c 1
 616 404 l 1
 616 400 l 1
 509 400 l 1
 388 551 l 1
 386 551 l 1
 386 400 l 1
 289 400 l 1
 289 555 l 1
 289 790 l 1
 289 790 365 795 434 795 c 0
 534 795 602 748 602 673 c 0
505 673 m 0
 505 720 463 727 412 727 c 0
 403 727 394 726 386 726 c 1
 386 619 l 1
 412 619 l 2
 463 619 505 626 505 673 c 0
EndSplineSet
EndChar

StartChar: macron
Encoding: 175 175 114
Width: 510
GlyphClass: 2
Flags: W
LayerCount: 2
Fore
SplineSet
45 730 m 1
 45 830 l 1
 465 830 l 1
 465 730 l 1
 45 730 l 1
EndSplineSet
EndChar

StartChar: degree
Encoding: 176 176 115
Width: 330
GlyphClass: 2
Flags: W
LayerCount: 2
Fore
SplineSet
165 649 m 0
 75 649 25 714 25 780 c 0
 25 846 75 911 165 911 c 0
 255 911 305 846 305 780 c 0
 305 714 255 649 165 649 c 0
165 721 m 0
 190 721 215 738 215 780 c 0
 215 822 190 839 165 839 c 0
 140 839 115 822 115 780 c 0
 115 738 140 721 165 721 c 0
EndSplineSet
EndChar

StartChar: plusminus
Encoding: 177 177 116
Width: 600
GlyphClass: 2
Flags: W
LayerCount: 2
Fore
SplineSet
75 168 m 1
 75 278 l 1
 525 278 l 1
 525 168 l 1
 75 168 l 1
75 442 m 1
 75 552 l 1
 230 552 l 1
 230 657 l 1
 370 657 l 1
 370 552 l 1
 525 552 l 1
 525 442 l 1
 370 442 l 1
 370 337 l 1
 230 337 l 1
 230 442 l 1
 75 442 l 1
EndSplineSet
EndChar

StartChar: two.sups
Encoding: 178 178 117
Width: 330
GlyphClass: 2
Flags: W
LayerCount: 2
Fore
SplineSet
124 801 m 1
 26 810 l 1
 32 844 68 911 164 911 c 0
 288 911 304 824 304 794 c 0
 304 730 250 688 220 666 c 0
 186 641 148 612 136 582 c 1
 306 582 l 1
 306 510 l 1
 30 510 l 1
 30 510 24 525 24 544 c 0
 24 638 95 684 141 716 c 0
 173 738 205 760 205 794 c 0
 205 826 192 842 164 842 c 0
 144 842 128 827 124 801 c 1
EndSplineSet
EndChar

StartChar: three.sups
Encoding: 179 179 118
Width: 330
GlyphClass: 2
Flags: W
LayerCount: 2
Fore
SplineSet
249 712 m 1
 296 688 304 645 304 625 c 0
 304 589 286 499 152 499 c 0
 52 499 17 558 9 580 c 1
 106 598 l 1
 110 586 120 571 152 571 c 0
 190 571 204 590 204 620 c 0
 204 652 187 667 154 667 c 2
 96 667 l 1
 96 738 l 1
 142 738 l 2
 174 738 190 768 190 794 c 0
 190 826 178 842 150 842 c 0
 130 842 113 827 109 801 c 1
 12 810 l 1
 18 844 54 911 150 911 c 0
 274 911 289 824 289 794 c 0
 289 756 271 730 249 712 c 1
EndSplineSet
EndChar

StartChar: acute
Encoding: 180 180 119
Width: 390
GlyphClass: 2
Flags: W
LayerCount: 2
Fore
SplineSet
15 595 m 1
 285 900 l 1
 405 811 l 1
 95 540 l 1
 15 595 l 1
EndSplineSet
EndChar

StartChar: mu
Encoding: 181 181 120
Width: 665
GlyphClass: 2
Flags: W
LayerCount: 2
Fore
SplineSet
70 600 m 1
 230 600 l 1
 230 297 l 1
 250 197 323 110 390 110 c 0
 413 110 450 121 450 200 c 2
 450 600 l 1
 610 600 l 1
 610 194 l 2
 610 90 557 -16 435 -16 c 0
 334 -16 267 45 225 118 c 1
 225 -210 l 1
 70 -210 l 1
 70 600 l 1
EndSplineSet
EndChar

StartChar: paragraph
Encoding: 182 182 121
Width: 725
GlyphClass: 2
Flags: W
LayerCount: 2
Fore
SplineSet
290 431 m 1
 290 659 l 1
 235 644 198 611 198 545 c 0
 198 479 235 446 290 431 c 1
500 665 m 1
 484 666 458 667 430 668 c 1
 430 -210 l 1
 290 -210 l 1
 290 306 l 1
 132 327 30 415 30 545 c 0
 30 695 165 789 365 789 c 0
 503 789 640 780 640 780 c 1
 640 -210 l 1
 500 -210 l 1
 500 665 l 1
EndSplineSet
EndChar

StartChar: periodcentered
Encoding: 183 183 122
Width: 330
GlyphClass: 2
Flags: W
LayerCount: 2
Fore
SplineSet
70 360 m 0
 70 414 111 448 165 448 c 0
 219 448 260 414 260 360 c 0
 260 306 219 272 165 272 c 0
 111 272 70 306 70 360 c 0
EndSplineSet
EndChar

StartChar: cedilla
Encoding: 184 184 123
Width: 330
GlyphClass: 2
Flags: W
LayerCount: 2
Fore
SplineSet
40 -265 m 1
 111 -249 180 -221 180 -175 c 0
 180 -161 170 -150 125 -150 c 0
 113 -150 97 -153 85 -155 c 1
 40 -110 l 1
 115 25 l 1
 200 25 l 1
 142 -80 l 1
 225 -80 280 -109 280 -175 c 0
 280 -291 118 -323 65 -335 c 1
 40 -265 l 1
EndSplineSet
EndChar

StartChar: one.sups
Encoding: 185 185 124
Width: 330
GlyphClass: 2
Flags: W
LayerCount: 2
Fore
SplineSet
36 825 m 1
 168 903 l 1
 240 897 l 1
 240 582 l 1
 306 582 l 1
 306 510 l 1
 56 510 l 1
 56 582 l 1
 142 582 l 1
 142 798 l 1
 77 756 l 1
 36 825 l 1
EndSplineSet
EndChar

StartChar: ordmasculine
Encoding: 186 186 125
Width: 330
GlyphClass: 2
Flags: W
LayerCount: 2
Fore
SplineSet
165 567 m 0
 192 567 214 587 214 653 c 2
 214 667 l 2
 214 733 192 753 165 753 c 0
 138 753 116 733 116 667 c 2
 116 653 l 2
 116 587 138 567 165 567 c 0
165 821 m 0
 287 821 314 728 314 667 c 2
 314 653 l 2
 314 592 287 499 165 499 c 0
 43 499 16 592 16 653 c 2
 16 667 l 2
 16 728 43 821 165 821 c 0
EndSplineSet
EndChar

StartChar: guillemotright
Encoding: 187 187 126
Width: 780
GlyphClass: 2
Flags: W
LayerCount: 2
Fore
SplineSet
720 390 m 1
 720 330 l 1
 415 60 l 1
 360 140 l 1
 552 360 l 1
 360 580 l 1
 415 660 l 1
 720 390 l 1
420 390 m 1
 420 330 l 1
 115 60 l 1
 60 140 l 1
 252 360 l 1
 60 580 l 1
 115 660 l 1
 420 390 l 1
EndSplineSet
EndChar

StartChar: onequarter
Encoding: 188 188 127
Width: 780
GlyphClass: 3
Flags: W
LayerCount: 2
Fore
SplineSet
614 85 m 1
 461 85 l 1
 454 135 l 1
 634 393 l 1
 714 387 l 1
 714 155 l 1
 776 155 l 1
 776 85 l 1
 714 85 l 1
 714 0 l 1
 614 0 l 1
 614 85 l 1
619 155 m 1
 619 250 l 1
 555 155 l 1
 619 155 l 1
36 705 m 1
 168 783 l 1
 240 777 l 1
 240 462 l 1
 306 462 l 1
 306 390 l 1
 56 390 l 1
 56 462 l 1
 142 462 l 1
 142 678 l 1
 77 636 l 1
 36 705 l 1
60 0 m 1
 60 8 l 1
 620 780 l 1
 720 780 l 1
 720 772 l 1
 160 0 l 1
 60 0 l 1
EndSplineSet
Ligature2: "LatinLiga.frac subtable" one.numr fraction four.dnom
Ligature2: "LatinLiga.frac subtable" one.numr fraction four
Ligature2: "LatinLiga.frac subtable" one fraction four.dnom
Ligature2: "LatinLiga.frac subtable" one fraction four
EndChar

StartChar: onehalf
Encoding: 189 189 128
Width: 780
GlyphClass: 3
Flags: W
LayerCount: 2
Fore
SplineSet
574 291 m 1
 476 300 l 1
 482 334 518 401 614 401 c 0
 738 401 754 314 754 284 c 0
 754 220 700 178 670 156 c 0
 636 131 598 102 586 72 c 1
 756 72 l 1
 756 0 l 1
 480 0 l 1
 480 0 474 15 474 34 c 0
 474 128 545 174 591 206 c 0
 623 228 655 250 655 284 c 0
 655 316 642 332 614 332 c 0
 594 332 578 317 574 291 c 1
60 0 m 1
 60 8 l 1
 620 780 l 1
 720 780 l 1
 720 772 l 1
 160 0 l 1
 60 0 l 1
36 705 m 1
 168 783 l 1
 240 777 l 1
 240 462 l 1
 306 462 l 1
 306 390 l 1
 56 390 l 1
 56 462 l 1
 142 462 l 1
 142 678 l 1
 77 636 l 1
 36 705 l 1
EndSplineSet
Ligature2: "LatinLiga.frac subtable" one.numr fraction two.dnom
Ligature2: "LatinLiga.frac subtable" one.numr fraction two
Ligature2: "LatinLiga.frac subtable" one fraction two.dnom
Ligature2: "LatinLiga.frac subtable" one fraction two
EndChar

StartChar: threequarters
Encoding: 190 190 129
Width: 780
GlyphClass: 3
Flags: W
LayerCount: 2
Fore
SplineSet
249 592 m 1
 296 568 304 525 304 505 c 0
 304 469 286 379 152 379 c 0
 52 379 17 438 9 460 c 1
 106 478 l 1
 110 466 120 451 152 451 c 0
 190 451 204 470 204 500 c 0
 204 532 187 547 154 547 c 2
 96 547 l 1
 96 618 l 1
 142 618 l 2
 174 618 190 648 190 674 c 0
 190 706 178 722 150 722 c 0
 130 722 113 707 109 681 c 1
 12 690 l 1
 18 724 54 791 150 791 c 0
 274 791 289 704 289 674 c 0
 289 636 271 610 249 592 c 1
60 0 m 1
 60 8 l 1
 620 780 l 1
 720 780 l 1
 720 772 l 1
 160 0 l 1
 60 0 l 1
614 85 m 1
 461 85 l 1
 454 135 l 1
 634 393 l 1
 714 387 l 1
 714 155 l 1
 776 155 l 1
 776 85 l 1
 714 85 l 1
 714 0 l 1
 614 0 l 1
 614 85 l 1
619 155 m 1
 619 250 l 1
 555 155 l 1
 619 155 l 1
EndSplineSet
Ligature2: "LatinLiga.frac subtable" three.numr fraction four.dnom
Ligature2: "LatinLiga.frac subtable" three.numr fraction four
Ligature2: "LatinLiga.frac subtable" three fraction four.dnom
Ligature2: "LatinLiga.frac subtable" three fraction four
EndChar

StartChar: questiondown
Encoding: 191 191 130
Width: 570
GlyphClass: 2
Flags: W
LayerCount: 2
Fore
SplineSet
530 -40 m 0
 530 -144 438 -231 285 -231 c 0
 138 -231 50 -149 50 -30 c 0
 50 133 240 169 240 270 c 0
 240 288 236 302 230 315 c 1
 360 330 l 1
 373 308 380 285 380 260 c 0
 380 106 220 90 220 -25 c 0
 220 -95 261 -108 290 -108 c 0
 329 -108 360 -89 360 -40 c 0
 360 -23 357 -5 350 10 c 1
 510 50 l 1
 523 21 530 -10 530 -40 c 0
380 518 m 0
 380 464 339 430 285 430 c 0
 231 430 190 464 190 518 c 0
 190 572 231 606 285 606 c 0
 339 606 380 572 380 518 c 0
EndSplineSet
EndChar

StartChar: Agrave
Encoding: 192 192 131
Width: 750
GlyphClass: 2
Flags: W
AnchorPoint: "LatinBelow.mark" 375 0 basechar 0
AnchorPoint: "LatinAbove.mark" 375 330 basechar 0
LayerCount: 2
Fore
SplineSet
210 955 m 1
 275 1060 l 1
 495 900 l 1
 455 840 l 1
 210 955 l 1
750 0 m 1
 560 0 l 1
 511 150 l 1
 239 150 l 1
 190 0 l 1
 0 0 l 1
 0 11 l 1
 305 780 l 1
 445 780 l 1
 750 11 l 1
 750 0 l 1
472 270 m 1
 375 566 l 1
 278 270 l 1
 472 270 l 1
EndSplineSet
EndChar

StartChar: Aacute
Encoding: 193 193 132
Width: 750
GlyphClass: 2
Flags: W
AnchorPoint: "LatinBelow.mark" 375 0 basechar 0
AnchorPoint: "LatinAbove.mark" 375 330 basechar 0
LayerCount: 2
Fore
SplineSet
540 955 m 1
 295 840 l 1
 255 900 l 1
 475 1060 l 1
 540 955 l 1
750 0 m 1
 560 0 l 1
 511 150 l 1
 239 150 l 1
 190 0 l 1
 0 0 l 1
 0 11 l 1
 305 780 l 1
 445 780 l 1
 750 11 l 1
 750 0 l 1
472 270 m 1
 375 566 l 1
 278 270 l 1
 472 270 l 1
EndSplineSet
EndChar

StartChar: Acircumflex
Encoding: 194 194 133
Width: 750
GlyphClass: 2
Flags: W
AnchorPoint: "LatinBelow.mark" 375 0 basechar 0
AnchorPoint: "LatinAbove.mark" 375 330 basechar 0
LayerCount: 2
Fore
SplineSet
165 875 m 1
 355 1020 l 1
 395 1020 l 1
 585 875 l 1
 540 825 l 1
 375 905 l 1
 210 825 l 1
 165 875 l 1
750 0 m 1
 560 0 l 1
 511 150 l 1
 239 150 l 1
 190 0 l 1
 0 0 l 1
 0 11 l 1
 305 780 l 1
 445 780 l 1
 750 11 l 1
 750 0 l 1
472 270 m 1
 375 566 l 1
 278 270 l 1
 472 270 l 1
EndSplineSet
EndChar

StartChar: Atilde
Encoding: 195 195 134
Width: 750
GlyphClass: 2
Flags: W
AnchorPoint: "LatinBelow.mark" 375 0 basechar 0
AnchorPoint: "LatinAbove.mark" 375 330 basechar 0
LayerCount: 2
Fore
SplineSet
165 890 m 1
 192 956 225 1015 300 1015 c 0
 360 1015 394 985 415 967 c 0
 434 951 444 940 454 940 c 0
 479 940 496 990 505 1010 c 1
 585 980 l 1
 558 914 525 855 450 855 c 0
 390 855 356 885 335 903 c 0
 316 919 306 930 296 930 c 0
 271 930 254 880 245 860 c 1
 165 890 l 1
750 0 m 1
 560 0 l 1
 511 150 l 1
 239 150 l 1
 190 0 l 1
 0 0 l 1
 0 11 l 1
 305 780 l 1
 445 780 l 1
 750 11 l 1
 750 0 l 1
472 270 m 1
 375 566 l 1
 278 270 l 1
 472 270 l 1
EndSplineSet
EndChar

StartChar: Adieresis
Encoding: 196 196 135
Width: 750
GlyphClass: 2
Flags: W
AnchorPoint: "LatinBelow.mark" 375 0 basechar 0
AnchorPoint: "LatinAbove.mark" 375 330 basechar 0
LayerCount: 2
Fore
SplineSet
250 1009 m 0
 299 1009 335 979 335 930 c 0
 335 881 299 851 250 851 c 0
 201 851 165 881 165 930 c 0
 165 979 201 1009 250 1009 c 0
500 1009 m 0
 549 1009 585 979 585 930 c 0
 585 881 549 851 500 851 c 0
 451 851 415 881 415 930 c 0
 415 979 451 1009 500 1009 c 0
750 0 m 1
 560 0 l 1
 511 150 l 1
 239 150 l 1
 190 0 l 1
 0 0 l 1
 0 11 l 1
 305 780 l 1
 445 780 l 1
 750 11 l 1
 750 0 l 1
472 270 m 1
 375 566 l 1
 278 270 l 1
 472 270 l 1
EndSplineSet
EndChar

StartChar: Aring
Encoding: 197 197 136
Width: 750
GlyphClass: 2
Flags: W
AnchorPoint: "LatinBelow.mark" 375 0 basechar 0
AnchorPoint: "LatinAbove.mark" 375 330 basechar 0
LayerCount: 2
Fore
SplineSet
375 795 m 0
 301 795 245 841 245 915 c 0
 245 989 301 1035 375 1035 c 0
 449 1035 505 989 505 915 c 0
 505 841 449 795 375 795 c 0
375 865 m 0
 407 865 425 886 425 915 c 0
 425 944 407 965 375 965 c 0
 343 965 325 944 325 915 c 0
 325 886 343 865 375 865 c 0
750 0 m 1
 560 0 l 1
 511 150 l 1
 239 150 l 1
 190 0 l 1
 0 0 l 1
 0 11 l 1
 305 780 l 1
 445 780 l 1
 750 11 l 1
 750 0 l 1
472 270 m 1
 375 566 l 1
 278 270 l 1
 472 270 l 1
EndSplineSet
EndChar

StartChar: AE
Encoding: 198 198 137
Width: 980
GlyphClass: 2
Flags: W
AnchorPoint: "LatinBelow.mark" 510 0 basechar 0
AnchorPoint: "LatinAbove.mark" 510 150 basechar 0
LayerCount: 2
Fore
SplineSet
5 0 m 1
 5 11 l 1
 370 780 l 1
 440 780 l 1
 510 780 l 1
 925 780 l 1
 925 650 l 1
 610 650 l 1
 610 445 l 1
 885 445 l 1
 885 325 l 1
 610 325 l 1
 610 130 l 1
 940 130 l 1
 940 0 l 1
 440 0 l 1
 440 150 l 1
 256 150 l 1
 195 0 l 1
 5 0 l 1
440 607 m 1
 304 270 l 1
 440 270 l 1
 440 607 l 1
EndSplineSet
EndChar

StartChar: Ccedilla
Encoding: 199 199 138
Width: 755
GlyphClass: 2
Flags: W
AnchorPoint: "LatinAbove.mark" 410 150 basechar 0
LayerCount: 2
Fore
SplineSet
307 -265 m 1
 378 -249 447 -221 447 -175 c 0
 447 -161 437 -150 392 -150 c 0
 380 -150 364 -153 352 -155 c 1
 307 -110 l 1
 358 -18 l 1
 113 8 45 211 45 375 c 2
 45 405 l 2
 45 580 123 801 412 801 c 0
 624 801 715 664 730 582 c 1
 556 566 l 1
 547 616 498 673 412 673 c 0
 295 673 223 582 223 405 c 2
 223 375 l 2
 223 198 295 107 412 107 c 0
 498 107 547 164 556 214 c 1
 730 198 l 1
 716 120 633 -8 442 -20 c 1
 409 -80 l 1
 492 -80 547 -109 547 -175 c 0
 547 -291 385 -323 332 -335 c 1
 307 -265 l 1
EndSplineSet
EndChar

StartChar: Egrave
Encoding: 200 200 139
Width: 675
GlyphClass: 2
Flags: W
AnchorPoint: "LatinBelow.mark" 350 0 basechar 0
AnchorPoint: "LatinAbove.mark" 350 330 basechar 0
LayerCount: 2
Fore
SplineSet
185 955 m 1
 250 1060 l 1
 470 900 l 1
 430 840 l 1
 185 955 l 1
75 0 m 1
 75 780 l 1
 620 780 l 1
 620 650 l 1
 245 650 l 1
 245 445 l 1
 580 445 l 1
 580 325 l 1
 245 325 l 1
 245 130 l 1
 635 130 l 1
 635 0 l 1
 75 0 l 1
EndSplineSet
EndChar

StartChar: Eacute
Encoding: 201 201 140
Width: 675
GlyphClass: 2
Flags: W
AnchorPoint: "LatinBelow.mark" 350 0 basechar 0
AnchorPoint: "LatinAbove.mark" 350 330 basechar 0
LayerCount: 2
Fore
SplineSet
515 955 m 1
 270 840 l 1
 230 900 l 1
 450 1060 l 1
 515 955 l 1
75 0 m 1
 75 780 l 1
 620 780 l 1
 620 650 l 1
 245 650 l 1
 245 445 l 1
 580 445 l 1
 580 325 l 1
 245 325 l 1
 245 130 l 1
 635 130 l 1
 635 0 l 1
 75 0 l 1
EndSplineSet
EndChar

StartChar: Ecircumflex
Encoding: 202 202 141
Width: 675
GlyphClass: 2
Flags: W
AnchorPoint: "LatinBelow.mark" 350 0 basechar 0
AnchorPoint: "LatinAbove.mark" 350 330 basechar 0
LayerCount: 2
Fore
SplineSet
140 875 m 1
 330 1020 l 1
 370 1020 l 1
 560 875 l 1
 515 825 l 1
 350 905 l 1
 185 825 l 1
 140 875 l 1
75 0 m 1
 75 780 l 1
 620 780 l 1
 620 650 l 1
 245 650 l 1
 245 445 l 1
 580 445 l 1
 580 325 l 1
 245 325 l 1
 245 130 l 1
 635 130 l 1
 635 0 l 1
 75 0 l 1
EndSplineSet
EndChar

StartChar: Edieresis
Encoding: 203 203 142
Width: 675
GlyphClass: 2
Flags: W
AnchorPoint: "LatinBelow.mark" 350 0 basechar 0
AnchorPoint: "LatinAbove.mark" 350 330 basechar 0
LayerCount: 2
Fore
SplineSet
225 1009 m 0
 274 1009 310 979 310 930 c 0
 310 881 274 851 225 851 c 0
 176 851 140 881 140 930 c 0
 140 979 176 1009 225 1009 c 0
475 1009 m 0
 524 1009 560 979 560 930 c 0
 560 881 524 851 475 851 c 0
 426 851 390 881 390 930 c 0
 390 979 426 1009 475 1009 c 0
75 0 m 1
 75 780 l 1
 620 780 l 1
 620 650 l 1
 245 650 l 1
 245 445 l 1
 580 445 l 1
 580 325 l 1
 245 325 l 1
 245 130 l 1
 635 130 l 1
 635 0 l 1
 75 0 l 1
EndSplineSet
EndChar

StartChar: Igrave
Encoding: 204 204 143
Width: 320
GlyphClass: 2
Flags: W
AnchorPoint: "LatinBelow.mark" 160 0 basechar 0
AnchorPoint: "LatinAbove.mark" 160 330 basechar 0
LayerCount: 2
Fore
SplineSet
-5 955 m 1
 60 1060 l 1
 280 900 l 1
 240 840 l 1
 -5 955 l 1
75 0 m 1
 75 780 l 1
 245 780 l 1
 245 0 l 1
 75 0 l 1
EndSplineSet
EndChar

StartChar: Iacute
Encoding: 205 205 144
Width: 320
GlyphClass: 2
Flags: W
AnchorPoint: "LatinBelow.mark" 160 0 basechar 0
AnchorPoint: "LatinAbove.mark" 160 330 basechar 0
LayerCount: 2
Fore
SplineSet
325 955 m 1
 80 840 l 1
 40 900 l 1
 260 1060 l 1
 325 955 l 1
75 0 m 1
 75 780 l 1
 245 780 l 1
 245 0 l 1
 75 0 l 1
EndSplineSet
EndChar

StartChar: Icircumflex
Encoding: 206 206 145
Width: 320
GlyphClass: 2
Flags: W
AnchorPoint: "LatinBelow.mark" 160 0 basechar 0
AnchorPoint: "LatinAbove.mark" 160 330 basechar 0
LayerCount: 2
Fore
SplineSet
-50 875 m 1
 140 1020 l 1
 180 1020 l 1
 370 875 l 1
 325 825 l 1
 160 905 l 1
 -5 825 l 1
 -50 875 l 1
75 0 m 1
 75 780 l 1
 245 780 l 1
 245 0 l 1
 75 0 l 1
EndSplineSet
EndChar

StartChar: Idieresis
Encoding: 207 207 146
Width: 320
GlyphClass: 2
Flags: W
AnchorPoint: "LatinBelow.mark" 160 0 basechar 0
AnchorPoint: "LatinAbove.mark" 160 330 basechar 0
LayerCount: 2
Fore
SplineSet
35 1009 m 0
 84 1009 120 979 120 930 c 0
 120 881 84 851 35 851 c 0
 -14 851 -50 881 -50 930 c 0
 -50 979 -14 1009 35 1009 c 0
285 1009 m 0
 334 1009 370 979 370 930 c 0
 370 881 334 851 285 851 c 0
 236 851 200 881 200 930 c 0
 200 979 236 1009 285 1009 c 0
75 0 m 1
 75 780 l 1
 245 780 l 1
 245 0 l 1
 75 0 l 1
EndSplineSet
EndChar

StartChar: Eth
Encoding: 208 208 147
Width: 770
GlyphClass: 2
Flags: W
AnchorPoint: "LatinBelow.mark" 320 0 basechar 0
AnchorPoint: "LatinAbove.mark" 320 150 basechar 0
LayerCount: 2
Fore
SplineSet
5 345 m 1
 5 435 l 1
 75 435 l 1
 75 780 l 1
 75 780 187 789 300 789 c 0
 621 789 725 583 725 400 c 2
 725 380 l 2
 725 197 621 -9 300 -9 c 0
 187 -9 75 0 75 0 c 1
 75 345 l 1
 5 345 l 1
245 114 m 1
 264 114 284 113 300 113 c 0
 485 113 555 215 555 380 c 2
 555 400 l 2
 555 565 485 667 300 667 c 0
 284 667 264 666 245 666 c 1
 245 435 l 1
 425 435 l 1
 425 345 l 1
 245 345 l 1
 245 114 l 1
EndSplineSet
EndChar

StartChar: Ntilde
Encoding: 209 209 148
Width: 790
GlyphClass: 2
Flags: W
AnchorPoint: "LatinBelow.mark" 395 0 basechar 0
LayerCount: 2
Fore
SplineSet
185 890 m 1
 212 956 245 1015 320 1015 c 0
 380 1015 414 985 435 967 c 0
 454 951 464 940 474 940 c 0
 499 940 516 990 525 1010 c 1
 605 980 l 1
 578 914 545 855 470 855 c 0
 410 855 376 885 355 903 c 0
 336 919 326 930 316 930 c 0
 291 930 274 880 265 860 c 1
 185 890 l 1
75 0 m 1
 75 765 l 1
 220 780 l 1
 549 273 l 1
 549 780 l 1
 715 780 l 1
 715 0 l 1
 570 0 l 1
 241 507 l 1
 241 0 l 1
 75 0 l 1
EndSplineSet
EndChar

StartChar: Ograve
Encoding: 210 210 149
Width: 820
GlyphClass: 2
Flags: W
AnchorPoint: "LatinBelow.mark" 410 0 basechar 0
AnchorPoint: "LatinAbove.mark" 410 330 basechar 0
LayerCount: 2
Fore
SplineSet
245 955 m 1
 310 1060 l 1
 530 900 l 1
 490 840 l 1
 245 955 l 1
45 373 m 2
 45 407 l 2
 45 581 121 801 410 801 c 0
 699 801 775 581 775 407 c 2
 775 373 l 2
 775 199 699 -21 410 -21 c 0
 121 -21 45 199 45 373 c 2
410 104 m 0
 531 104 601 197 601 373 c 2
 601 407 l 2
 601 583 531 676 410 676 c 0
 289 676 219 583 219 407 c 2
 219 373 l 2
 219 197 289 104 410 104 c 0
EndSplineSet
EndChar

StartChar: Oacute
Encoding: 211 211 150
Width: 820
GlyphClass: 2
Flags: W
AnchorPoint: "LatinBelow.mark" 410 0 basechar 0
AnchorPoint: "LatinAbove.mark" 410 330 basechar 0
LayerCount: 2
Fore
SplineSet
575 955 m 1
 330 840 l 1
 290 900 l 1
 510 1060 l 1
 575 955 l 1
45 373 m 2
 45 407 l 2
 45 581 121 801 410 801 c 0
 699 801 775 581 775 407 c 2
 775 373 l 2
 775 199 699 -21 410 -21 c 0
 121 -21 45 199 45 373 c 2
410 104 m 0
 531 104 601 197 601 373 c 2
 601 407 l 2
 601 583 531 676 410 676 c 0
 289 676 219 583 219 407 c 2
 219 373 l 2
 219 197 289 104 410 104 c 0
EndSplineSet
EndChar

StartChar: Ocircumflex
Encoding: 212 212 151
Width: 820
GlyphClass: 2
Flags: W
AnchorPoint: "LatinBelow.mark" 410 0 basechar 0
AnchorPoint: "LatinAbove.mark" 410 330 basechar 0
LayerCount: 2
Fore
SplineSet
200 875 m 1
 390 1020 l 1
 430 1020 l 1
 620 875 l 1
 575 825 l 1
 410 905 l 1
 245 825 l 1
 200 875 l 1
45 373 m 2
 45 407 l 2
 45 581 121 801 410 801 c 0
 699 801 775 581 775 407 c 2
 775 373 l 2
 775 199 699 -21 410 -21 c 0
 121 -21 45 199 45 373 c 2
410 104 m 0
 531 104 601 197 601 373 c 2
 601 407 l 2
 601 583 531 676 410 676 c 0
 289 676 219 583 219 407 c 2
 219 373 l 2
 219 197 289 104 410 104 c 0
EndSplineSet
EndChar

StartChar: Otilde
Encoding: 213 213 152
Width: 820
GlyphClass: 2
Flags: W
AnchorPoint: "LatinBelow.mark" 410 0 basechar 0
AnchorPoint: "LatinAbove.mark" 410 330 basechar 0
LayerCount: 2
Fore
SplineSet
200 890 m 1
 227 956 260 1015 335 1015 c 0
 395 1015 429 985 450 967 c 0
 469 951 479 940 489 940 c 0
 514 940 531 990 540 1010 c 1
 620 980 l 1
 593 914 560 855 485 855 c 0
 425 855 391 885 370 903 c 0
 351 919 341 930 331 930 c 0
 306 930 289 880 280 860 c 1
 200 890 l 1
45 373 m 2
 45 407 l 2
 45 581 121 801 410 801 c 0
 699 801 775 581 775 407 c 2
 775 373 l 2
 775 199 699 -21 410 -21 c 0
 121 -21 45 199 45 373 c 2
410 104 m 0
 531 104 601 197 601 373 c 2
 601 407 l 2
 601 583 531 676 410 676 c 0
 289 676 219 583 219 407 c 2
 219 373 l 2
 219 197 289 104 410 104 c 0
EndSplineSet
EndChar

StartChar: Odieresis
Encoding: 214 214 153
Width: 820
GlyphClass: 2
Flags: W
AnchorPoint: "LatinBelow.mark" 410 0 basechar 0
AnchorPoint: "LatinAbove.mark" 410 330 basechar 0
LayerCount: 2
Fore
SplineSet
285 1009 m 0
 334 1009 370 979 370 930 c 0
 370 881 334 851 285 851 c 0
 236 851 200 881 200 930 c 0
 200 979 236 1009 285 1009 c 0
535 1009 m 0
 584 1009 620 979 620 930 c 0
 620 881 584 851 535 851 c 0
 486 851 450 881 450 930 c 0
 450 979 486 1009 535 1009 c 0
45 373 m 2
 45 407 l 2
 45 581 121 801 410 801 c 0
 699 801 775 581 775 407 c 2
 775 373 l 2
 775 199 699 -21 410 -21 c 0
 121 -21 45 199 45 373 c 2
410 104 m 0
 531 104 601 197 601 373 c 2
 601 407 l 2
 601 583 531 676 410 676 c 0
 289 676 219 583 219 407 c 2
 219 373 l 2
 219 197 289 104 410 104 c 0
EndSplineSet
EndChar

StartChar: multiply
Encoding: 215 215 154
Width: 600
GlyphClass: 2
Flags: W
LayerCount: 2
Fore
SplineSet
78 498 m 1
 162 582 l 1
 300 444 l 1
 438 582 l 1
 522 498 l 1
 384 360 l 1
 522 222 l 1
 438 138 l 1
 300 276 l 1
 162 138 l 1
 78 222 l 1
 216 360 l 1
 78 498 l 1
EndSplineSet
EndChar

StartChar: Oslash
Encoding: 216 216 155
Width: 820
GlyphClass: 2
Flags: W
AnchorPoint: "LatinBelow.mark" 410 0 basechar 0
AnchorPoint: "LatinAbove.mark" 410 150 basechar 0
LayerCount: 2
Fore
SplineSet
45 373 m 2
 45 407 l 2
 45 581 121 801 410 801 c 0
 506 801 579 776 633 737 c 1
 690 807 l 1
 760 756 l 1
 695 677 l 1
 754 599 775 497 775 407 c 2
 775 373 l 2
 775 199 699 -21 410 -21 c 0
 310 -21 236 5 181 47 c 1
 130 -15 l 1
 60 36 l 1
 120 109 l 1
 64 186 45 286 45 373 c 2
539 622 m 1
 507 658 464 676 410 676 c 0
 289 676 219 583 219 407 c 2
 219 373 l 2
 219 326 224 284 234 249 c 1
 539 622 l 1
583 540 m 1
 276 164 l 1
 308 125 354 104 410 104 c 0
 531 104 601 197 601 373 c 2
 601 407 l 2
 601 459 595 503 583 540 c 1
EndSplineSet
EndChar

StartChar: Ugrave
Encoding: 217 217 156
Width: 770
GlyphClass: 2
Flags: W
AnchorPoint: "LatinBelow.mark" 385 0 basechar 0
AnchorPoint: "LatinAbove.mark" 385 330 basechar 0
LayerCount: 2
Fore
SplineSet
220 955 m 1
 285 1060 l 1
 505 900 l 1
 465 840 l 1
 220 955 l 1
65 246 m 2
 65 780 l 1
 237 780 l 1
 237 246 l 2
 237 143 302 103 385 103 c 0
 468 103 533 143 533 246 c 2
 533 780 l 1
 705 780 l 1
 705 246 l 2
 705 99 582 -21 385 -21 c 0
 188 -21 65 99 65 246 c 2
EndSplineSet
EndChar

StartChar: Uacute
Encoding: 218 218 157
Width: 770
GlyphClass: 2
Flags: W
AnchorPoint: "LatinBelow.mark" 385 0 basechar 0
AnchorPoint: "LatinAbove.mark" 385 330 basechar 0
LayerCount: 2
Fore
SplineSet
550 955 m 1
 305 840 l 1
 265 900 l 1
 485 1060 l 1
 550 955 l 1
65 246 m 2
 65 780 l 1
 237 780 l 1
 237 246 l 2
 237 143 302 103 385 103 c 0
 468 103 533 143 533 246 c 2
 533 780 l 1
 705 780 l 1
 705 246 l 2
 705 99 582 -21 385 -21 c 0
 188 -21 65 99 65 246 c 2
EndSplineSet
EndChar

StartChar: Ucircumflex
Encoding: 219 219 158
Width: 770
GlyphClass: 2
Flags: W
AnchorPoint: "LatinBelow.mark" 385 0 basechar 0
AnchorPoint: "LatinAbove.mark" 385 330 basechar 0
LayerCount: 2
Fore
SplineSet
175 875 m 1
 365 1020 l 1
 405 1020 l 1
 595 875 l 1
 550 825 l 1
 385 905 l 1
 220 825 l 1
 175 875 l 1
65 246 m 2
 65 780 l 1
 237 780 l 1
 237 246 l 2
 237 143 302 103 385 103 c 0
 468 103 533 143 533 246 c 2
 533 780 l 1
 705 780 l 1
 705 246 l 2
 705 99 582 -21 385 -21 c 0
 188 -21 65 99 65 246 c 2
EndSplineSet
EndChar

StartChar: Udieresis
Encoding: 220 220 159
Width: 770
GlyphClass: 2
Flags: W
AnchorPoint: "LatinBelow.mark" 385 0 basechar 0
AnchorPoint: "LatinAbove.mark" 385 330 basechar 0
LayerCount: 2
Fore
SplineSet
260 1009 m 0
 309 1009 345 979 345 930 c 0
 345 881 309 851 260 851 c 0
 211 851 175 881 175 930 c 0
 175 979 211 1009 260 1009 c 0
510 1009 m 0
 559 1009 595 979 595 930 c 0
 595 881 559 851 510 851 c 0
 461 851 425 881 425 930 c 0
 425 979 461 1009 510 1009 c 0
65 246 m 2
 65 780 l 1
 237 780 l 1
 237 246 l 2
 237 143 302 103 385 103 c 0
 468 103 533 143 533 246 c 2
 533 780 l 1
 705 780 l 1
 705 246 l 2
 705 99 582 -21 385 -21 c 0
 188 -21 65 99 65 246 c 2
EndSplineSet
EndChar

StartChar: Yacute
Encoding: 221 221 160
Width: 670
GlyphClass: 2
Flags: W
AnchorPoint: "LatinBelow.mark" 335 0 basechar 0
AnchorPoint: "LatinAbove.mark" 345 330 basechar 0
LayerCount: 2
Fore
SplineSet
500 955 m 1
 255 840 l 1
 215 900 l 1
 435 1060 l 1
 500 955 l 1
-5 754 m 1
 -5 765 l 1
 185 780 l 1
 335 450 l 1
 485 780 l 1
 675 765 l 1
 675 754 l 1
 420 290 l 1
 420 0 l 1
 250 0 l 1
 250 290 l 1
 -5 754 l 1
EndSplineSet
EndChar

StartChar: Thorn
Encoding: 222 222 161
Width: 725
GlyphClass: 2
Flags: W
AnchorPoint: "LatinBelow.mark" 160 0 basechar 0
AnchorPoint: "LatinAbove.mark" 160 150 basechar 0
LayerCount: 2
Fore
SplineSet
243 286 m 1
 267 285 298 283 330 283 c 0
 432 283 517 308 517 407 c 0
 517 506 432 531 330 531 c 0
 298 531 267 529 243 528 c 1
 243 286 l 1
243 649 m 1
 277 650 313 651 350 651 c 0
 550 651 685 557 685 407 c 0
 685 257 550 163 350 163 c 0
 313 163 277 164 243 165 c 1
 243 0 l 1
 75 0 l 1
 75 172 l 1
 75 642 l 1
 75 780 l 1
 243 780 l 1
 243 649 l 1
EndSplineSet
EndChar

StartChar: germandbls
Encoding: 223 223 162
Width: 780
GlyphClass: 2
Flags: W
AnchorPoint: "LatinBelow.mark" 350 0 basechar 0
AnchorPoint: "LatinAbove.mark" 350 180 basechar 0
LayerCount: 2
Fore
SplineSet
305 148 m 1
 455 158 l 1
 461 115 493 91 530 91 c 0
 568 91 605 108 605 163 c 0
 605 205 564 224 551 229 c 0
 515 243 473 262 439 276 c 0
 383 299 317 345 317 435 c 0
 317 533 388 609 515 611 c 1
 489 692 420 719 360 719 c 0
 305 719 235 697 235 570 c 2
 235 0 l 1
 75 0 l 1
 75 570 l 2
 75 729 191 831 360 831 c 0
 545 831 650 699 660 560 c 1
 585 495 l 1
 576 500 559 510 525 510 c 0
 495 510 467 494 467 450 c 0
 467 405 505 389 521 382 c 0
 555 368 599 349 629 337 c 0
 688 314 755 264 755 163 c 0
 755 71 681 -21 530 -21 c 0
 370 -21 313 89 305 148 c 1
EndSplineSet
EndChar

StartChar: agrave
Encoding: 224 224 163
Width: 625
GlyphClass: 2
Flags: W
AnchorPoint: "LatinBelow.mark" 330 0 basechar 0
AnchorPoint: "LatinAbove.mark" 310 180 basechar 0
LayerCount: 2
Fore
SplineSet
145 805 m 1
 210 910 l 1
 430 750 l 1
 390 690 l 1
 145 805 l 1
40 174 m 0
 40 249 103 330 253 330 c 0
 305 330 356 327 400 323 c 1
 400 412 l 2
 400 486 353 507 300 507 c 0
 253 507 214 481 205 415 c 1
 45 427 l 1
 58 519 137 621 300 621 c 0
 457 621 555 528 555 412 c 2
 555 155 l 2
 555 109 563 93 610 87 c 1
 570 -16 l 1
 534 -11 471 2 441 56 c 1
 405 15 351 -16 270 -16 c 0
 124 -16 40 60 40 174 c 0
408 230 m 1
 367 235 313 239 262 239 c 0
 234 239 195 222 195 172 c 0
 195 101 245 79 290 79 c 0
 367 79 398 135 408 203 c 1
 408 230 l 1
EndSplineSet
MultipleSubs2: "Latin.a.decomp subtable" uni0251 uni0300
EndChar

StartChar: aacute
Encoding: 225 225 164
Width: 625
GlyphClass: 2
Flags: W
AnchorPoint: "LatinBelow.mark" 330 0 basechar 0
AnchorPoint: "LatinAbove.mark" 310 180 basechar 0
LayerCount: 2
Fore
SplineSet
475 805 m 1
 230 690 l 1
 190 750 l 1
 410 910 l 1
 475 805 l 1
40 174 m 0
 40 249 103 330 253 330 c 0
 305 330 356 327 400 323 c 1
 400 412 l 2
 400 486 353 507 300 507 c 0
 253 507 214 481 205 415 c 1
 45 427 l 1
 58 519 137 621 300 621 c 0
 457 621 555 528 555 412 c 2
 555 155 l 2
 555 109 563 93 610 87 c 1
 570 -16 l 1
 534 -11 471 2 441 56 c 1
 405 15 351 -16 270 -16 c 0
 124 -16 40 60 40 174 c 0
408 230 m 1
 367 235 313 239 262 239 c 0
 234 239 195 222 195 172 c 0
 195 101 245 79 290 79 c 0
 367 79 398 135 408 203 c 1
 408 230 l 1
EndSplineSet
MultipleSubs2: "Latin.a.decomp subtable" uni0251 uni0301
EndChar

StartChar: acircumflex
Encoding: 226 226 165
Width: 625
GlyphClass: 2
Flags: W
AnchorPoint: "LatinBelow.mark" 330 0 basechar 0
AnchorPoint: "LatinAbove.mark" 310 180 basechar 0
LayerCount: 2
Fore
SplineSet
100 725 m 1
 290 870 l 1
 330 870 l 1
 520 725 l 1
 475 675 l 1
 310 755 l 1
 145 675 l 1
 100 725 l 1
40 174 m 0
 40 249 103 330 253 330 c 0
 305 330 356 327 400 323 c 1
 400 412 l 2
 400 486 353 507 300 507 c 0
 253 507 214 481 205 415 c 1
 45 427 l 1
 58 519 137 621 300 621 c 0
 457 621 555 528 555 412 c 2
 555 155 l 2
 555 109 563 93 610 87 c 1
 570 -16 l 1
 534 -11 471 2 441 56 c 1
 405 15 351 -16 270 -16 c 0
 124 -16 40 60 40 174 c 0
408 230 m 1
 367 235 313 239 262 239 c 0
 234 239 195 222 195 172 c 0
 195 101 245 79 290 79 c 0
 367 79 398 135 408 203 c 1
 408 230 l 1
EndSplineSet
MultipleSubs2: "Latin.a.decomp subtable" uni0251 uni0302
EndChar

StartChar: atilde
Encoding: 227 227 166
Width: 625
GlyphClass: 2
Flags: W
AnchorPoint: "LatinBelow.mark" 330 0 basechar 0
AnchorPoint: "LatinAbove.mark" 310 180 basechar 0
LayerCount: 2
Fore
SplineSet
100 740 m 1
 127 806 160 865 235 865 c 0
 295 865 329 835 350 817 c 0
 369 801 379 790 389 790 c 0
 414 790 431 840 440 860 c 1
 520 830 l 1
 493 764 460 705 385 705 c 0
 325 705 291 735 270 753 c 0
 251 769 241 780 231 780 c 0
 206 780 189 730 180 710 c 1
 100 740 l 1
40 174 m 0
 40 249 103 330 253 330 c 0
 305 330 356 327 400 323 c 1
 400 412 l 2
 400 486 353 507 300 507 c 0
 253 507 214 481 205 415 c 1
 45 427 l 1
 58 519 137 621 300 621 c 0
 457 621 555 528 555 412 c 2
 555 155 l 2
 555 109 563 93 610 87 c 1
 570 -16 l 1
 534 -11 471 2 441 56 c 1
 405 15 351 -16 270 -16 c 0
 124 -16 40 60 40 174 c 0
408 230 m 1
 367 235 313 239 262 239 c 0
 234 239 195 222 195 172 c 0
 195 101 245 79 290 79 c 0
 367 79 398 135 408 203 c 1
 408 230 l 1
EndSplineSet
MultipleSubs2: "Latin.a.decomp subtable" uni0251 uni0303
EndChar

StartChar: adieresis
Encoding: 228 228 167
Width: 625
GlyphClass: 2
Flags: W
AnchorPoint: "LatinBelow.mark" 330 0 basechar 0
AnchorPoint: "LatinAbove.mark" 310 180 basechar 0
LayerCount: 2
Fore
SplineSet
185 859 m 0
 234 859 270 829 270 780 c 0
 270 731 234 701 185 701 c 0
 136 701 100 731 100 780 c 0
 100 829 136 859 185 859 c 0
435 859 m 0
 484 859 520 829 520 780 c 0
 520 731 484 701 435 701 c 0
 386 701 350 731 350 780 c 0
 350 829 386 859 435 859 c 0
40 174 m 0
 40 249 103 330 253 330 c 0
 305 330 356 327 400 323 c 1
 400 412 l 2
 400 486 353 507 300 507 c 0
 253 507 214 481 205 415 c 1
 45 427 l 1
 58 519 137 621 300 621 c 0
 457 621 555 528 555 412 c 2
 555 155 l 2
 555 109 563 93 610 87 c 1
 570 -16 l 1
 534 -11 471 2 441 56 c 1
 405 15 351 -16 270 -16 c 0
 124 -16 40 60 40 174 c 0
408 230 m 1
 367 235 313 239 262 239 c 0
 234 239 195 222 195 172 c 0
 195 101 245 79 290 79 c 0
 367 79 398 135 408 203 c 1
 408 230 l 1
EndSplineSet
MultipleSubs2: "Latin.a.decomp subtable" uni0251 uni0308
EndChar

StartChar: aring
Encoding: 229 229 168
Width: 625
GlyphClass: 2
Flags: W
AnchorPoint: "LatinBelow.mark" 330 0 basechar 0
AnchorPoint: "LatinAbove.mark" 310 180 basechar 0
LayerCount: 2
Fore
SplineSet
310 645 m 0
 236 645 180 691 180 765 c 0
 180 839 236 885 310 885 c 0
 384 885 440 839 440 765 c 0
 440 691 384 645 310 645 c 0
310 715 m 0
 342 715 360 736 360 765 c 0
 360 794 342 815 310 815 c 0
 278 815 260 794 260 765 c 0
 260 736 278 715 310 715 c 0
40 174 m 0
 40 249 103 330 253 330 c 0
 305 330 356 327 400 323 c 1
 400 412 l 2
 400 486 353 507 300 507 c 0
 253 507 214 481 205 415 c 1
 45 427 l 1
 58 519 137 621 300 621 c 0
 457 621 555 528 555 412 c 2
 555 155 l 2
 555 109 563 93 610 87 c 1
 570 -16 l 1
 534 -11 471 2 441 56 c 1
 405 15 351 -16 270 -16 c 0
 124 -16 40 60 40 174 c 0
408 230 m 1
 367 235 313 239 262 239 c 0
 234 239 195 222 195 172 c 0
 195 101 245 79 290 79 c 0
 367 79 398 135 408 203 c 1
 408 230 l 1
EndSplineSet
MultipleSubs2: "Latin.a.decomp subtable" uni0251 uni030A
EndChar

StartChar: ae
Encoding: 230 230 169
Width: 960
GlyphClass: 2
Flags: W
AnchorPoint: "LatinBelow.mark" 480 0 basechar 0
AnchorPoint: "LatinAbove.mark" 480 0 basechar 0
LayerCount: 2
Fore
SplineSet
40 174 m 0
 40 249 103 330 248 330 c 0
 299 330 348 327 390 323 c 1
 390 412 l 2
 390 486 343 507 295 507 c 0
 253 507 214 481 205 415 c 1
 45 427 l 1
 58 519 137 621 295 621 c 0
 376 621 440 593 482 548 c 1
 522 592 580 621 663 621 c 0
 839 621 920 485 920 357 c 0
 920 326 916 295 910 265 c 1
 546 265 l 1
 550 147 590 91 663 91 c 0
 722 91 750 131 756 167 c 1
 910 153 l 1
 898 87 821 -21 663 -21 c 0
 569 -21 507 15 468 67 c 1
 431 19 368 -21 265 -21 c 0
 124 -21 40 60 40 174 c 0
549 365 m 1
 770 365 l 1
 768 472 723 509 663 509 c 0
 605 509 561 462 549 365 c 1
398 230 m 1
 360 235 312 239 262 239 c 0
 234 239 195 222 195 172 c 0
 195 104 244 84 285 84 c 0
 357 84 388 136 398 203 c 1
 398 230 l 1
EndSplineSet
EndChar

StartChar: ccedilla
Encoding: 231 231 170
Width: 605
GlyphClass: 2
Flags: W
AnchorPoint: "LatinAbove.mark" 330 0 basechar 0
LayerCount: 2
Fore
SplineSet
225 -265 m 1
 296 -249 365 -221 365 -175 c 0
 365 -161 355 -150 310 -150 c 0
 298 -150 282 -153 270 -155 c 1
 225 -110 l 1
 276 -18 l 1
 85 7 40 168 40 288 c 2
 40 312 l 2
 40 442 94 621 330 621 c 0
 503 621 574 510 585 446 c 1
 424 432 l 1
 417 468 381 505 330 505 c 0
 260 505 204 446 204 312 c 2
 204 288 l 2
 204 154 260 95 330 95 c 0
 381 95 417 132 424 168 c 1
 585 154 l 1
 575 94 511 -8 360 -20 c 1
 327 -80 l 1
 410 -80 465 -109 465 -175 c 0
 465 -291 303 -323 250 -335 c 1
 225 -265 l 1
EndSplineSet
EndChar

StartChar: egrave
Encoding: 232 232 171
Width: 640
GlyphClass: 2
Flags: W
AnchorPoint: "LatinBelow.mark" 330 0 basechar 0
AnchorPoint: "LatinAbove.mark" 330 180 basechar 0
LayerCount: 2
Fore
SplineSet
165 805 m 1
 230 910 l 1
 450 750 l 1
 410 690 l 1
 165 805 l 1
40 287 m 2
 40 313 l 2
 40 444 100 621 328 621 c 0
 514 621 600 485 600 357 c 0
 600 326 596 295 590 265 c 1
 197 265 l 1
 203 147 255 91 328 91 c 0
 387 91 425 131 431 167 c 1
 585 153 l 1
 573 87 499 -21 328 -21 c 0
 95 -21 40 156 40 287 c 2
199 365 m 1
 450 365 l 1
 448 472 393 509 328 509 c 0
 262 509 212 462 199 365 c 1
EndSplineSet
EndChar

StartChar: eacute
Encoding: 233 233 172
Width: 640
GlyphClass: 2
Flags: W
AnchorPoint: "LatinBelow.mark" 330 0 basechar 0
AnchorPoint: "LatinAbove.mark" 330 180 basechar 0
LayerCount: 2
Fore
SplineSet
495 805 m 1
 250 690 l 1
 210 750 l 1
 430 910 l 1
 495 805 l 1
40 287 m 2
 40 313 l 2
 40 444 100 621 328 621 c 0
 514 621 600 485 600 357 c 0
 600 326 596 295 590 265 c 1
 197 265 l 1
 203 147 255 91 328 91 c 0
 387 91 425 131 431 167 c 1
 585 153 l 1
 573 87 499 -21 328 -21 c 0
 95 -21 40 156 40 287 c 2
199 365 m 1
 450 365 l 1
 448 472 393 509 328 509 c 0
 262 509 212 462 199 365 c 1
EndSplineSet
EndChar

StartChar: ecircumflex
Encoding: 234 234 173
Width: 640
GlyphClass: 2
Flags: W
AnchorPoint: "LatinBelow.mark" 330 0 basechar 0
AnchorPoint: "LatinAbove.mark" 330 180 basechar 0
LayerCount: 2
Fore
SplineSet
120 725 m 1
 310 870 l 1
 350 870 l 1
 540 725 l 1
 495 675 l 1
 330 755 l 1
 165 675 l 1
 120 725 l 1
40 287 m 2
 40 313 l 2
 40 444 100 621 328 621 c 0
 514 621 600 485 600 357 c 0
 600 326 596 295 590 265 c 1
 197 265 l 1
 203 147 255 91 328 91 c 0
 387 91 425 131 431 167 c 1
 585 153 l 1
 573 87 499 -21 328 -21 c 0
 95 -21 40 156 40 287 c 2
199 365 m 1
 450 365 l 1
 448 472 393 509 328 509 c 0
 262 509 212 462 199 365 c 1
EndSplineSet
EndChar

StartChar: edieresis
Encoding: 235 235 174
Width: 640
GlyphClass: 2
Flags: W
AnchorPoint: "LatinBelow.mark" 330 0 basechar 0
AnchorPoint: "LatinAbove.mark" 330 180 basechar 0
LayerCount: 2
Fore
SplineSet
205 859 m 0
 254 859 290 829 290 780 c 0
 290 731 254 701 205 701 c 0
 156 701 120 731 120 780 c 0
 120 829 156 859 205 859 c 0
455 859 m 0
 504 859 540 829 540 780 c 0
 540 731 504 701 455 701 c 0
 406 701 370 731 370 780 c 0
 370 829 406 859 455 859 c 0
40 287 m 2
 40 313 l 2
 40 444 100 621 328 621 c 0
 514 621 600 485 600 357 c 0
 600 326 596 295 590 265 c 1
 197 265 l 1
 203 147 255 91 328 91 c 0
 387 91 425 131 431 167 c 1
 585 153 l 1
 573 87 499 -21 328 -21 c 0
 95 -21 40 156 40 287 c 2
199 365 m 1
 450 365 l 1
 448 472 393 509 328 509 c 0
 262 509 212 462 199 365 c 1
EndSplineSet
EndChar

StartChar: igrave
Encoding: 236 236 175
Width: 300
GlyphClass: 2
Flags: W
AnchorPoint: "LatinBelow.mark" 150 0 basechar 0
AnchorPoint: "LatinAbove.mark" 150 180 basechar 0
LayerCount: 2
Fore
SplineSet
-15 805 m 1
 50 910 l 1
 270 750 l 1
 230 690 l 1
 -15 805 l 1
70 0 m 1
 70 600 l 1
 230 600 l 1
 230 0 l 1
 70 0 l 1
EndSplineSet
EndChar

StartChar: iacute
Encoding: 237 237 176
Width: 300
GlyphClass: 2
Flags: W
AnchorPoint: "LatinBelow.mark" 150 0 basechar 0
AnchorPoint: "LatinAbove.mark" 150 180 basechar 0
LayerCount: 2
Fore
SplineSet
315 805 m 1
 70 690 l 1
 30 750 l 1
 250 910 l 1
 315 805 l 1
70 0 m 1
 70 600 l 1
 230 600 l 1
 230 0 l 1
 70 0 l 1
EndSplineSet
EndChar

StartChar: icircumflex
Encoding: 238 238 177
Width: 300
GlyphClass: 2
Flags: W
AnchorPoint: "LatinBelow.mark" 150 0 basechar 0
AnchorPoint: "LatinAbove.mark" 150 180 basechar 0
LayerCount: 2
Fore
SplineSet
-60 725 m 1
 130 870 l 1
 170 870 l 1
 360 725 l 1
 315 675 l 1
 150 755 l 1
 -15 675 l 1
 -60 725 l 1
70 0 m 1
 70 600 l 1
 230 600 l 1
 230 0 l 1
 70 0 l 1
EndSplineSet
EndChar

StartChar: idieresis
Encoding: 239 239 178
Width: 300
GlyphClass: 2
Flags: W
AnchorPoint: "LatinBelow.mark" 150 0 basechar 0
AnchorPoint: "LatinAbove.mark" 150 180 basechar 0
LayerCount: 2
Fore
SplineSet
25 859 m 0
 74 859 110 829 110 780 c 0
 110 731 74 701 25 701 c 0
 -24 701 -60 731 -60 780 c 0
 -60 829 -24 859 25 859 c 0
275 859 m 0
 324 859 360 829 360 780 c 0
 360 731 324 701 275 701 c 0
 226 701 190 731 190 780 c 0
 190 829 226 859 275 859 c 0
70 0 m 1
 70 600 l 1
 230 600 l 1
 230 0 l 1
 70 0 l 1
EndSplineSet
EndChar

StartChar: eth
Encoding: 240 240 179
Width: 660
GlyphClass: 2
Flags: W
AnchorPoint: "LatinBelow.mark" 330 0 basechar 0
AnchorPoint: "LatinAbove.mark" 350 180 basechar 0
LayerCount: 2
Fore
SplineSet
391 799 m 1
 530 834 l 1
 550 756 l 1
 461 734 l 1
 573 613 620 469 620 313 c 2
 620 287 l 2
 620 157 566 -21 330 -21 c 0
 94 -21 40 157 40 287 c 2
 40 312 l 2
 40 442 106 611 295 611 c 0
 339 611 376 598 408 577 c 1
 387 621 358 662 320 699 c 1
 130 651 l 1
 110 729 l 1
 244 762 l 1
 230 772 215 782 200 791 c 1
 290 871 l 1
 327 848 361 824 391 799 c 1
458 372 m 1
 437 447 385 495 315 495 c 0
 250 495 200 449 200 312 c 2
 200 287 l 2
 200 153 256 91 330 91 c 0
 404 91 460 153 460 287 c 2
 460 313 l 2
 460 333 459 353 458 372 c 1
EndSplineSet
EndChar

StartChar: ntilde
Encoding: 241 241 180
Width: 655
GlyphClass: 2
Flags: W
AnchorPoint: "LatinBelow.mark" 360 0 basechar 0
LayerCount: 2
Fore
SplineSet
120 740 m 1
 147 806 180 865 255 865 c 0
 315 865 349 835 370 817 c 0
 389 801 399 790 409 790 c 0
 434 790 451 840 460 860 c 1
 540 830 l 1
 513 764 480 705 405 705 c 0
 345 705 311 735 290 753 c 0
 271 769 261 780 251 780 c 0
 226 780 209 730 200 710 c 1
 120 740 l 1
70 0 m 1
 70 420 l 1
 60 591 l 1
 205 603 l 1
 221 484 l 1
 261 556 325 616 425 616 c 0
 547 616 600 510 600 406 c 2
 600 0 l 1
 440 0 l 1
 440 400 l 2
 440 479 403 490 380 490 c 0
 313 490 249 405 230 305 c 1
 230 0 l 1
 70 0 l 1
EndSplineSet
EndChar

StartChar: ograve
Encoding: 242 242 181
Width: 660
GlyphClass: 2
Flags: W
AnchorPoint: "LatinBelow.mark" 330 0 basechar 0
AnchorPoint: "LatinAbove.mark" 330 180 basechar 0
LayerCount: 2
Fore
SplineSet
165 805 m 1
 230 910 l 1
 450 750 l 1
 410 690 l 1
 165 805 l 1
40 287 m 2
 40 313 l 2
 40 443 95 621 330 621 c 0
 565 621 620 443 620 313 c 2
 620 287 l 2
 620 157 565 -21 330 -21 c 0
 95 -21 40 157 40 287 c 2
330 93 m 0
 405 93 460 153 460 287 c 2
 460 313 l 2
 460 447 405 507 330 507 c 0
 255 507 200 447 200 313 c 2
 200 287 l 2
 200 153 255 93 330 93 c 0
EndSplineSet
EndChar

StartChar: oacute
Encoding: 243 243 182
Width: 660
GlyphClass: 2
Flags: W
AnchorPoint: "LatinBelow.mark" 330 0 basechar 0
AnchorPoint: "LatinAbove.mark" 330 180 basechar 0
LayerCount: 2
Fore
SplineSet
495 805 m 1
 250 690 l 1
 210 750 l 1
 430 910 l 1
 495 805 l 1
40 287 m 2
 40 313 l 2
 40 443 95 621 330 621 c 0
 565 621 620 443 620 313 c 2
 620 287 l 2
 620 157 565 -21 330 -21 c 0
 95 -21 40 157 40 287 c 2
330 93 m 0
 405 93 460 153 460 287 c 2
 460 313 l 2
 460 447 405 507 330 507 c 0
 255 507 200 447 200 313 c 2
 200 287 l 2
 200 153 255 93 330 93 c 0
EndSplineSet
EndChar

StartChar: ocircumflex
Encoding: 244 244 183
Width: 660
GlyphClass: 2
Flags: W
AnchorPoint: "LatinBelow.mark" 330 0 basechar 0
AnchorPoint: "LatinAbove.mark" 330 180 basechar 0
LayerCount: 2
Fore
SplineSet
120 725 m 1
 310 870 l 1
 350 870 l 1
 540 725 l 1
 495 675 l 1
 330 755 l 1
 165 675 l 1
 120 725 l 1
40 287 m 2
 40 313 l 2
 40 443 95 621 330 621 c 0
 565 621 620 443 620 313 c 2
 620 287 l 2
 620 157 565 -21 330 -21 c 0
 95 -21 40 157 40 287 c 2
330 93 m 0
 405 93 460 153 460 287 c 2
 460 313 l 2
 460 447 405 507 330 507 c 0
 255 507 200 447 200 313 c 2
 200 287 l 2
 200 153 255 93 330 93 c 0
EndSplineSet
EndChar

StartChar: otilde
Encoding: 245 245 184
Width: 660
GlyphClass: 2
Flags: W
AnchorPoint: "LatinBelow.mark" 330 0 basechar 0
AnchorPoint: "LatinAbove.mark" 330 180 basechar 0
LayerCount: 2
Fore
SplineSet
120 740 m 1
 147 806 180 865 255 865 c 0
 315 865 349 835 370 817 c 0
 389 801 399 790 409 790 c 0
 434 790 451 840 460 860 c 1
 540 830 l 1
 513 764 480 705 405 705 c 0
 345 705 311 735 290 753 c 0
 271 769 261 780 251 780 c 0
 226 780 209 730 200 710 c 1
 120 740 l 1
40 287 m 2
 40 313 l 2
 40 443 95 621 330 621 c 0
 565 621 620 443 620 313 c 2
 620 287 l 2
 620 157 565 -21 330 -21 c 0
 95 -21 40 157 40 287 c 2
330 93 m 0
 405 93 460 153 460 287 c 2
 460 313 l 2
 460 447 405 507 330 507 c 0
 255 507 200 447 200 313 c 2
 200 287 l 2
 200 153 255 93 330 93 c 0
EndSplineSet
EndChar

StartChar: odieresis
Encoding: 246 246 185
Width: 660
GlyphClass: 2
Flags: W
AnchorPoint: "LatinBelow.mark" 330 0 basechar 0
AnchorPoint: "LatinAbove.mark" 330 180 basechar 0
LayerCount: 2
Fore
SplineSet
205 859 m 0
 254 859 290 829 290 780 c 0
 290 731 254 701 205 701 c 0
 156 701 120 731 120 780 c 0
 120 829 156 859 205 859 c 0
455 859 m 0
 504 859 540 829 540 780 c 0
 540 731 504 701 455 701 c 0
 406 701 370 731 370 780 c 0
 370 829 406 859 455 859 c 0
40 287 m 2
 40 313 l 2
 40 443 95 621 330 621 c 0
 565 621 620 443 620 313 c 2
 620 287 l 2
 620 157 565 -21 330 -21 c 0
 95 -21 40 157 40 287 c 2
330 93 m 0
 405 93 460 153 460 287 c 2
 460 313 l 2
 460 447 405 507 330 507 c 0
 255 507 200 447 200 313 c 2
 200 287 l 2
 200 153 255 93 330 93 c 0
EndSplineSet
EndChar

StartChar: divide
Encoding: 247 247 186
Width: 600
GlyphClass: 2
Flags: W
LayerCount: 2
Fore
SplineSet
75 305 m 1
 75 415 l 1
 525 415 l 1
 525 305 l 1
 75 305 l 1
220 195 m 0
 220 241 255 269 300 269 c 0
 345 269 380 241 380 195 c 0
 380 149 345 121 300 121 c 0
 255 121 220 149 220 195 c 0
220 525 m 0
 220 571 255 599 300 599 c 0
 345 599 380 571 380 525 c 0
 380 479 345 451 300 451 c 0
 255 451 220 479 220 525 c 0
EndSplineSet
EndChar

StartChar: oslash
Encoding: 248 248 187
Width: 660
GlyphClass: 2
Flags: W
AnchorPoint: "LatinBelow.mark" 330 0 basechar 0
AnchorPoint: "LatinAbove.mark" 330 0 basechar 0
LayerCount: 2
Fore
SplineSet
40 287 m 2
 40 313 l 2
 40 443 95 621 330 621 c 0
 404 621 461 603 503 575 c 1
 540 621 l 1
 605 575 l 1
 560 520 l 1
 605 459 620 379 620 313 c 2
 620 287 l 2
 620 157 565 -21 330 -21 c 0
 256 -21 199 -3 157 25 c 1
 120 -21 l 1
 55 25 l 1
 100 80 l 1
 55 141 40 221 40 287 c 2
416 469 m 1
 394 495 364 507 330 507 c 0
 255 507 200 447 200 313 c 2
 200 287 l 2
 200 259 202 234 207 212 c 1
 416 469 l 1
453 388 m 1
 244 131 l 1
 266 105 296 93 330 93 c 0
 405 93 460 153 460 287 c 2
 460 313 l 2
 460 341 458 366 453 388 c 1
EndSplineSet
EndChar

StartChar: ugrave
Encoding: 249 249 188
Width: 620
GlyphClass: 2
Flags: W
AnchorPoint: "LatinBelow.mark" 310 0 basechar 0
AnchorPoint: "LatinAbove.mark" 310 180 basechar 0
LayerCount: 2
Fore
SplineSet
145 805 m 1
 210 910 l 1
 430 750 l 1
 390 690 l 1
 145 805 l 1
50 194 m 2
 50 600 l 1
 210 600 l 1
 210 194 l 2
 210 118 256 93 310 93 c 0
 364 93 410 118 410 194 c 2
 410 600 l 1
 570 600 l 1
 570 194 l 2
 570 78 472 -21 310 -21 c 0
 148 -21 50 78 50 194 c 2
EndSplineSet
EndChar

StartChar: uacute
Encoding: 250 250 189
Width: 620
GlyphClass: 2
Flags: W
AnchorPoint: "LatinBelow.mark" 310 0 basechar 0
AnchorPoint: "LatinAbove.mark" 310 180 basechar 0
LayerCount: 2
Fore
SplineSet
475 805 m 1
 230 690 l 1
 190 750 l 1
 410 910 l 1
 475 805 l 1
50 194 m 2
 50 600 l 1
 210 600 l 1
 210 194 l 2
 210 118 256 93 310 93 c 0
 364 93 410 118 410 194 c 2
 410 600 l 1
 570 600 l 1
 570 194 l 2
 570 78 472 -21 310 -21 c 0
 148 -21 50 78 50 194 c 2
EndSplineSet
EndChar

StartChar: ucircumflex
Encoding: 251 251 190
Width: 620
GlyphClass: 2
Flags: W
AnchorPoint: "LatinBelow.mark" 310 0 basechar 0
AnchorPoint: "LatinAbove.mark" 310 180 basechar 0
LayerCount: 2
Fore
SplineSet
100 725 m 1
 290 870 l 1
 330 870 l 1
 520 725 l 1
 475 675 l 1
 310 755 l 1
 145 675 l 1
 100 725 l 1
50 194 m 2
 50 600 l 1
 210 600 l 1
 210 194 l 2
 210 118 256 93 310 93 c 0
 364 93 410 118 410 194 c 2
 410 600 l 1
 570 600 l 1
 570 194 l 2
 570 78 472 -21 310 -21 c 0
 148 -21 50 78 50 194 c 2
EndSplineSet
EndChar

StartChar: udieresis
Encoding: 252 252 191
Width: 620
GlyphClass: 2
Flags: W
AnchorPoint: "LatinBelow.mark" 310 0 basechar 0
AnchorPoint: "LatinAbove.mark" 310 180 basechar 0
LayerCount: 2
Fore
SplineSet
185 859 m 0
 234 859 270 829 270 780 c 0
 270 731 234 701 185 701 c 0
 136 701 100 731 100 780 c 0
 100 829 136 859 185 859 c 0
435 859 m 0
 484 859 520 829 520 780 c 0
 520 731 484 701 435 701 c 0
 386 701 350 731 350 780 c 0
 350 829 386 859 435 859 c 0
50 194 m 2
 50 600 l 1
 210 600 l 1
 210 194 l 2
 210 118 256 93 310 93 c 0
 364 93 410 118 410 194 c 2
 410 600 l 1
 570 600 l 1
 570 194 l 2
 570 78 472 -21 310 -21 c 0
 148 -21 50 78 50 194 c 2
EndSplineSet
EndChar

StartChar: yacute
Encoding: 253 253 192
Width: 600
GlyphClass: 2
Flags: W
AnchorPoint: "LatinBelow.mark" 300 -180 basechar 0
AnchorPoint: "LatinAbove.mark" 300 180 basechar 0
LayerCount: 2
Fore
SplineSet
465 805 m 1
 220 690 l 1
 180 750 l 1
 400 910 l 1
 465 805 l 1
0 580 m 1
 0 588 l 1
 175 600 l 1
 302 200 l 1
 425 600 l 1
 600 588 l 1
 600 580 l 1
 365 -15 l 1
 315 -124 278 -231 138 -231 c 0
 80 -231 37 -209 10 -189 c 1
 85 -95 l 1
 100 -108 116 -121 133 -121 c 0
 172 -121 193 -81 232 8 c 1
 0 580 l 1
EndSplineSet
EndChar

StartChar: thorn
Encoding: 254 254 193
Width: 675
GlyphClass: 2
Flags: W
AnchorPoint: "LatinBelow.mark" 150 -180 basechar 0
AnchorPoint: "LatinAbove.mark" 135 180 basechar 0
LayerCount: 2
Fore
SplineSet
635 290 m 2
 635 160 569 -16 380 -16 c 0
 316 -16 266 13 230 55 c 1
 230 -210 l 1
 70 -210 l 1
 70 810 l 1
 225 810 l 1
 225 539 l 1
 262 584 313 616 380 616 c 0
 569 616 635 440 635 310 c 2
 635 290 l 2
230 217 m 1
 251 148 294 100 360 100 c 0
 425 100 475 153 475 290 c 2
 475 310 l 2
 475 447 425 500 360 500 c 0
 294 500 251 452 230 383 c 1
 230 217 l 1
EndSplineSet
EndChar

StartChar: ydieresis
Encoding: 255 255 194
Width: 600
GlyphClass: 2
Flags: W
AnchorPoint: "LatinBelow.mark" 300 -180 basechar 0
AnchorPoint: "LatinAbove.mark" 300 180 basechar 0
LayerCount: 2
Fore
SplineSet
175 859 m 0
 224 859 260 829 260 780 c 0
 260 731 224 701 175 701 c 0
 126 701 90 731 90 780 c 0
 90 829 126 859 175 859 c 0
425 859 m 0
 474 859 510 829 510 780 c 0
 510 731 474 701 425 701 c 0
 376 701 340 731 340 780 c 0
 340 829 376 859 425 859 c 0
0 580 m 1
 0 588 l 1
 175 600 l 1
 302 200 l 1
 425 600 l 1
 600 588 l 1
 600 580 l 1
 365 -15 l 1
 315 -124 278 -231 138 -231 c 0
 80 -231 37 -209 10 -189 c 1
 85 -95 l 1
 100 -108 116 -121 133 -121 c 0
 172 -121 193 -81 232 8 c 1
 0 580 l 1
EndSplineSet
EndChar

StartChar: Amacron
Encoding: 256 256 195
Width: 750
GlyphClass: 2
Flags: W
AnchorPoint: "LatinBelow.mark" 375 0 basechar 0
AnchorPoint: "LatinAbove.mark" 375 330 basechar 0
LayerCount: 2
Fore
SplineSet
165 880 m 1
 165 980 l 1
 585 980 l 1
 585 880 l 1
 165 880 l 1
750 0 m 1
 560 0 l 1
 511 150 l 1
 239 150 l 1
 190 0 l 1
 0 0 l 1
 0 11 l 1
 305 780 l 1
 445 780 l 1
 750 11 l 1
 750 0 l 1
472 270 m 1
 375 566 l 1
 278 270 l 1
 472 270 l 1
EndSplineSet
EndChar

StartChar: amacron
Encoding: 257 257 196
Width: 625
GlyphClass: 2
Flags: W
AnchorPoint: "LatinBelow.mark" 330 0 basechar 0
AnchorPoint: "LatinAbove.mark" 310 180 basechar 0
LayerCount: 2
Fore
SplineSet
100 730 m 1
 100 830 l 1
 520 830 l 1
 520 730 l 1
 100 730 l 1
40 174 m 0
 40 249 103 330 253 330 c 0
 305 330 356 327 400 323 c 1
 400 412 l 2
 400 486 353 507 300 507 c 0
 253 507 214 481 205 415 c 1
 45 427 l 1
 58 519 137 621 300 621 c 0
 457 621 555 528 555 412 c 2
 555 155 l 2
 555 109 563 93 610 87 c 1
 570 -16 l 1
 534 -11 471 2 441 56 c 1
 405 15 351 -16 270 -16 c 0
 124 -16 40 60 40 174 c 0
408 230 m 1
 367 235 313 239 262 239 c 0
 234 239 195 222 195 172 c 0
 195 101 245 79 290 79 c 0
 367 79 398 135 408 203 c 1
 408 230 l 1
EndSplineSet
MultipleSubs2: "Latin.a.decomp subtable" uni0251 uni0304
EndChar

StartChar: Abreve
Encoding: 258 258 197
Width: 750
GlyphClass: 2
Flags: W
AnchorPoint: "LatinBelow.mark" 375 0 basechar 0
AnchorPoint: "LatinAbove.mark" 375 330 basechar 0
LayerCount: 2
Fore
SplineSet
165 984 m 1
 261 1015 l 1
 272 981 297 935 375 935 c 0
 453 935 478 981 489 1015 c 1
 585 984 l 1
 564 916 505 840 375 840 c 0
 245 840 186 916 165 984 c 1
750 0 m 1
 560 0 l 1
 511 150 l 1
 239 150 l 1
 190 0 l 1
 0 0 l 1
 0 11 l 1
 305 780 l 1
 445 780 l 1
 750 11 l 1
 750 0 l 1
472 270 m 1
 375 566 l 1
 278 270 l 1
 472 270 l 1
EndSplineSet
EndChar

StartChar: abreve
Encoding: 259 259 198
Width: 625
GlyphClass: 2
Flags: W
AnchorPoint: "LatinBelow.mark" 330 0 basechar 0
AnchorPoint: "LatinAbove.mark" 310 180 basechar 0
LayerCount: 2
Fore
SplineSet
100 834 m 1
 196 865 l 1
 207 831 232 785 310 785 c 0
 388 785 413 831 424 865 c 1
 520 834 l 1
 499 766 440 690 310 690 c 0
 180 690 121 766 100 834 c 1
40 174 m 0
 40 249 103 330 253 330 c 0
 305 330 356 327 400 323 c 1
 400 412 l 2
 400 486 353 507 300 507 c 0
 253 507 214 481 205 415 c 1
 45 427 l 1
 58 519 137 621 300 621 c 0
 457 621 555 528 555 412 c 2
 555 155 l 2
 555 109 563 93 610 87 c 1
 570 -16 l 1
 534 -11 471 2 441 56 c 1
 405 15 351 -16 270 -16 c 0
 124 -16 40 60 40 174 c 0
408 230 m 1
 367 235 313 239 262 239 c 0
 234 239 195 222 195 172 c 0
 195 101 245 79 290 79 c 0
 367 79 398 135 408 203 c 1
 408 230 l 1
EndSplineSet
MultipleSubs2: "Latin.a.decomp subtable" uni0251 uni0306
EndChar

StartChar: Aogonek
Encoding: 260 260 199
Width: 750
GlyphClass: 2
Flags: W
AnchorPoint: "LatinAbove.mark" 375 150 basechar 0
LayerCount: 2
Fore
SplineSet
472 270 m 1
 375 566 l 1
 278 270 l 1
 472 270 l 1
634 0 m 1
 560 0 l 1
 511 150 l 1
 239 150 l 1
 190 0 l 1
 0 0 l 1
 0 11 l 1
 305 780 l 1
 445 780 l 1
 750 11 l 1
 750 0 l 1
 722 0 l 1
 700 -28 680 -69 680 -125 c 0
 680 -170 702 -180 725 -180 c 0
 751 -180 779 -169 785 -165 c 1
 810 -238 l 1
 783 -252 746 -260 705 -260 c 0
 623 -260 580 -210 580 -140 c 0
 580 -84 604 -36 634 0 c 1
EndSplineSet
EndChar

StartChar: aogonek
Encoding: 261 261 200
Width: 625
GlyphClass: 2
Flags: W
AnchorPoint: "LatinAbove.mark" 310 0 basechar 0
LayerCount: 2
Fore
SplineSet
408 230 m 1
 367 235 313 239 262 239 c 0
 234 239 195 222 195 172 c 0
 195 101 245 79 290 79 c 0
 367 79 398 135 408 203 c 1
 408 230 l 1
40 174 m 0
 40 249 103 330 253 330 c 0
 305 330 356 327 400 323 c 1
 400 412 l 2
 400 486 353 507 300 507 c 0
 253 507 214 481 205 415 c 1
 45 427 l 1
 58 519 137 621 300 621 c 0
 457 621 555 528 555 412 c 2
 555 155 l 2
 555 109 563 93 610 87 c 1
 570 -16 l 1
 566 -15 562 -15 557 -14 c 1
 539 -41 525 -78 525 -125 c 0
 525 -170 547 -180 570 -180 c 0
 596 -180 624 -169 630 -165 c 1
 655 -238 l 1
 628 -252 591 -260 550 -260 c 0
 468 -260 425 -210 425 -140 c 0
 425 -78 454 -27 487 10 c 1
 469 21 453 35 441 56 c 1
 405 15 351 -16 270 -16 c 0
 124 -16 40 60 40 174 c 0
EndSplineSet
MultipleSubs2: "Latin.a.decomp subtable" uni0251 uni0328
EndChar

StartChar: Cacute
Encoding: 262 262 201
Width: 755
GlyphClass: 2
Flags: W
AnchorPoint: "LatinBelow.mark" 410 0 basechar 0
LayerCount: 2
Fore
SplineSet
575 955 m 1
 330 840 l 1
 290 900 l 1
 510 1060 l 1
 575 955 l 1
45 375 m 2
 45 405 l 2
 45 580 123 801 412 801 c 0
 624 801 715 664 730 582 c 1
 556 566 l 1
 547 616 498 673 412 673 c 0
 295 673 223 582 223 405 c 2
 223 375 l 2
 223 198 295 107 412 107 c 0
 498 107 547 164 556 214 c 1
 730 198 l 1
 715 116 624 -21 412 -21 c 0
 123 -21 45 200 45 375 c 2
EndSplineSet
EndChar

StartChar: cacute
Encoding: 263 263 202
Width: 605
GlyphClass: 2
Flags: W
AnchorPoint: "LatinBelow.mark" 330 0 basechar 0
LayerCount: 2
Fore
SplineSet
495 805 m 1
 250 690 l 1
 210 750 l 1
 430 910 l 1
 495 805 l 1
424 168 m 1
 585 154 l 1
 574 90 503 -21 330 -21 c 0
 94 -21 40 158 40 288 c 2
 40 312 l 2
 40 442 94 621 330 621 c 0
 503 621 574 510 585 446 c 1
 424 432 l 1
 417 468 381 505 330 505 c 0
 260 505 204 446 204 312 c 2
 204 288 l 2
 204 154 260 95 330 95 c 0
 381 95 417 132 424 168 c 1
EndSplineSet
EndChar

StartChar: Ccircumflex
Encoding: 264 264 203
Width: 755
GlyphClass: 2
Flags: W
AnchorPoint: "LatinBelow.mark" 410 0 basechar 0
LayerCount: 2
Fore
SplineSet
200 875 m 1
 390 1020 l 1
 430 1020 l 1
 620 875 l 1
 575 825 l 1
 410 905 l 1
 245 825 l 1
 200 875 l 1
45 375 m 2
 45 405 l 2
 45 580 123 801 412 801 c 0
 624 801 715 664 730 582 c 1
 556 566 l 1
 547 616 498 673 412 673 c 0
 295 673 223 582 223 405 c 2
 223 375 l 2
 223 198 295 107 412 107 c 0
 498 107 547 164 556 214 c 1
 730 198 l 1
 715 116 624 -21 412 -21 c 0
 123 -21 45 200 45 375 c 2
EndSplineSet
EndChar

StartChar: ccircumflex
Encoding: 265 265 204
Width: 605
GlyphClass: 2
Flags: W
AnchorPoint: "LatinBelow.mark" 330 0 basechar 0
LayerCount: 2
Fore
SplineSet
120 725 m 1
 310 870 l 1
 350 870 l 1
 540 725 l 1
 495 675 l 1
 330 755 l 1
 165 675 l 1
 120 725 l 1
424 168 m 1
 585 154 l 1
 574 90 503 -21 330 -21 c 0
 94 -21 40 158 40 288 c 2
 40 312 l 2
 40 442 94 621 330 621 c 0
 503 621 574 510 585 446 c 1
 424 432 l 1
 417 468 381 505 330 505 c 0
 260 505 204 446 204 312 c 2
 204 288 l 2
 204 154 260 95 330 95 c 0
 381 95 417 132 424 168 c 1
EndSplineSet
EndChar

StartChar: Cdotaccent
Encoding: 266 266 205
Width: 755
GlyphClass: 2
Flags: W
AnchorPoint: "LatinBelow.mark" 410 0 basechar 0
LayerCount: 2
Fore
SplineSet
315 930 m 0
 315 984 356 1018 410 1018 c 0
 464 1018 505 984 505 930 c 0
 505 876 464 842 410 842 c 0
 356 842 315 876 315 930 c 0
45 375 m 2
 45 405 l 2
 45 580 123 801 412 801 c 0
 624 801 715 664 730 582 c 1
 556 566 l 1
 547 616 498 673 412 673 c 0
 295 673 223 582 223 405 c 2
 223 375 l 2
 223 198 295 107 412 107 c 0
 498 107 547 164 556 214 c 1
 730 198 l 1
 715 116 624 -21 412 -21 c 0
 123 -21 45 200 45 375 c 2
EndSplineSet
EndChar

StartChar: cdotaccent
Encoding: 267 267 206
Width: 605
GlyphClass: 2
Flags: W
AnchorPoint: "LatinBelow.mark" 330 0 basechar 0
LayerCount: 2
Fore
SplineSet
235 780 m 0
 235 834 276 868 330 868 c 0
 384 868 425 834 425 780 c 0
 425 726 384 692 330 692 c 0
 276 692 235 726 235 780 c 0
424 168 m 1
 585 154 l 1
 574 90 503 -21 330 -21 c 0
 94 -21 40 158 40 288 c 2
 40 312 l 2
 40 442 94 621 330 621 c 0
 503 621 574 510 585 446 c 1
 424 432 l 1
 417 468 381 505 330 505 c 0
 260 505 204 446 204 312 c 2
 204 288 l 2
 204 154 260 95 330 95 c 0
 381 95 417 132 424 168 c 1
EndSplineSet
EndChar

StartChar: Ccaron
Encoding: 268 268 207
Width: 755
GlyphClass: 2
Flags: W
AnchorPoint: "LatinBelow.mark" 410 0 basechar 0
LayerCount: 2
Fore
SplineSet
620 980 m 1
 430 835 l 1
 390 835 l 1
 200 980 l 1
 245 1030 l 1
 410 950 l 1
 575 1030 l 1
 620 980 l 1
45 375 m 2
 45 405 l 2
 45 580 123 801 412 801 c 0
 624 801 715 664 730 582 c 1
 556 566 l 1
 547 616 498 673 412 673 c 0
 295 673 223 582 223 405 c 2
 223 375 l 2
 223 198 295 107 412 107 c 0
 498 107 547 164 556 214 c 1
 730 198 l 1
 715 116 624 -21 412 -21 c 0
 123 -21 45 200 45 375 c 2
EndSplineSet
EndChar

StartChar: ccaron
Encoding: 269 269 208
Width: 605
GlyphClass: 2
Flags: W
AnchorPoint: "LatinBelow.mark" 330 0 basechar 0
LayerCount: 2
Fore
SplineSet
540 830 m 1
 350 685 l 1
 310 685 l 1
 120 830 l 1
 165 880 l 1
 330 800 l 1
 495 880 l 1
 540 830 l 1
424 168 m 1
 585 154 l 1
 574 90 503 -21 330 -21 c 0
 94 -21 40 158 40 288 c 2
 40 312 l 2
 40 442 94 621 330 621 c 0
 503 621 574 510 585 446 c 1
 424 432 l 1
 417 468 381 505 330 505 c 0
 260 505 204 446 204 312 c 2
 204 288 l 2
 204 154 260 95 330 95 c 0
 381 95 417 132 424 168 c 1
EndSplineSet
EndChar

StartChar: Dcaron
Encoding: 270 270 209
Width: 770
GlyphClass: 2
Flags: W
AnchorPoint: "LatinBelow.mark" 320 0 basechar 0
LayerCount: 2
Fore
SplineSet
530 980 m 1
 340 835 l 1
 300 835 l 1
 110 980 l 1
 155 1030 l 1
 320 950 l 1
 485 1030 l 1
 530 980 l 1
245 114 m 1
 264 114 284 113 300 113 c 0
 485 113 555 215 555 380 c 2
 555 400 l 2
 555 565 485 667 300 667 c 0
 284 667 264 666 245 666 c 1
 245 114 l 1
75 780 m 1
 75 780 187 789 300 789 c 0
 621 789 725 583 725 400 c 2
 725 380 l 2
 725 197 621 -9 300 -9 c 0
 187 -9 75 0 75 0 c 1
 75 780 l 1
EndSplineSet
EndChar

StartChar: dcaron
Encoding: 271 271 210
Width: 890
GlyphClass: 2
Flags: W
AnchorPoint: "LatinBelow.mark" 360 0 basechar 0
AnchorPoint: "LatinAbove.mark" 525 180 basechar 0
LayerCount: 2
Fore
SplineSet
782 681 m 1
 775 681 l 2
 732 681 700 707 700 750 c 0
 700 798 731 835 787 835 c 0
 854 835 880 784 880 741 c 0
 880 632 806 574 743 550 c 1
 705 600 l 1
 735 611 767 637 782 681 c 1
40 290 m 2
 40 310 l 2
 40 440 106 616 295 616 c 0
 362 616 413 584 450 539 c 1
 450 810 l 1
 605 810 l 1
 605 155 l 2
 605 109 613 93 660 87 c 1
 620 -16 l 1
 576 -10 490 9 477 100 c 1
 439 36 380 -16 295 -16 c 0
 106 -16 40 160 40 290 c 2
450 364 m 1
 432 443 386 500 315 500 c 0
 250 500 200 447 200 310 c 2
 200 290 l 2
 200 153 250 100 315 100 c 0
 386 100 432 157 450 236 c 1
 450 364 l 1
EndSplineSet
EndChar

StartChar: Dcroat
Encoding: 272 272 211
Width: 770
GlyphClass: 2
Flags: W
AnchorPoint: "LatinBelow.mark" 320 0 basechar 0
AnchorPoint: "LatinAbove.mark" 320 150 basechar 0
LayerCount: 2
Fore
SplineSet
5 345 m 1
 5 435 l 1
 75 435 l 1
 75 780 l 1
 75 780 187 789 300 789 c 0
 621 789 725 583 725 400 c 2
 725 380 l 2
 725 197 621 -9 300 -9 c 0
 187 -9 75 0 75 0 c 1
 75 345 l 1
 5 345 l 1
245 114 m 1
 264 114 284 113 300 113 c 0
 485 113 555 215 555 380 c 2
 555 400 l 2
 555 565 485 667 300 667 c 0
 284 667 264 666 245 666 c 1
 245 435 l 1
 425 435 l 1
 425 345 l 1
 245 345 l 1
 245 114 l 1
EndSplineSet
EndChar

StartChar: dcroat
Encoding: 273 273 212
Width: 680
GlyphClass: 2
Flags: W
AnchorPoint: "LatinBelow.mark" 360 0 basechar 0
AnchorPoint: "LatinAbove.mark" 525 180 basechar 0
LayerCount: 2
Fore
SplineSet
315 675 m 1
 315 765 l 1
 450 765 l 1
 450 810 l 1
 605 810 l 1
 605 765 l 1
 675 765 l 1
 675 675 l 1
 605 675 l 1
 605 155 l 2
 605 109 613 93 660 87 c 1
 620 -16 l 1
 576 -10 490 9 477 100 c 1
 439 36 380 -16 295 -16 c 0
 106 -16 40 160 40 290 c 2
 40 310 l 2
 40 440 106 616 295 616 c 0
 362 616 413 584 450 539 c 1
 450 675 l 1
 315 675 l 1
450 364 m 1
 432 443 386 500 315 500 c 0
 250 500 200 447 200 310 c 2
 200 290 l 2
 200 153 250 100 315 100 c 0
 386 100 432 157 450 236 c 1
 450 364 l 1
EndSplineSet
EndChar

StartChar: Emacron
Encoding: 274 274 213
Width: 675
GlyphClass: 2
Flags: W
AnchorPoint: "LatinBelow.mark" 350 0 basechar 0
AnchorPoint: "LatinAbove.mark" 350 330 basechar 0
LayerCount: 2
Fore
SplineSet
140 880 m 1
 140 980 l 1
 560 980 l 1
 560 880 l 1
 140 880 l 1
75 0 m 1
 75 780 l 1
 620 780 l 1
 620 650 l 1
 245 650 l 1
 245 445 l 1
 580 445 l 1
 580 325 l 1
 245 325 l 1
 245 130 l 1
 635 130 l 1
 635 0 l 1
 75 0 l 1
EndSplineSet
EndChar

StartChar: emacron
Encoding: 275 275 214
Width: 640
GlyphClass: 2
Flags: W
AnchorPoint: "LatinBelow.mark" 330 0 basechar 0
AnchorPoint: "LatinAbove.mark" 330 180 basechar 0
LayerCount: 2
Fore
SplineSet
120 730 m 1
 120 830 l 1
 540 830 l 1
 540 730 l 1
 120 730 l 1
40 287 m 2
 40 313 l 2
 40 444 100 621 328 621 c 0
 514 621 600 485 600 357 c 0
 600 326 596 295 590 265 c 1
 197 265 l 1
 203 147 255 91 328 91 c 0
 387 91 425 131 431 167 c 1
 585 153 l 1
 573 87 499 -21 328 -21 c 0
 95 -21 40 156 40 287 c 2
199 365 m 1
 450 365 l 1
 448 472 393 509 328 509 c 0
 262 509 212 462 199 365 c 1
EndSplineSet
EndChar

StartChar: Ebreve
Encoding: 276 276 215
Width: 675
GlyphClass: 2
Flags: W
AnchorPoint: "LatinBelow.mark" 350 0 basechar 0
AnchorPoint: "LatinAbove.mark" 350 330 basechar 0
LayerCount: 2
Fore
SplineSet
140 984 m 1
 236 1015 l 1
 247 981 272 935 350 935 c 0
 428 935 453 981 464 1015 c 1
 560 984 l 1
 539 916 480 840 350 840 c 0
 220 840 161 916 140 984 c 1
75 0 m 1
 75 780 l 1
 620 780 l 1
 620 650 l 1
 245 650 l 1
 245 445 l 1
 580 445 l 1
 580 325 l 1
 245 325 l 1
 245 130 l 1
 635 130 l 1
 635 0 l 1
 75 0 l 1
EndSplineSet
EndChar

StartChar: ebreve
Encoding: 277 277 216
Width: 640
GlyphClass: 2
Flags: W
AnchorPoint: "LatinBelow.mark" 330 0 basechar 0
AnchorPoint: "LatinAbove.mark" 330 180 basechar 0
LayerCount: 2
Fore
SplineSet
120 834 m 1
 216 865 l 1
 227 831 252 785 330 785 c 0
 408 785 433 831 444 865 c 1
 540 834 l 1
 519 766 460 690 330 690 c 0
 200 690 141 766 120 834 c 1
40 287 m 2
 40 313 l 2
 40 444 100 621 328 621 c 0
 514 621 600 485 600 357 c 0
 600 326 596 295 590 265 c 1
 197 265 l 1
 203 147 255 91 328 91 c 0
 387 91 425 131 431 167 c 1
 585 153 l 1
 573 87 499 -21 328 -21 c 0
 95 -21 40 156 40 287 c 2
199 365 m 1
 450 365 l 1
 448 472 393 509 328 509 c 0
 262 509 212 462 199 365 c 1
EndSplineSet
EndChar

StartChar: Edotaccent
Encoding: 278 278 217
Width: 675
GlyphClass: 2
Flags: W
AnchorPoint: "LatinBelow.mark" 350 0 basechar 0
AnchorPoint: "LatinAbove.mark" 350 330 basechar 0
LayerCount: 2
Fore
SplineSet
255 930 m 0
 255 984 296 1018 350 1018 c 0
 404 1018 445 984 445 930 c 0
 445 876 404 842 350 842 c 0
 296 842 255 876 255 930 c 0
75 0 m 1
 75 780 l 1
 620 780 l 1
 620 650 l 1
 245 650 l 1
 245 445 l 1
 580 445 l 1
 580 325 l 1
 245 325 l 1
 245 130 l 1
 635 130 l 1
 635 0 l 1
 75 0 l 1
EndSplineSet
EndChar

StartChar: edotaccent
Encoding: 279 279 218
Width: 640
GlyphClass: 2
Flags: W
AnchorPoint: "LatinBelow.mark" 330 0 basechar 0
AnchorPoint: "LatinAbove.mark" 330 180 basechar 0
LayerCount: 2
Fore
SplineSet
235 780 m 0
 235 834 276 868 330 868 c 0
 384 868 425 834 425 780 c 0
 425 726 384 692 330 692 c 0
 276 692 235 726 235 780 c 0
40 287 m 2
 40 313 l 2
 40 444 100 621 328 621 c 0
 514 621 600 485 600 357 c 0
 600 326 596 295 590 265 c 1
 197 265 l 1
 203 147 255 91 328 91 c 0
 387 91 425 131 431 167 c 1
 585 153 l 1
 573 87 499 -21 328 -21 c 0
 95 -21 40 156 40 287 c 2
199 365 m 1
 450 365 l 1
 448 472 393 509 328 509 c 0
 262 509 212 462 199 365 c 1
EndSplineSet
EndChar

StartChar: Eogonek
Encoding: 280 280 219
Width: 675
GlyphClass: 2
Flags: W
AnchorPoint: "LatinAbove.mark" 350 150 basechar 0
LayerCount: 2
Fore
SplineSet
75 0 m 1
 75 780 l 1
 620 780 l 1
 620 650 l 1
 245 650 l 1
 245 445 l 1
 580 445 l 1
 580 325 l 1
 245 325 l 1
 245 130 l 1
 635 130 l 1
 635 0 l 1
 597 0 l 1
 575 -28 555 -69 555 -125 c 0
 555 -170 577 -180 600 -180 c 0
 626 -180 654 -169 660 -165 c 1
 685 -238 l 1
 658 -252 621 -260 580 -260 c 0
 498 -260 455 -210 455 -140 c 0
 455 -84 479 -36 509 0 c 1
 75 0 l 1
EndSplineSet
EndChar

StartChar: eogonek
Encoding: 281 281 220
Width: 640
GlyphClass: 2
Flags: W
AnchorPoint: "LatinAbove.mark" 330 0 basechar 0
LayerCount: 2
Fore
SplineSet
199 365 m 1
 450 365 l 1
 448 472 393 509 328 509 c 0
 262 509 212 462 199 365 c 1
40 287 m 2
 40 313 l 2
 40 444 100 621 328 621 c 0
 514 621 600 485 600 357 c 0
 600 326 596 295 590 265 c 1
 197 265 l 1
 203 147 255 91 328 91 c 0
 387 91 425 131 431 167 c 1
 585 153 l 1
 577 110 543 49 473 12 c 1
 447 -15 420 -61 420 -125 c 0
 420 -170 442 -180 465 -180 c 0
 491 -180 519 -169 525 -165 c 1
 550 -238 l 1
 523 -252 486 -260 445 -260 c 0
 363 -260 320 -210 320 -140 c 0
 320 -93 336 -53 359 -20 c 1
 349 -21 339 -21 328 -21 c 0
 95 -21 40 156 40 287 c 2
EndSplineSet
EndChar

StartChar: Ecaron
Encoding: 282 282 221
Width: 675
GlyphClass: 2
Flags: W
AnchorPoint: "LatinBelow.mark" 350 0 basechar 0
AnchorPoint: "LatinAbove.mark" 350 330 basechar 0
LayerCount: 2
Fore
SplineSet
560 980 m 1
 370 835 l 1
 330 835 l 1
 140 980 l 1
 185 1030 l 1
 350 950 l 1
 515 1030 l 1
 560 980 l 1
75 0 m 1
 75 780 l 1
 620 780 l 1
 620 650 l 1
 245 650 l 1
 245 445 l 1
 580 445 l 1
 580 325 l 1
 245 325 l 1
 245 130 l 1
 635 130 l 1
 635 0 l 1
 75 0 l 1
EndSplineSet
EndChar

StartChar: ecaron
Encoding: 283 283 222
Width: 640
GlyphClass: 2
Flags: W
AnchorPoint: "LatinBelow.mark" 330 0 basechar 0
AnchorPoint: "LatinAbove.mark" 330 180 basechar 0
LayerCount: 2
Fore
SplineSet
540 830 m 1
 350 685 l 1
 310 685 l 1
 120 830 l 1
 165 880 l 1
 330 800 l 1
 495 880 l 1
 540 830 l 1
40 287 m 2
 40 313 l 2
 40 444 100 621 328 621 c 0
 514 621 600 485 600 357 c 0
 600 326 596 295 590 265 c 1
 197 265 l 1
 203 147 255 91 328 91 c 0
 387 91 425 131 431 167 c 1
 585 153 l 1
 573 87 499 -21 328 -21 c 0
 95 -21 40 156 40 287 c 2
199 365 m 1
 450 365 l 1
 448 472 393 509 328 509 c 0
 262 509 212 462 199 365 c 1
EndSplineSet
EndChar

StartChar: Gcircumflex
Encoding: 284 284 223
Width: 770
GlyphClass: 2
Flags: W
AnchorPoint: "LatinBelow.mark" 410 0 basechar 0
LayerCount: 2
Fore
SplineSet
200 875 m 1
 390 1020 l 1
 430 1020 l 1
 620 875 l 1
 575 825 l 1
 410 905 l 1
 245 825 l 1
 200 875 l 1
415 285 m 1
 415 405 l 1
 725 405 l 1
 725 135 l 1
 684 66 586 -21 412 -21 c 0
 123 -21 45 200 45 375 c 2
 45 405 l 2
 45 580 123 801 412 801 c 0
 624 801 715 664 730 582 c 1
 558 566 l 1
 549 616 500 675 412 675 c 0
 291 675 219 586 219 405 c 2
 219 375 l 2
 219 194 291 105 412 105 c 0
 498 105 544 131 570 160 c 1
 570 285 l 1
 415 285 l 1
EndSplineSet
EndChar

StartChar: gcircumflex
Encoding: 285 285 224
Width: 670
GlyphClass: 2
Flags: W
AnchorPoint: "LatinBelow.mark" 360 -180 basechar 0
LayerCount: 2
Fore
SplineSet
150 725 m 1
 340 870 l 1
 380 870 l 1
 570 725 l 1
 525 675 l 1
 360 755 l 1
 195 675 l 1
 150 725 l 1
40 315 m 0
 40 440 106 616 295 616 c 0
 368 616 421 578 459 527 c 1
 469 600 l 1
 605 600 l 1
 605 -15 l 2
 605 -135 505 -231 347 -231 c 0
 193 -231 112 -159 95 -117 c 1
 243 -75 l 1
 250 -91 281 -122 347 -122 c 0
 410 -122 455 -93 455 -15 c 2
 455 98 l 1
 418 50 365 14 295 14 c 0
 106 14 40 190 40 315 c 0
450 364 m 1
 432 443 386 500 315 500 c 0
 250 500 200 447 200 315 c 0
 200 183 250 130 315 130 c 0
 386 130 432 187 450 266 c 1
 450 364 l 1
EndSplineSet
MultipleSubs2: "Latin.g.decomp subtable" g.alt uni0302
EndChar

StartChar: Gbreve
Encoding: 286 286 225
Width: 770
GlyphClass: 2
Flags: W
AnchorPoint: "LatinBelow.mark" 410 0 basechar 0
LayerCount: 2
Fore
SplineSet
200 984 m 1
 296 1015 l 1
 307 981 332 935 410 935 c 0
 488 935 513 981 524 1015 c 1
 620 984 l 1
 599 916 540 840 410 840 c 0
 280 840 221 916 200 984 c 1
415 285 m 1
 415 405 l 1
 725 405 l 1
 725 135 l 1
 684 66 586 -21 412 -21 c 0
 123 -21 45 200 45 375 c 2
 45 405 l 2
 45 580 123 801 412 801 c 0
 624 801 715 664 730 582 c 1
 558 566 l 1
 549 616 500 675 412 675 c 0
 291 675 219 586 219 405 c 2
 219 375 l 2
 219 194 291 105 412 105 c 0
 498 105 544 131 570 160 c 1
 570 285 l 1
 415 285 l 1
EndSplineSet
EndChar

StartChar: gbreve
Encoding: 287 287 226
Width: 670
GlyphClass: 2
Flags: W
AnchorPoint: "LatinBelow.mark" 360 -180 basechar 0
LayerCount: 2
Fore
SplineSet
150 834 m 1
 246 865 l 1
 257 831 282 785 360 785 c 0
 438 785 463 831 474 865 c 1
 570 834 l 1
 549 766 490 690 360 690 c 0
 230 690 171 766 150 834 c 1
40 315 m 0
 40 440 106 616 295 616 c 0
 368 616 421 578 459 527 c 1
 469 600 l 1
 605 600 l 1
 605 -15 l 2
 605 -135 505 -231 347 -231 c 0
 193 -231 112 -159 95 -117 c 1
 243 -75 l 1
 250 -91 281 -122 347 -122 c 0
 410 -122 455 -93 455 -15 c 2
 455 98 l 1
 418 50 365 14 295 14 c 0
 106 14 40 190 40 315 c 0
450 364 m 1
 432 443 386 500 315 500 c 0
 250 500 200 447 200 315 c 0
 200 183 250 130 315 130 c 0
 386 130 432 187 450 266 c 1
 450 364 l 1
EndSplineSet
MultipleSubs2: "Latin.g.decomp subtable" g.alt uni0306
EndChar

StartChar: Gdotaccent
Encoding: 288 288 227
Width: 770
GlyphClass: 2
Flags: W
AnchorPoint: "LatinBelow.mark" 410 0 basechar 0
LayerCount: 2
Fore
SplineSet
315 930 m 0
 315 984 356 1018 410 1018 c 0
 464 1018 505 984 505 930 c 0
 505 876 464 842 410 842 c 0
 356 842 315 876 315 930 c 0
415 285 m 1
 415 405 l 1
 725 405 l 1
 725 135 l 1
 684 66 586 -21 412 -21 c 0
 123 -21 45 200 45 375 c 2
 45 405 l 2
 45 580 123 801 412 801 c 0
 624 801 715 664 730 582 c 1
 558 566 l 1
 549 616 500 675 412 675 c 0
 291 675 219 586 219 405 c 2
 219 375 l 2
 219 194 291 105 412 105 c 0
 498 105 544 131 570 160 c 1
 570 285 l 1
 415 285 l 1
EndSplineSet
EndChar

StartChar: gdotaccent
Encoding: 289 289 228
Width: 670
GlyphClass: 2
Flags: W
AnchorPoint: "LatinBelow.mark" 360 -180 basechar 0
LayerCount: 2
Fore
SplineSet
265 780 m 0
 265 834 306 868 360 868 c 0
 414 868 455 834 455 780 c 0
 455 726 414 692 360 692 c 0
 306 692 265 726 265 780 c 0
40 315 m 0
 40 440 106 616 295 616 c 0
 368 616 421 578 459 527 c 1
 469 600 l 1
 605 600 l 1
 605 -15 l 2
 605 -135 505 -231 347 -231 c 0
 193 -231 112 -159 95 -117 c 1
 243 -75 l 1
 250 -91 281 -122 347 -122 c 0
 410 -122 455 -93 455 -15 c 2
 455 98 l 1
 418 50 365 14 295 14 c 0
 106 14 40 190 40 315 c 0
450 364 m 1
 432 443 386 500 315 500 c 0
 250 500 200 447 200 315 c 0
 200 183 250 130 315 130 c 0
 386 130 432 187 450 266 c 1
 450 364 l 1
EndSplineSet
MultipleSubs2: "Latin.g.decomp subtable" g.alt uni0307
EndChar

StartChar: uni0122
Encoding: 290 290 229
Width: 770
GlyphClass: 2
Flags: W
AnchorPoint: "LatinAbove.mark" 410 150 basechar 0
LayerCount: 2
Fore
SplineSet
397 -219 m 1
 390 -219 l 2
 347 -219 315 -193 315 -150 c 0
 315 -102 346 -65 402 -65 c 0
 469 -65 495 -116 495 -159 c 0
 495 -268 421 -326 358 -350 c 1
 320 -300 l 1
 350 -289 382 -263 397 -219 c 1
415 285 m 1
 415 405 l 1
 725 405 l 1
 725 135 l 1
 684 66 586 -21 412 -21 c 0
 123 -21 45 200 45 375 c 2
 45 405 l 2
 45 580 123 801 412 801 c 0
 624 801 715 664 730 582 c 1
 558 566 l 1
 549 616 500 675 412 675 c 0
 291 675 219 586 219 405 c 2
 219 375 l 2
 219 194 291 105 412 105 c 0
 498 105 544 131 570 160 c 1
 570 285 l 1
 415 285 l 1
EndSplineSet
EndChar

StartChar: uni0123
Encoding: 291 291 230
Width: 670
GlyphClass: 2
Flags: W
AnchorPoint: "LatinBelow.mark" 360 -180 basechar 0
LayerCount: 2
Fore
SplineSet
373 849 m 1
 380 849 l 2
 423 849 455 823 455 780 c 0
 455 732 424 695 368 695 c 0
 301 695 275 746 275 789 c 0
 275 898 349 956 412 980 c 1
 450 930 l 1
 420 919 388 893 373 849 c 1
40 315 m 0
 40 440 106 616 295 616 c 0
 368 616 421 578 459 527 c 1
 469 600 l 1
 605 600 l 1
 605 -15 l 2
 605 -135 505 -231 347 -231 c 0
 193 -231 112 -159 95 -117 c 1
 243 -75 l 1
 250 -91 281 -122 347 -122 c 0
 410 -122 455 -93 455 -15 c 2
 455 98 l 1
 418 50 365 14 295 14 c 0
 106 14 40 190 40 315 c 0
450 364 m 1
 432 443 386 500 315 500 c 0
 250 500 200 447 200 315 c 0
 200 183 250 130 315 130 c 0
 386 130 432 187 450 266 c 1
 450 364 l 1
EndSplineSet
MultipleSubs2: "Latin.g.decomp subtable" g.alt uni0312
EndChar

StartChar: Hcircumflex
Encoding: 292 292 231
Width: 790
GlyphClass: 2
Flags: W
AnchorPoint: "LatinBelow.mark" 395 0 basechar 0
LayerCount: 2
Fore
SplineSet
185 875 m 1
 375 1020 l 1
 415 1020 l 1
 605 875 l 1
 560 825 l 1
 395 905 l 1
 230 825 l 1
 185 875 l 1
75 0 m 1
 75 780 l 1
 245 780 l 1
 245 455 l 1
 545 455 l 1
 545 780 l 1
 715 780 l 1
 715 0 l 1
 545 0 l 1
 545 325 l 1
 245 325 l 1
 245 0 l 1
 75 0 l 1
EndSplineSet
EndChar

StartChar: hcircumflex
Encoding: 293 293 232
Width: 665
GlyphClass: 2
Flags: W
AnchorPoint: "LatinBelow.mark" 360 0 basechar 0
LayerCount: 2
Fore
SplineSet
-75 905 m 1
 115 1050 l 1
 155 1050 l 1
 345 905 l 1
 300 855 l 1
 135 935 l 1
 -30 855 l 1
 -75 905 l 1
70 0 m 1
 70 810 l 1
 225 810 l 1
 225 482 l 1
 267 555 334 616 435 616 c 0
 557 616 610 510 610 406 c 2
 610 0 l 1
 450 0 l 1
 450 400 l 2
 450 479 413 490 390 490 c 0
 323 490 250 403 230 303 c 1
 230 0 l 1
 70 0 l 1
EndSplineSet
EndChar

StartChar: Hbar
Encoding: 294 294 233
Width: 790
GlyphClass: 2
Flags: W
AnchorPoint: "LatinBelow.mark" 395 0 basechar 0
AnchorPoint: "LatinAbove.mark" 395 150 basechar 0
LayerCount: 2
Fore
SplineSet
5 615 m 1
 5 705 l 1
 75 705 l 1
 75 780 l 1
 245 780 l 1
 245 705 l 1
 545 705 l 1
 545 780 l 1
 715 780 l 1
 715 705 l 1
 785 705 l 1
 785 615 l 1
 715 615 l 1
 715 0 l 1
 545 0 l 1
 545 325 l 1
 245 325 l 1
 245 0 l 1
 75 0 l 1
 75 615 l 1
 5 615 l 1
545 615 m 1
 245 615 l 1
 245 455 l 1
 545 455 l 1
 545 615 l 1
EndSplineSet
EndChar

StartChar: hbar
Encoding: 295 295 234
Width: 665
GlyphClass: 2
Flags: W
AnchorPoint: "LatinBelow.mark" 360 0 basechar 0
LayerCount: 2
Fore
SplineSet
0 675 m 1
 0 765 l 1
 70 765 l 1
 70 810 l 1
 225 810 l 1
 225 765 l 1
 360 765 l 1
 360 675 l 1
 225 675 l 1
 225 482 l 1
 267 555 334 616 435 616 c 0
 557 616 610 510 610 406 c 2
 610 0 l 1
 450 0 l 1
 450 400 l 2
 450 479 413 490 390 490 c 0
 323 490 250 403 230 303 c 1
 230 0 l 1
 70 0 l 1
 70 675 l 1
 0 675 l 1
EndSplineSet
EndChar

StartChar: Itilde
Encoding: 296 296 235
Width: 320
GlyphClass: 2
Flags: W
AnchorPoint: "LatinBelow.mark" 160 0 basechar 0
AnchorPoint: "LatinAbove.mark" 160 330 basechar 0
LayerCount: 2
Fore
SplineSet
-50 890 m 1
 -23 956 10 1015 85 1015 c 0
 145 1015 179 985 200 967 c 0
 219 951 229 940 239 940 c 0
 264 940 281 990 290 1010 c 1
 370 980 l 1
 343 914 310 855 235 855 c 0
 175 855 141 885 120 903 c 0
 101 919 91 930 81 930 c 0
 56 930 39 880 30 860 c 1
 -50 890 l 1
75 0 m 1
 75 780 l 1
 245 780 l 1
 245 0 l 1
 75 0 l 1
EndSplineSet
EndChar

StartChar: itilde
Encoding: 297 297 236
Width: 300
GlyphClass: 2
Flags: W
AnchorPoint: "LatinBelow.mark" 150 0 basechar 0
AnchorPoint: "LatinAbove.mark" 150 180 basechar 0
LayerCount: 2
Fore
SplineSet
-60 740 m 1
 -33 806 0 865 75 865 c 0
 135 865 169 835 190 817 c 0
 209 801 219 790 229 790 c 0
 254 790 271 840 280 860 c 1
 360 830 l 1
 333 764 300 705 225 705 c 0
 165 705 131 735 110 753 c 0
 91 769 81 780 71 780 c 0
 46 780 29 730 20 710 c 1
 -60 740 l 1
70 0 m 1
 70 600 l 1
 230 600 l 1
 230 0 l 1
 70 0 l 1
EndSplineSet
EndChar

StartChar: Imacron
Encoding: 298 298 237
Width: 320
GlyphClass: 2
Flags: W
AnchorPoint: "LatinBelow.mark" 160 0 basechar 0
AnchorPoint: "LatinAbove.mark" 160 330 basechar 0
LayerCount: 2
Fore
SplineSet
-50 880 m 1
 -50 980 l 1
 370 980 l 1
 370 880 l 1
 -50 880 l 1
75 0 m 1
 75 780 l 1
 245 780 l 1
 245 0 l 1
 75 0 l 1
EndSplineSet
EndChar

StartChar: imacron
Encoding: 299 299 238
Width: 300
GlyphClass: 2
Flags: W
AnchorPoint: "LatinBelow.mark" 150 0 basechar 0
AnchorPoint: "LatinAbove.mark" 150 180 basechar 0
LayerCount: 2
Fore
SplineSet
-60 730 m 1
 -60 830 l 1
 360 830 l 1
 360 730 l 1
 -60 730 l 1
70 0 m 1
 70 600 l 1
 230 600 l 1
 230 0 l 1
 70 0 l 1
EndSplineSet
EndChar

StartChar: Ibreve
Encoding: 300 300 239
Width: 320
GlyphClass: 2
Flags: W
LayerCount: 2
Fore
SplineSet
-50 984 m 1
 46 1015 l 1
 57 981 82 935 160 935 c 0
 238 935 263 981 274 1015 c 1
 370 984 l 1
 349 916 290 840 160 840 c 0
 30 840 -29 916 -50 984 c 1
75 0 m 1
 75 780 l 1
 245 780 l 1
 245 0 l 1
 75 0 l 1
EndSplineSet
EndChar

StartChar: ibreve
Encoding: 301 301 240
Width: 300
GlyphClass: 2
Flags: W
LayerCount: 2
Fore
SplineSet
-60 834 m 1
 36 865 l 1
 47 831 72 785 150 785 c 0
 228 785 253 831 264 865 c 1
 360 834 l 1
 339 766 280 690 150 690 c 0
 20 690 -39 766 -60 834 c 1
70 0 m 1
 70 600 l 1
 230 600 l 1
 230 0 l 1
 70 0 l 1
EndSplineSet
EndChar

StartChar: Iogonek
Encoding: 302 302 241
Width: 320
GlyphClass: 2
Flags: W
AnchorPoint: "LatinAbove.mark" 160 150 basechar 0
LayerCount: 2
Fore
SplineSet
75 0 m 1
 75 780 l 1
 245 780 l 1
 245 0 l 1
 217 0 l 1
 195 -28 175 -69 175 -125 c 0
 175 -170 197 -180 220 -180 c 0
 246 -180 274 -169 280 -165 c 1
 305 -238 l 1
 278 -252 241 -260 200 -260 c 0
 118 -260 75 -210 75 -140 c 0
 75 -84 99 -36 129 0 c 1
 75 0 l 1
EndSplineSet
EndChar

StartChar: iogonek
Encoding: 303 303 242
Width: 300
GlyphClass: 2
Flags: W
AnchorPoint: "LatinAbove.mark" 150 180 basechar 0
LayerCount: 2
Fore
SplineSet
70 0 m 1
 70 600 l 1
 230 600 l 1
 230 0 l 1
 207 0 l 1
 185 -28 165 -69 165 -125 c 0
 165 -170 187 -180 210 -180 c 0
 236 -180 264 -169 270 -165 c 1
 295 -238 l 1
 268 -252 231 -260 190 -260 c 0
 108 -260 65 -210 65 -140 c 0
 65 -84 89 -36 119 0 c 1
 70 0 l 1
55 780 m 0
 55 834 96 868 150 868 c 0
 204 868 245 834 245 780 c 0
 245 726 204 692 150 692 c 0
 96 692 55 726 55 780 c 0
EndSplineSet
EndChar

StartChar: Idotaccent
Encoding: 304 304 243
Width: 320
GlyphClass: 2
Flags: W
AnchorPoint: "LatinBelow.mark" 160 0 basechar 0
AnchorPoint: "LatinAbove.mark" 160 330 basechar 0
LayerCount: 2
Fore
SplineSet
65 930 m 0
 65 984 106 1018 160 1018 c 0
 214 1018 255 984 255 930 c 0
 255 876 214 842 160 842 c 0
 106 842 65 876 65 930 c 0
75 0 m 1
 75 780 l 1
 245 780 l 1
 245 0 l 1
 75 0 l 1
EndSplineSet
EndChar

StartChar: dotlessi
Encoding: 305 305 244
Width: 300
GlyphClass: 2
Flags: W
AnchorPoint: "LatinOgonek.mark" 155 0 basechar 0
AnchorPoint: "LatinBelow.mark" 150 0 basechar 0
AnchorPoint: "LatinAbove.mark" 150 0 basechar 0
LayerCount: 2
Fore
SplineSet
70 0 m 1
 70 600 l 1
 230 600 l 1
 230 0 l 1
 70 0 l 1
EndSplineSet
EndChar

StartChar: Jcircumflex
Encoding: 308 308 245
Width: 520
GlyphClass: 2
Flags: W
AnchorPoint: "LatinBelow.mark" 230 0 basechar 0
LayerCount: 2
Fore
SplineSet
150 875 m 1
 340 1020 l 1
 380 1020 l 1
 570 875 l 1
 525 825 l 1
 360 905 l 1
 195 825 l 1
 150 875 l 1
5 143 m 1
 175 155 l 1
 182 109 204 99 225 99 c 0
 245 99 275 106 275 169 c 2
 275 780 l 1
 445 780 l 1
 445 169 l 2
 445 72 369 -21 225 -21 c 0
 82 -21 16 69 5 143 c 1
EndSplineSet
EndChar

StartChar: jcircumflex
Encoding: 309 309 246
Width: 310
GlyphClass: 2
Flags: W
AnchorPoint: "LatinBelow.mark" 150 -180 basechar 0
AnchorPoint: "LatinAbove.mark" 150 180 basechar 0
LayerCount: 2
Fore
SplineSet
-50 725 m 1
 140 870 l 1
 180 870 l 1
 370 725 l 1
 325 675 l 1
 160 755 l 1
 -5 675 l 1
 -50 725 l 1
35 -226 m 1
 -15 -125 l 1
 50 -109 80 -82 80 -5 c 2
 80 600 l 1
 240 600 l 1
 240 -15 l 2
 240 -136 139 -204 35 -226 c 1
EndSplineSet
EndChar

StartChar: uni0136
Encoding: 310 310 247
Width: 715
GlyphClass: 2
Flags: W
LayerCount: 2
Fore
SplineSet
347 -219 m 1
 340 -219 l 2
 297 -219 265 -193 265 -150 c 0
 265 -102 296 -65 352 -65 c 0
 419 -65 445 -116 445 -159 c 0
 445 -268 371 -326 308 -350 c 1
 270 -300 l 1
 300 -289 332 -263 347 -219 c 1
75 0 m 1
 75 780 l 1
 239 780 l 1
 239 467 l 1
 505 780 l 1
 695 767 l 1
 695 759 l 1
 392 445 l 1
 725 8 l 1
 725 0 l 1
 526 0 l 1
 283 332 l 1
 239 287 l 1
 239 0 l 1
 75 0 l 1
EndSplineSet
EndChar

StartChar: uni0137
Encoding: 311 311 248
Width: 605
GlyphClass: 2
Flags: W
AnchorPoint: "LatinAbove.mark" 135 180 basechar 0
LayerCount: 2
Fore
SplineSet
347 -219 m 1
 340 -219 l 2
 297 -219 265 -193 265 -150 c 0
 265 -102 296 -65 352 -65 c 0
 419 -65 445 -116 445 -159 c 0
 445 -268 371 -326 308 -350 c 1
 270 -300 l 1
 300 -289 332 -263 347 -219 c 1
80 0 m 1
 80 810 l 1
 232 810 l 1
 232 382 l 1
 420 600 l 1
 595 590 l 1
 595 584 l 1
 357 341 l 1
 615 6 l 1
 615 0 l 1
 433 0 l 1
 256 238 l 1
 232 213 l 1
 232 0 l 1
 80 0 l 1
EndSplineSet
EndChar

StartChar: kgreenlandic
Encoding: 312 312 249
Width: 610
GlyphClass: 2
Flags: W
AnchorPoint: "LatinBelow.mark" 360 0 basechar 0
AnchorPoint: "LatinAbove.mark" 330 0 basechar 0
LayerCount: 2
Fore
SplineSet
80 0 m 1
 80 600 l 1
 232 600 l 1
 232 382 l 1
 420 600 l 1
 595 590 l 1
 595 584 l 1
 357 341 l 1
 615 6 l 1
 615 0 l 1
 433 0 l 1
 256 238 l 1
 232 213 l 1
 232 0 l 1
 80 0 l 1
EndSplineSet
EndChar

StartChar: Lacute
Encoding: 313 313 250
Width: 570
GlyphClass: 2
Flags: W
AnchorPoint: "LatinBelow.mark" 320 0 basechar 0
LayerCount: 2
Fore
SplineSet
325 955 m 1
 80 840 l 1
 40 900 l 1
 260 1060 l 1
 325 955 l 1
75 0 m 1
 75 780 l 1
 247 780 l 1
 247 130 l 1
 560 130 l 1
 560 0 l 1
 75 0 l 1
EndSplineSet
EndChar

StartChar: lacute
Encoding: 314 314 251
Width: 315
GlyphClass: 2
Flags: W
AnchorPoint: "LatinBelow.mark" 190 0 basechar 0
LayerCount: 2
Fore
SplineSet
305 985 m 1
 60 870 l 1
 20 930 l 1
 240 1090 l 1
 305 985 l 1
70 140 m 2
 70 810 l 1
 230 810 l 1
 230 155 l 2
 230 109 253 93 315 87 c 1
 285 -16 l 1
 198 -10 70 14 70 140 c 2
EndSplineSet
EndChar

StartChar: uni013B
Encoding: 315 315 252
Width: 570
GlyphClass: 2
Flags: W
AnchorPoint: "LatinAbove.mark" 160 150 basechar 0
LayerCount: 2
Fore
SplineSet
307 -219 m 1
 300 -219 l 2
 257 -219 225 -193 225 -150 c 0
 225 -102 256 -65 312 -65 c 0
 379 -65 405 -116 405 -159 c 0
 405 -268 331 -326 268 -350 c 1
 230 -300 l 1
 260 -289 292 -263 307 -219 c 1
75 0 m 1
 75 780 l 1
 247 780 l 1
 247 130 l 1
 560 130 l 1
 560 0 l 1
 75 0 l 1
EndSplineSet
EndChar

StartChar: uni013C
Encoding: 316 316 253
Width: 315
GlyphClass: 2
Flags: W
AnchorPoint: "LatinAbove.mark" 140 180 basechar 0
LayerCount: 2
Fore
SplineSet
177 -219 m 1
 170 -219 l 2
 127 -219 95 -193 95 -150 c 0
 95 -102 126 -65 182 -65 c 0
 249 -65 275 -116 275 -159 c 0
 275 -268 201 -326 138 -350 c 1
 100 -300 l 1
 130 -289 162 -263 177 -219 c 1
70 140 m 2
 70 810 l 1
 230 810 l 1
 230 155 l 2
 230 109 253 93 315 87 c 1
 285 -16 l 1
 198 -10 70 14 70 140 c 2
EndSplineSet
EndChar

StartChar: Lcaron
Encoding: 317 317 254
Width: 570
GlyphClass: 2
Flags: W
LayerCount: 2
Fore
SplineSet
432 681 m 1
 425 681 l 2
 382 681 350 707 350 750 c 0
 350 798 381 835 437 835 c 0
 504 835 530 784 530 741 c 0
 530 632 456 574 393 550 c 1
 355 600 l 1
 385 611 417 637 432 681 c 1
75 0 m 1
 75 780 l 1
 247 780 l 1
 247 130 l 1
 560 130 l 1
 560 0 l 1
 75 0 l 1
EndSplineSet
EndChar

StartChar: lcaron
Encoding: 318 318 255
Width: 525
GlyphClass: 2
Flags: W
LayerCount: 2
Fore
SplineSet
417 681 m 1
 410 681 l 2
 367 681 335 707 335 750 c 0
 335 798 366 835 422 835 c 0
 489 835 515 784 515 741 c 0
 515 632 441 574 378 550 c 1
 340 600 l 1
 370 611 402 637 417 681 c 1
70 140 m 2
 70 810 l 1
 230 810 l 1
 230 155 l 2
 230 109 253 93 315 87 c 1
 285 -16 l 1
 198 -10 70 14 70 140 c 2
EndSplineSet
EndChar

StartChar: Ldot
Encoding: 319 319 256
Width: 570
GlyphClass: 2
Flags: W
LayerCount: 2
Fore
SplineSet
340 360 m 0
 340 414 381 448 435 448 c 0
 489 448 530 414 530 360 c 0
 530 306 489 272 435 272 c 0
 381 272 340 306 340 360 c 0
75 0 m 1
 75 780 l 1
 247 780 l 1
 247 130 l 1
 560 130 l 1
 560 0 l 1
 75 0 l 1
EndSplineSet
EndChar

StartChar: ldot
Encoding: 320 320 257
Width: 510
GlyphClass: 2
Flags: W
LayerCount: 2
Fore
SplineSet
290 360 m 0
 290 414 331 448 385 448 c 0
 439 448 480 414 480 360 c 0
 480 306 439 272 385 272 c 0
 331 272 290 306 290 360 c 0
70 140 m 2
 70 810 l 1
 230 810 l 1
 230 155 l 2
 230 109 253 93 315 87 c 1
 285 -16 l 1
 198 -10 70 14 70 140 c 2
EndSplineSet
EndChar

StartChar: Lslash
Encoding: 321 321 258
Width: 580
GlyphClass: 2
Flags: W
LayerCount: 2
Fore
SplineSet
257 486 m 1
 363 555 l 1
 375 458 l 1
 257 381 l 1
 257 130 l 1
 570 130 l 1
 570 0 l 1
 85 0 l 1
 85 269 l 1
 17 225 l 1
 5 322 l 1
 85 374 l 1
 85 780 l 1
 257 780 l 1
 257 486 l 1
EndSplineSet
EndChar

StartChar: lslash
Encoding: 322 322 259
Width: 360
GlyphClass: 2
Flags: W
AnchorPoint: "LatinBelow.mark" 190 0 basechar 0
LayerCount: 2
Fore
SplineSet
240 478 m 1
 358 555 l 1
 370 458 l 1
 240 373 l 1
 240 155 l 2
 240 109 263 93 325 87 c 1
 295 -16 l 1
 208 -10 80 14 80 140 c 2
 80 269 l 1
 12 225 l 1
 0 322 l 1
 80 374 l 1
 80 810 l 1
 240 810 l 1
 240 478 l 1
EndSplineSet
EndChar

StartChar: Nacute
Encoding: 323 323 260
Width: 790
GlyphClass: 2
Flags: W
AnchorPoint: "LatinBelow.mark" 395 0 basechar 0
LayerCount: 2
Fore
SplineSet
560 955 m 1
 315 840 l 1
 275 900 l 1
 495 1060 l 1
 560 955 l 1
75 0 m 1
 75 765 l 1
 220 780 l 1
 549 273 l 1
 549 780 l 1
 715 780 l 1
 715 0 l 1
 570 0 l 1
 241 507 l 1
 241 0 l 1
 75 0 l 1
EndSplineSet
EndChar

StartChar: nacute
Encoding: 324 324 261
Width: 655
GlyphClass: 2
Flags: W
AnchorPoint: "LatinBelow.mark" 360 0 basechar 0
LayerCount: 2
Fore
SplineSet
495 805 m 1
 250 690 l 1
 210 750 l 1
 430 910 l 1
 495 805 l 1
70 0 m 1
 70 420 l 1
 60 591 l 1
 205 603 l 1
 221 484 l 1
 261 556 325 616 425 616 c 0
 547 616 600 510 600 406 c 2
 600 0 l 1
 440 0 l 1
 440 400 l 2
 440 479 403 490 380 490 c 0
 313 490 249 405 230 305 c 1
 230 0 l 1
 70 0 l 1
EndSplineSet
EndChar

StartChar: uni0145
Encoding: 325 325 262
Width: 790
GlyphClass: 2
Flags: W
AnchorPoint: "LatinAbove.mark" 395 150 basechar 0
LayerCount: 2
Fore
SplineSet
382 -219 m 1
 375 -219 l 2
 332 -219 300 -193 300 -150 c 0
 300 -102 331 -65 387 -65 c 0
 454 -65 480 -116 480 -159 c 0
 480 -268 406 -326 343 -350 c 1
 305 -300 l 1
 335 -289 367 -263 382 -219 c 1
75 0 m 1
 75 765 l 1
 220 780 l 1
 549 273 l 1
 549 780 l 1
 715 780 l 1
 715 0 l 1
 570 0 l 1
 241 507 l 1
 241 0 l 1
 75 0 l 1
EndSplineSet
EndChar

StartChar: uni0146
Encoding: 326 326 263
Width: 655
GlyphClass: 2
Flags: W
AnchorPoint: "LatinAbove.mark" 330 0 basechar 0
LayerCount: 2
Fore
SplineSet
347 -219 m 1
 340 -219 l 2
 297 -219 265 -193 265 -150 c 0
 265 -102 296 -65 352 -65 c 0
 419 -65 445 -116 445 -159 c 0
 445 -268 371 -326 308 -350 c 1
 270 -300 l 1
 300 -289 332 -263 347 -219 c 1
70 0 m 1
 70 420 l 1
 60 591 l 1
 205 603 l 1
 221 484 l 1
 261 556 325 616 425 616 c 0
 547 616 600 510 600 406 c 2
 600 0 l 1
 440 0 l 1
 440 400 l 2
 440 479 403 490 380 490 c 0
 313 490 249 405 230 305 c 1
 230 0 l 1
 70 0 l 1
EndSplineSet
EndChar

StartChar: Ncaron
Encoding: 327 327 264
Width: 790
GlyphClass: 2
Flags: W
AnchorPoint: "LatinBelow.mark" 395 0 basechar 0
LayerCount: 2
Fore
SplineSet
605 980 m 1
 415 835 l 1
 375 835 l 1
 185 980 l 1
 230 1030 l 1
 395 950 l 1
 560 1030 l 1
 605 980 l 1
75 0 m 1
 75 765 l 1
 220 780 l 1
 549 273 l 1
 549 780 l 1
 715 780 l 1
 715 0 l 1
 570 0 l 1
 241 507 l 1
 241 0 l 1
 75 0 l 1
EndSplineSet
EndChar

StartChar: ncaron
Encoding: 328 328 265
Width: 655
GlyphClass: 2
Flags: W
AnchorPoint: "LatinBelow.mark" 360 0 basechar 0
LayerCount: 2
Fore
SplineSet
540 830 m 1
 350 685 l 1
 310 685 l 1
 120 830 l 1
 165 880 l 1
 330 800 l 1
 495 880 l 1
 540 830 l 1
70 0 m 1
 70 420 l 1
 60 591 l 1
 205 603 l 1
 221 484 l 1
 261 556 325 616 425 616 c 0
 547 616 600 510 600 406 c 2
 600 0 l 1
 440 0 l 1
 440 400 l 2
 440 479 403 490 380 490 c 0
 313 490 249 405 230 305 c 1
 230 0 l 1
 70 0 l 1
EndSplineSet
EndChar

StartChar: napostrophe
Encoding: 329 329 266
Width: 865
GlyphClass: 2
Flags: W
LayerCount: 2
Fore
SplineSet
280 0 m 1
 280 420 l 1
 270 591 l 1
 415 603 l 1
 431 484 l 1
 471 556 535 616 635 616 c 0
 757 616 810 510 810 406 c 2
 810 0 l 1
 650 0 l 1
 650 400 l 2
 650 479 613 490 590 490 c 0
 523 490 459 405 440 305 c 1
 440 0 l 1
 280 0 l 1
10 818 m 0
 10 871 45 910 105 910 c 0
 184 910 215 845 215 785 c 0
 215 662 131 574 58 530 c 1
 10 594 l 1
 54 621 92 666 105 734 c 1
 100 734 l 2
 49 734 10 766 10 818 c 0
EndSplineSet
EndChar

StartChar: Omacron
Encoding: 332 332 267
Width: 820
GlyphClass: 2
Flags: W
AnchorPoint: "LatinBelow.mark" 410 0 basechar 0
AnchorPoint: "LatinAbove.mark" 410 330 basechar 0
LayerCount: 2
Fore
SplineSet
200 880 m 1
 200 980 l 1
 620 980 l 1
 620 880 l 1
 200 880 l 1
45 373 m 2
 45 407 l 2
 45 581 121 801 410 801 c 0
 699 801 775 581 775 407 c 2
 775 373 l 2
 775 199 699 -21 410 -21 c 0
 121 -21 45 199 45 373 c 2
410 104 m 0
 531 104 601 197 601 373 c 2
 601 407 l 2
 601 583 531 676 410 676 c 0
 289 676 219 583 219 407 c 2
 219 373 l 2
 219 197 289 104 410 104 c 0
EndSplineSet
EndChar

StartChar: omacron
Encoding: 333 333 268
Width: 660
GlyphClass: 2
Flags: W
AnchorPoint: "LatinBelow.mark" 330 0 basechar 0
AnchorPoint: "LatinAbove.mark" 330 180 basechar 0
LayerCount: 2
Fore
SplineSet
120 730 m 1
 120 830 l 1
 540 830 l 1
 540 730 l 1
 120 730 l 1
40 287 m 2
 40 313 l 2
 40 443 95 621 330 621 c 0
 565 621 620 443 620 313 c 2
 620 287 l 2
 620 157 565 -21 330 -21 c 0
 95 -21 40 157 40 287 c 2
330 93 m 0
 405 93 460 153 460 287 c 2
 460 313 l 2
 460 447 405 507 330 507 c 0
 255 507 200 447 200 313 c 2
 200 287 l 2
 200 153 255 93 330 93 c 0
EndSplineSet
EndChar

StartChar: Obreve
Encoding: 334 334 269
Width: 820
GlyphClass: 2
Flags: W
AnchorPoint: "LatinBelow.mark" 410 0 basechar 0
AnchorPoint: "LatinAbove.mark" 410 330 basechar 0
LayerCount: 2
Fore
SplineSet
200 984 m 1
 296 1015 l 1
 307 981 332 935 410 935 c 0
 488 935 513 981 524 1015 c 1
 620 984 l 1
 599 916 540 840 410 840 c 0
 280 840 221 916 200 984 c 1
45 373 m 2
 45 407 l 2
 45 581 121 801 410 801 c 0
 699 801 775 581 775 407 c 2
 775 373 l 2
 775 199 699 -21 410 -21 c 0
 121 -21 45 199 45 373 c 2
410 104 m 0
 531 104 601 197 601 373 c 2
 601 407 l 2
 601 583 531 676 410 676 c 0
 289 676 219 583 219 407 c 2
 219 373 l 2
 219 197 289 104 410 104 c 0
EndSplineSet
EndChar

StartChar: obreve
Encoding: 335 335 270
Width: 660
GlyphClass: 2
Flags: W
AnchorPoint: "LatinBelow.mark" 330 0 basechar 0
AnchorPoint: "LatinAbove.mark" 330 180 basechar 0
LayerCount: 2
Fore
SplineSet
120 834 m 1
 216 865 l 1
 227 831 252 785 330 785 c 0
 408 785 433 831 444 865 c 1
 540 834 l 1
 519 766 460 690 330 690 c 0
 200 690 141 766 120 834 c 1
40 287 m 2
 40 313 l 2
 40 443 95 621 330 621 c 0
 565 621 620 443 620 313 c 2
 620 287 l 2
 620 157 565 -21 330 -21 c 0
 95 -21 40 157 40 287 c 2
330 93 m 0
 405 93 460 153 460 287 c 2
 460 313 l 2
 460 447 405 507 330 507 c 0
 255 507 200 447 200 313 c 2
 200 287 l 2
 200 153 255 93 330 93 c 0
EndSplineSet
EndChar

StartChar: Ohungarumlaut
Encoding: 336 336 271
Width: 820
GlyphClass: 2
Flags: W
AnchorPoint: "LatinBelow.mark" 410 0 basechar 0
AnchorPoint: "LatinAbove.mark" 410 330 basechar 0
LayerCount: 2
Fore
SplineSet
230 880 m 1
 335 1070 l 1
 425 1005 l 1
 285 840 l 1
 230 880 l 1
455 880 m 1
 560 1070 l 1
 650 1005 l 1
 510 840 l 1
 455 880 l 1
45 373 m 2
 45 407 l 2
 45 581 121 801 410 801 c 0
 699 801 775 581 775 407 c 2
 775 373 l 2
 775 199 699 -21 410 -21 c 0
 121 -21 45 199 45 373 c 2
410 104 m 0
 531 104 601 197 601 373 c 2
 601 407 l 2
 601 583 531 676 410 676 c 0
 289 676 219 583 219 407 c 2
 219 373 l 2
 219 197 289 104 410 104 c 0
EndSplineSet
EndChar

StartChar: ohungarumlaut
Encoding: 337 337 272
Width: 660
GlyphClass: 2
Flags: W
AnchorPoint: "LatinBelow.mark" 330 0 basechar 0
AnchorPoint: "LatinAbove.mark" 330 180 basechar 0
LayerCount: 2
Fore
SplineSet
150 730 m 1
 255 920 l 1
 345 855 l 1
 205 690 l 1
 150 730 l 1
375 730 m 1
 480 920 l 1
 570 855 l 1
 430 690 l 1
 375 730 l 1
40 287 m 2
 40 313 l 2
 40 443 95 621 330 621 c 0
 565 621 620 443 620 313 c 2
 620 287 l 2
 620 157 565 -21 330 -21 c 0
 95 -21 40 157 40 287 c 2
330 93 m 0
 405 93 460 153 460 287 c 2
 460 313 l 2
 460 447 405 507 330 507 c 0
 255 507 200 447 200 313 c 2
 200 287 l 2
 200 153 255 93 330 93 c 0
EndSplineSet
EndChar

StartChar: OE
Encoding: 338 338 273
Width: 980
GlyphClass: 2
Flags: W
AnchorPoint: "LatinBelow.mark" 510 0 basechar 0
AnchorPoint: "LatinAbove.mark" 510 150 basechar 0
LayerCount: 2
Fore
SplineSet
45 373 m 2
 45 407 l 2
 45 581 121 801 410 801 c 0
 464 801 510 794 550 780 c 1
 925 780 l 1
 925 650 l 1
 610 650 l 1
 610 445 l 1
 885 445 l 1
 885 325 l 1
 610 325 l 1
 610 130 l 1
 940 130 l 1
 940 0 l 1
 550 0 l 1
 510 -14 464 -21 410 -21 c 0
 121 -21 45 199 45 373 c 2
440 674 m 1
 431 675 421 676 410 676 c 0
 289 676 219 583 219 407 c 2
 219 373 l 2
 219 197 289 104 410 104 c 0
 421 104 431 105 440 106 c 1
 440 674 l 1
EndSplineSet
EndChar

StartChar: oe
Encoding: 339 339 274
Width: 960
GlyphClass: 2
Flags: W
AnchorPoint: "LatinBelow.mark" 480 0 basechar 0
AnchorPoint: "LatinAbove.mark" 480 0 basechar 0
LayerCount: 2
Fore
SplineSet
40 287 m 2
 40 313 l 2
 40 437 82 621 300 621 c 0
 388 621 444 591 481 547 c 1
 521 591 580 621 663 621 c 0
 839 621 920 485 920 357 c 0
 920 326 916 295 910 265 c 1
 546 265 l 1
 550 147 590 91 663 91 c 0
 722 91 750 131 756 167 c 1
 910 153 l 1
 898 87 821 -21 663 -21 c 0
 578 -21 520 8 480 52 c 1
 443 9 387 -21 300 -21 c 0
 82 -21 40 163 40 287 c 2
300 507 m 0
 247 507 200 453 200 313 c 2
 200 287 l 2
 200 147 247 93 300 93 c 0
 353 93 400 147 400 287 c 2
 400 313 l 2
 400 453 353 507 300 507 c 0
549 365 m 1
 770 365 l 1
 768 472 723 509 663 509 c 0
 605 509 561 462 549 365 c 1
EndSplineSet
EndChar

StartChar: Racute
Encoding: 340 340 275
Width: 730
GlyphClass: 2
Flags: W
AnchorPoint: "LatinBelow.mark" 360 0 basechar 0
LayerCount: 2
Fore
SplineSet
525 955 m 1
 280 840 l 1
 240 900 l 1
 460 1060 l 1
 525 955 l 1
280 302 m 1
 268 302 255 303 243 303 c 1
 243 0 l 1
 75 0 l 1
 75 310 l 1
 75 780 l 1
 75 780 212 789 350 789 c 0
 550 789 685 695 685 545 c 0
 685 425 599 341 462 312 c 1
 715 8 l 1
 715 0 l 1
 523 0 l 1
 280 302 l 1
243 424 m 1
 267 423 298 421 330 421 c 0
 432 421 517 446 517 545 c 0
 517 644 432 669 330 669 c 0
 298 669 267 667 243 666 c 1
 243 424 l 1
EndSplineSet
EndChar

StartChar: racute
Encoding: 341 341 276
Width: 435
GlyphClass: 2
Flags: W
AnchorPoint: "LatinBelow.mark" 170 0 basechar 0
LayerCount: 2
Fore
SplineSet
405 805 m 1
 160 690 l 1
 120 750 l 1
 340 910 l 1
 405 805 l 1
55 588 m 1
 189 603 l 1
 222 483 l 1
 248 555 294 616 379 616 c 0
 407 616 430 609 450 599 c 1
 390 469 l 1
 379 476 367 480 351 480 c 0
 302 480 264 407 250 314 c 1
 250 0 l 1
 90 0 l 1
 90 450 l 1
 55 588 l 1
EndSplineSet
EndChar

StartChar: uni0156
Encoding: 342 342 277
Width: 730
GlyphClass: 2
Flags: W
AnchorPoint: "LatinAbove.mark" 360 150 basechar 0
LayerCount: 2
Fore
SplineSet
347 -219 m 1
 340 -219 l 2
 297 -219 265 -193 265 -150 c 0
 265 -102 296 -65 352 -65 c 0
 419 -65 445 -116 445 -159 c 0
 445 -268 371 -326 308 -350 c 1
 270 -300 l 1
 300 -289 332 -263 347 -219 c 1
280 302 m 1
 268 302 255 303 243 303 c 1
 243 0 l 1
 75 0 l 1
 75 310 l 1
 75 780 l 1
 75 780 212 789 350 789 c 0
 550 789 685 695 685 545 c 0
 685 425 599 341 462 312 c 1
 715 8 l 1
 715 0 l 1
 523 0 l 1
 280 302 l 1
243 424 m 1
 267 423 298 421 330 421 c 0
 432 421 517 446 517 545 c 0
 517 644 432 669 330 669 c 0
 298 669 267 667 243 666 c 1
 243 424 l 1
EndSplineSet
EndChar

StartChar: uni0157
Encoding: 343 343 278
Width: 435
GlyphClass: 2
Flags: W
AnchorPoint: "LatinAbove.mark" 240 0 basechar 0
LayerCount: 2
Fore
SplineSet
157 -219 m 1
 150 -219 l 2
 107 -219 75 -193 75 -150 c 0
 75 -102 106 -65 162 -65 c 0
 229 -65 255 -116 255 -159 c 0
 255 -268 181 -326 118 -350 c 1
 80 -300 l 1
 110 -289 142 -263 157 -219 c 1
55 588 m 1
 189 603 l 1
 222 483 l 1
 248 555 294 616 379 616 c 0
 407 616 430 609 450 599 c 1
 390 469 l 1
 379 476 367 480 351 480 c 0
 302 480 264 407 250 314 c 1
 250 0 l 1
 90 0 l 1
 90 450 l 1
 55 588 l 1
EndSplineSet
EndChar

StartChar: Rcaron
Encoding: 344 344 279
Width: 730
GlyphClass: 2
Flags: W
AnchorPoint: "LatinBelow.mark" 360 0 basechar 0
LayerCount: 2
Fore
SplineSet
570 980 m 1
 380 835 l 1
 340 835 l 1
 150 980 l 1
 195 1030 l 1
 360 950 l 1
 525 1030 l 1
 570 980 l 1
280 302 m 1
 268 302 255 303 243 303 c 1
 243 0 l 1
 75 0 l 1
 75 310 l 1
 75 780 l 1
 75 780 212 789 350 789 c 0
 550 789 685 695 685 545 c 0
 685 425 599 341 462 312 c 1
 715 8 l 1
 715 0 l 1
 523 0 l 1
 280 302 l 1
243 424 m 1
 267 423 298 421 330 421 c 0
 432 421 517 446 517 545 c 0
 517 644 432 669 330 669 c 0
 298 669 267 667 243 666 c 1
 243 424 l 1
EndSplineSet
EndChar

StartChar: rcaron
Encoding: 345 345 280
Width: 435
GlyphClass: 2
Flags: W
AnchorPoint: "LatinBelow.mark" 170 0 basechar 0
LayerCount: 2
Fore
SplineSet
450 830 m 1
 260 685 l 1
 220 685 l 1
 30 830 l 1
 75 880 l 1
 240 800 l 1
 405 880 l 1
 450 830 l 1
55 588 m 1
 189 603 l 1
 222 483 l 1
 248 555 294 616 379 616 c 0
 407 616 430 609 450 599 c 1
 390 469 l 1
 379 476 367 480 351 480 c 0
 302 480 264 407 250 314 c 1
 250 0 l 1
 90 0 l 1
 90 450 l 1
 55 588 l 1
EndSplineSet
EndChar

StartChar: Sacute
Encoding: 346 346 281
Width: 710
GlyphClass: 2
Flags: W
AnchorPoint: "LatinBelow.mark" 355 0 basechar 0
LayerCount: 2
Fore
SplineSet
520 955 m 1
 275 840 l 1
 235 900 l 1
 455 1060 l 1
 520 955 l 1
40 184 m 1
 208 208 l 1
 217 156 266 101 355 101 c 0
 454 101 505 139 505 207 c 0
 505 270 459 288 428 297 c 0
 372 312 287 340 230 360 c 0
 157 387 57 448 57 569 c 0
 57 701 178 801 355 801 c 0
 544 801 635 678 650 600 c 1
 482 576 l 1
 473 628 426 679 355 679 c 0
 274 679 222 639 222 577 c 0
 222 527 262 512 304 496 c 0
 356 478 439 452 488 437 c 0
 575 410 670 347 670 215 c 0
 670 82 550 -21 355 -21 c 0
 150 -21 55 104 40 184 c 1
EndSplineSet
EndChar

StartChar: sacute
Encoding: 347 347 282
Width: 570
GlyphClass: 2
Flags: W
AnchorPoint: "LatinBelow.mark" 285 0 basechar 0
LayerCount: 2
Fore
SplineSet
450 805 m 1
 205 690 l 1
 165 750 l 1
 385 910 l 1
 450 805 l 1
30 143 m 1
 185 163 l 1
 191 124 228 91 291 91 c 0
 352 91 388 118 388 162 c 0
 388 204 353 219 333 225 c 0
 289 238 228 254 185 270 c 0
 125 292 45 332 45 435 c 0
 45 539 140 621 285 621 c 0
 443 621 513 524 525 460 c 1
 370 440 l 1
 364 479 338 509 285 509 c 0
 233 509 197 483 197 441 c 0
 197 408 230 393 255 385 c 0
 296 372 360 354 393 344 c 0
 465 322 540 281 540 168 c 0
 540 62 442 -21 285 -21 c 0
 116 -21 42 77 30 143 c 1
EndSplineSet
EndChar

StartChar: Scircumflex
Encoding: 348 348 283
Width: 710
GlyphClass: 2
Flags: W
AnchorPoint: "LatinBelow.mark" 355 0 basechar 0
LayerCount: 2
Fore
SplineSet
145 875 m 1
 335 1020 l 1
 375 1020 l 1
 565 875 l 1
 520 825 l 1
 355 905 l 1
 190 825 l 1
 145 875 l 1
40 184 m 1
 208 208 l 1
 217 156 266 101 355 101 c 0
 454 101 505 139 505 207 c 0
 505 270 459 288 428 297 c 0
 372 312 287 340 230 360 c 0
 157 387 57 448 57 569 c 0
 57 701 178 801 355 801 c 0
 544 801 635 678 650 600 c 1
 482 576 l 1
 473 628 426 679 355 679 c 0
 274 679 222 639 222 577 c 0
 222 527 262 512 304 496 c 0
 356 478 439 452 488 437 c 0
 575 410 670 347 670 215 c 0
 670 82 550 -21 355 -21 c 0
 150 -21 55 104 40 184 c 1
EndSplineSet
EndChar

StartChar: scircumflex
Encoding: 349 349 284
Width: 570
GlyphClass: 2
Flags: W
AnchorPoint: "LatinBelow.mark" 285 0 basechar 0
LayerCount: 2
Fore
SplineSet
75 725 m 1
 265 870 l 1
 305 870 l 1
 495 725 l 1
 450 675 l 1
 285 755 l 1
 120 675 l 1
 75 725 l 1
30 143 m 1
 185 163 l 1
 191 124 228 91 291 91 c 0
 352 91 388 118 388 162 c 0
 388 204 353 219 333 225 c 0
 289 238 228 254 185 270 c 0
 125 292 45 332 45 435 c 0
 45 539 140 621 285 621 c 0
 443 621 513 524 525 460 c 1
 370 440 l 1
 364 479 338 509 285 509 c 0
 233 509 197 483 197 441 c 0
 197 408 230 393 255 385 c 0
 296 372 360 354 393 344 c 0
 465 322 540 281 540 168 c 0
 540 62 442 -21 285 -21 c 0
 116 -21 42 77 30 143 c 1
EndSplineSet
EndChar

StartChar: Scedilla
Encoding: 350 350 285
Width: 710
GlyphClass: 2
Flags: W
AnchorPoint: "LatinAbove.mark" 355 150 basechar 0
LayerCount: 2
Fore
SplineSet
275 -265 m 1
 346 -249 415 -221 415 -175 c 0
 415 -161 405 -150 360 -150 c 0
 348 -150 332 -153 320 -155 c 1
 275 -110 l 1
 325 -20 l 1
 141 -8 54 108 40 184 c 1
 208 208 l 1
 217 156 266 101 355 101 c 0
 454 101 505 139 505 207 c 0
 505 270 459 288 428 297 c 0
 372 312 287 340 230 360 c 0
 157 387 57 448 57 569 c 0
 57 701 178 801 355 801 c 0
 544 801 635 678 650 600 c 1
 482 576 l 1
 473 628 426 679 355 679 c 0
 274 679 222 639 222 577 c 0
 222 527 262 512 304 496 c 0
 356 478 439 452 488 437 c 0
 575 410 670 347 670 215 c 0
 670 95 573 0 411 -18 c 1
 377 -80 l 1
 460 -80 515 -109 515 -175 c 0
 515 -291 353 -323 300 -335 c 1
 275 -265 l 1
EndSplineSet
Substitution2: "Latin.st.cedilla subtable" uni0218
EndChar

StartChar: scedilla
Encoding: 351 351 286
Width: 570
GlyphClass: 2
Flags: W
AnchorPoint: "LatinAbove.mark" 285 0 basechar 0
LayerCount: 2
Fore
SplineSet
205 -265 m 1
 276 -249 345 -221 345 -175 c 0
 345 -161 335 -150 290 -150 c 0
 278 -150 262 -153 250 -155 c 1
 205 -110 l 1
 255 -20 l 1
 107 -9 41 81 30 143 c 1
 185 163 l 1
 191 124 228 91 291 91 c 0
 352 91 388 118 388 162 c 0
 388 204 353 219 333 225 c 0
 289 238 228 254 185 270 c 0
 125 292 45 332 45 435 c 0
 45 539 140 621 285 621 c 0
 443 621 513 524 525 460 c 1
 370 440 l 1
 364 479 338 509 285 509 c 0
 233 509 197 483 197 441 c 0
 197 408 230 393 255 385 c 0
 296 372 360 354 393 344 c 0
 465 322 540 281 540 168 c 0
 540 75 466 1 342 -17 c 1
 307 -80 l 1
 390 -80 445 -109 445 -175 c 0
 445 -291 283 -323 230 -335 c 1
 205 -265 l 1
EndSplineSet
Substitution2: "Latin.st.cedilla subtable" uni0219
EndChar

StartChar: Scaron
Encoding: 352 352 287
Width: 710
GlyphClass: 2
Flags: W
AnchorPoint: "LatinBelow.mark" 355 0 basechar 0
LayerCount: 2
Fore
SplineSet
565 980 m 1
 375 835 l 1
 335 835 l 1
 145 980 l 1
 190 1030 l 1
 355 950 l 1
 520 1030 l 1
 565 980 l 1
40 184 m 1
 208 208 l 1
 217 156 266 101 355 101 c 0
 454 101 505 139 505 207 c 0
 505 270 459 288 428 297 c 0
 372 312 287 340 230 360 c 0
 157 387 57 448 57 569 c 0
 57 701 178 801 355 801 c 0
 544 801 635 678 650 600 c 1
 482 576 l 1
 473 628 426 679 355 679 c 0
 274 679 222 639 222 577 c 0
 222 527 262 512 304 496 c 0
 356 478 439 452 488 437 c 0
 575 410 670 347 670 215 c 0
 670 82 550 -21 355 -21 c 0
 150 -21 55 104 40 184 c 1
EndSplineSet
EndChar

StartChar: scaron
Encoding: 353 353 288
Width: 570
GlyphClass: 2
Flags: W
AnchorPoint: "LatinBelow.mark" 285 0 basechar 0
LayerCount: 2
Fore
SplineSet
495 830 m 1
 305 685 l 1
 265 685 l 1
 75 830 l 1
 120 880 l 1
 285 800 l 1
 450 880 l 1
 495 830 l 1
30 143 m 1
 185 163 l 1
 191 124 228 91 291 91 c 0
 352 91 388 118 388 162 c 0
 388 204 353 219 333 225 c 0
 289 238 228 254 185 270 c 0
 125 292 45 332 45 435 c 0
 45 539 140 621 285 621 c 0
 443 621 513 524 525 460 c 1
 370 440 l 1
 364 479 338 509 285 509 c 0
 233 509 197 483 197 441 c 0
 197 408 230 393 255 385 c 0
 296 372 360 354 393 344 c 0
 465 322 540 281 540 168 c 0
 540 62 442 -21 285 -21 c 0
 116 -21 42 77 30 143 c 1
EndSplineSet
EndChar

StartChar: uni0162
Encoding: 354 354 289
Width: 620
GlyphClass: 2
Flags: W
AnchorPoint: "LatinAbove.mark" 310 150 basechar 0
LayerCount: 2
Fore
SplineSet
215 -265 m 1
 286 -249 355 -221 355 -175 c 0
 355 -161 345 -150 300 -150 c 0
 288 -150 272 -153 260 -155 c 1
 215 -110 l 1
 276 0 l 1
 225 0 l 1
 225 655 l 1
 15 655 l 1
 15 780 l 1
 605 780 l 1
 605 655 l 1
 395 655 l 1
 395 0 l 1
 361 0 l 1
 317 -80 l 1
 400 -80 455 -109 455 -175 c 0
 455 -291 293 -323 240 -335 c 1
 215 -265 l 1
EndSplineSet
Substitution2: "Latin.st.cedilla subtable" uni021A
EndChar

StartChar: uni0163
Encoding: 355 355 290
Width: 415
GlyphClass: 2
Flags: W
AnchorPoint: "LatinAbove.mark" 180 120 basechar 0
LayerCount: 2
Fore
SplineSet
165 -265 m 1
 236 -249 305 -221 305 -175 c 0
 305 -161 295 -150 250 -150 c 0
 238 -150 222 -153 210 -155 c 1
 165 -110 l 1
 220 -11 l 1
 147 3 100 49 100 140 c 2
 100 500 l 1
 20 500 l 1
 20 600 l 1
 106 600 l 1
 106 723 l 1
 257 735 l 1
 257 600 l 1
 390 600 l 1
 390 500 l 1
 260 500 l 1
 260 164 l 2
 260 111 270 98 299 98 c 0
 334 98 370 111 383 119 c 1
 420 15 l 1
 392 1 354 -12 303 -15 c 1
 267 -80 l 1
 350 -80 405 -109 405 -175 c 0
 405 -291 243 -323 190 -335 c 1
 165 -265 l 1
EndSplineSet
Substitution2: "Latin.st.cedilla subtable" uni021B
EndChar

StartChar: Tcaron
Encoding: 356 356 291
Width: 620
GlyphClass: 2
Flags: W
AnchorPoint: "LatinBelow.mark" 310 0 basechar 0
LayerCount: 2
Fore
SplineSet
520 980 m 1
 330 835 l 1
 290 835 l 1
 100 980 l 1
 145 1030 l 1
 310 950 l 1
 475 1030 l 1
 520 980 l 1
15 655 m 1
 15 780 l 1
 605 780 l 1
 605 655 l 1
 395 655 l 1
 395 0 l 1
 225 0 l 1
 225 655 l 1
 15 655 l 1
EndSplineSet
EndChar

StartChar: tcaron
Encoding: 357 357 292
Width: 625
GlyphClass: 2
Flags: W
LayerCount: 2
Fore
SplineSet
517 681 m 1
 510 681 l 2
 467 681 435 707 435 750 c 0
 435 798 466 835 522 835 c 0
 589 835 615 784 615 741 c 0
 615 632 541 574 478 550 c 1
 440 600 l 1
 470 611 502 637 517 681 c 1
20 500 m 1
 20 600 l 1
 106 600 l 1
 106 723 l 1
 257 735 l 1
 257 600 l 1
 390 600 l 1
 390 500 l 1
 260 500 l 1
 260 164 l 2
 260 111 270 98 299 98 c 0
 334 98 370 111 383 119 c 1
 420 15 l 1
 388 -1 342 -16 278 -16 c 0
 173 -16 100 27 100 140 c 2
 100 500 l 1
 20 500 l 1
EndSplineSet
EndChar

StartChar: Utilde
Encoding: 360 360 293
Width: 770
GlyphClass: 2
Flags: W
AnchorPoint: "LatinBelow.mark" 385 0 basechar 0
AnchorPoint: "LatinAbove.mark" 385 330 basechar 0
LayerCount: 2
Fore
SplineSet
175 890 m 1
 202 956 235 1015 310 1015 c 0
 370 1015 404 985 425 967 c 0
 444 951 454 940 464 940 c 0
 489 940 506 990 515 1010 c 1
 595 980 l 1
 568 914 535 855 460 855 c 0
 400 855 366 885 345 903 c 0
 326 919 316 930 306 930 c 0
 281 930 264 880 255 860 c 1
 175 890 l 1
65 246 m 2
 65 780 l 1
 237 780 l 1
 237 246 l 2
 237 143 302 103 385 103 c 0
 468 103 533 143 533 246 c 2
 533 780 l 1
 705 780 l 1
 705 246 l 2
 705 99 582 -21 385 -21 c 0
 188 -21 65 99 65 246 c 2
EndSplineSet
EndChar

StartChar: utilde
Encoding: 361 361 294
Width: 620
GlyphClass: 2
Flags: W
AnchorPoint: "LatinBelow.mark" 310 0 basechar 0
AnchorPoint: "LatinAbove.mark" 310 180 basechar 0
LayerCount: 2
Fore
SplineSet
100 740 m 1
 127 806 160 865 235 865 c 0
 295 865 329 835 350 817 c 0
 369 801 379 790 389 790 c 0
 414 790 431 840 440 860 c 1
 520 830 l 1
 493 764 460 705 385 705 c 0
 325 705 291 735 270 753 c 0
 251 769 241 780 231 780 c 0
 206 780 189 730 180 710 c 1
 100 740 l 1
50 194 m 2
 50 600 l 1
 210 600 l 1
 210 194 l 2
 210 118 256 93 310 93 c 0
 364 93 410 118 410 194 c 2
 410 600 l 1
 570 600 l 1
 570 194 l 2
 570 78 472 -21 310 -21 c 0
 148 -21 50 78 50 194 c 2
EndSplineSet
EndChar

StartChar: Umacron
Encoding: 362 362 295
Width: 770
GlyphClass: 2
Flags: W
AnchorPoint: "LatinBelow.mark" 385 0 basechar 0
AnchorPoint: "LatinAbove.mark" 385 330 basechar 0
LayerCount: 2
Fore
SplineSet
175 880 m 1
 175 980 l 1
 595 980 l 1
 595 880 l 1
 175 880 l 1
65 246 m 2
 65 780 l 1
 237 780 l 1
 237 246 l 2
 237 143 302 103 385 103 c 0
 468 103 533 143 533 246 c 2
 533 780 l 1
 705 780 l 1
 705 246 l 2
 705 99 582 -21 385 -21 c 0
 188 -21 65 99 65 246 c 2
EndSplineSet
EndChar

StartChar: umacron
Encoding: 363 363 296
Width: 620
GlyphClass: 2
Flags: W
AnchorPoint: "LatinBelow.mark" 310 0 basechar 0
AnchorPoint: "LatinAbove.mark" 310 180 basechar 0
LayerCount: 2
Fore
SplineSet
100 730 m 1
 100 830 l 1
 520 830 l 1
 520 730 l 1
 100 730 l 1
50 194 m 2
 50 600 l 1
 210 600 l 1
 210 194 l 2
 210 118 256 93 310 93 c 0
 364 93 410 118 410 194 c 2
 410 600 l 1
 570 600 l 1
 570 194 l 2
 570 78 472 -21 310 -21 c 0
 148 -21 50 78 50 194 c 2
EndSplineSet
EndChar

StartChar: Ubreve
Encoding: 364 364 297
Width: 770
GlyphClass: 2
Flags: W
AnchorPoint: "LatinBelow.mark" 385 0 basechar 0
AnchorPoint: "LatinAbove.mark" 385 330 basechar 0
LayerCount: 2
Fore
SplineSet
175 984 m 1
 271 1015 l 1
 282 981 307 935 385 935 c 0
 463 935 488 981 499 1015 c 1
 595 984 l 1
 574 916 515 840 385 840 c 0
 255 840 196 916 175 984 c 1
65 246 m 2
 65 780 l 1
 237 780 l 1
 237 246 l 2
 237 143 302 103 385 103 c 0
 468 103 533 143 533 246 c 2
 533 780 l 1
 705 780 l 1
 705 246 l 2
 705 99 582 -21 385 -21 c 0
 188 -21 65 99 65 246 c 2
EndSplineSet
EndChar

StartChar: ubreve
Encoding: 365 365 298
Width: 620
GlyphClass: 2
Flags: W
AnchorPoint: "LatinBelow.mark" 310 0 basechar 0
AnchorPoint: "LatinAbove.mark" 310 180 basechar 0
LayerCount: 2
Fore
SplineSet
100 834 m 1
 196 865 l 1
 207 831 232 785 310 785 c 0
 388 785 413 831 424 865 c 1
 520 834 l 1
 499 766 440 690 310 690 c 0
 180 690 121 766 100 834 c 1
50 194 m 2
 50 600 l 1
 210 600 l 1
 210 194 l 2
 210 118 256 93 310 93 c 0
 364 93 410 118 410 194 c 2
 410 600 l 1
 570 600 l 1
 570 194 l 2
 570 78 472 -21 310 -21 c 0
 148 -21 50 78 50 194 c 2
EndSplineSet
EndChar

StartChar: Uring
Encoding: 366 366 299
Width: 770
GlyphClass: 2
Flags: W
AnchorPoint: "LatinBelow.mark" 385 0 basechar 0
AnchorPoint: "LatinAbove.mark" 385 330 basechar 0
LayerCount: 2
Fore
SplineSet
385 795 m 0
 311 795 255 841 255 915 c 0
 255 989 311 1035 385 1035 c 0
 459 1035 515 989 515 915 c 0
 515 841 459 795 385 795 c 0
385 865 m 0
 417 865 435 886 435 915 c 0
 435 944 417 965 385 965 c 0
 353 965 335 944 335 915 c 0
 335 886 353 865 385 865 c 0
65 246 m 2
 65 780 l 1
 237 780 l 1
 237 246 l 2
 237 143 302 103 385 103 c 0
 468 103 533 143 533 246 c 2
 533 780 l 1
 705 780 l 1
 705 246 l 2
 705 99 582 -21 385 -21 c 0
 188 -21 65 99 65 246 c 2
EndSplineSet
EndChar

StartChar: uring
Encoding: 367 367 300
Width: 620
GlyphClass: 2
Flags: W
AnchorPoint: "LatinBelow.mark" 310 0 basechar 0
AnchorPoint: "LatinAbove.mark" 310 180 basechar 0
LayerCount: 2
Fore
SplineSet
310 645 m 0
 236 645 180 691 180 765 c 0
 180 839 236 885 310 885 c 0
 384 885 440 839 440 765 c 0
 440 691 384 645 310 645 c 0
310 715 m 0
 342 715 360 736 360 765 c 0
 360 794 342 815 310 815 c 0
 278 815 260 794 260 765 c 0
 260 736 278 715 310 715 c 0
50 194 m 2
 50 600 l 1
 210 600 l 1
 210 194 l 2
 210 118 256 93 310 93 c 0
 364 93 410 118 410 194 c 2
 410 600 l 1
 570 600 l 1
 570 194 l 2
 570 78 472 -21 310 -21 c 0
 148 -21 50 78 50 194 c 2
EndSplineSet
EndChar

StartChar: Uhungarumlaut
Encoding: 368 368 301
Width: 770
GlyphClass: 2
Flags: W
AnchorPoint: "LatinBelow.mark" 385 0 basechar 0
AnchorPoint: "LatinAbove.mark" 385 330 basechar 0
LayerCount: 2
Fore
SplineSet
205 880 m 1
 310 1070 l 1
 400 1005 l 1
 260 840 l 1
 205 880 l 1
430 880 m 1
 535 1070 l 1
 625 1005 l 1
 485 840 l 1
 430 880 l 1
65 246 m 2
 65 780 l 1
 237 780 l 1
 237 246 l 2
 237 143 302 103 385 103 c 0
 468 103 533 143 533 246 c 2
 533 780 l 1
 705 780 l 1
 705 246 l 2
 705 99 582 -21 385 -21 c 0
 188 -21 65 99 65 246 c 2
EndSplineSet
EndChar

StartChar: uhungarumlaut
Encoding: 369 369 302
Width: 620
GlyphClass: 2
Flags: W
AnchorPoint: "LatinBelow.mark" 310 0 basechar 0
AnchorPoint: "LatinAbove.mark" 310 180 basechar 0
LayerCount: 2
Fore
SplineSet
130 730 m 1
 235 920 l 1
 325 855 l 1
 185 690 l 1
 130 730 l 1
355 730 m 1
 460 920 l 1
 550 855 l 1
 410 690 l 1
 355 730 l 1
50 194 m 2
 50 600 l 1
 210 600 l 1
 210 194 l 2
 210 118 256 93 310 93 c 0
 364 93 410 118 410 194 c 2
 410 600 l 1
 570 600 l 1
 570 194 l 2
 570 78 472 -21 310 -21 c 0
 148 -21 50 78 50 194 c 2
EndSplineSet
EndChar

StartChar: Uogonek
Encoding: 370 370 303
Width: 770
GlyphClass: 2
Flags: W
AnchorPoint: "LatinAbove.mark" 385 150 basechar 0
LayerCount: 2
Fore
SplineSet
65 246 m 2
 65 780 l 1
 237 780 l 1
 237 246 l 2
 237 143 302 103 385 103 c 0
 468 103 533 143 533 246 c 2
 533 780 l 1
 705 780 l 1
 705 246 l 2
 705 143 645 52 540 8 c 1
 515 -20 490 -63 490 -125 c 0
 490 -170 512 -180 535 -180 c 0
 561 -180 589 -169 595 -165 c 1
 620 -238 l 1
 593 -252 556 -260 515 -260 c 0
 433 -260 390 -210 390 -140 c 0
 390 -93 407 -52 430 -19 c 1
 415 -20 400 -21 385 -21 c 0
 188 -21 65 99 65 246 c 2
EndSplineSet
EndChar

StartChar: uogonek
Encoding: 371 371 304
Width: 620
GlyphClass: 2
Flags: W
AnchorPoint: "LatinAbove.mark" 310 0 basechar 0
LayerCount: 2
Fore
SplineSet
50 194 m 2
 50 600 l 1
 210 600 l 1
 210 194 l 2
 210 118 256 93 310 93 c 0
 364 93 410 118 410 194 c 2
 410 600 l 1
 570 600 l 1
 570 194 l 2
 570 112 521 38 434 2 c 1
 411 -26 390 -68 390 -125 c 0
 390 -170 412 -180 435 -180 c 0
 461 -180 489 -169 495 -165 c 1
 520 -238 l 1
 493 -252 456 -260 415 -260 c 0
 333 -260 290 -210 290 -140 c 0
 290 -94 307 -54 329 -21 c 1
 310 -21 l 2
 148 -21 50 78 50 194 c 2
EndSplineSet
EndChar

StartChar: Wcircumflex
Encoding: 372 372 305
Width: 1060
GlyphClass: 2
Flags: W
AnchorPoint: "LatinBelow.mark" 530 0 basechar 0
LayerCount: 2
Fore
SplineSet
320 875 m 1
 510 1020 l 1
 550 1020 l 1
 740 875 l 1
 695 825 l 1
 530 905 l 1
 365 825 l 1
 320 875 l 1
10 754 m 1
 10 764 l 1
 195 780 l 1
 321 247 l 1
 460 760 l 1
 600 760 l 1
 739 247 l 1
 865 780 l 1
 1050 764 l 1
 1050 754 l 1
 825 0 l 1
 680 0 l 1
 530 518 l 1
 380 0 l 1
 235 0 l 1
 10 754 l 1
EndSplineSet
EndChar

StartChar: wcircumflex
Encoding: 373 373 306
Width: 830
GlyphClass: 2
Flags: W
AnchorPoint: "LatinBelow.mark" 415 0 basechar 0
LayerCount: 2
Fore
SplineSet
205 725 m 1
 395 870 l 1
 435 870 l 1
 625 725 l 1
 580 675 l 1
 415 755 l 1
 250 675 l 1
 205 725 l 1
825 580 m 1
 652 0 l 1
 517 0 l 1
 415 362 l 1
 313 0 l 1
 178 0 l 1
 5 580 l 1
 5 588 l 1
 175 600 l 1
 259 236 l 1
 352 585 l 1
 478 585 l 1
 571 236 l 1
 655 600 l 1
 825 588 l 1
 825 580 l 1
EndSplineSet
EndChar

StartChar: Ycircumflex
Encoding: 374 374 307
Width: 670
GlyphClass: 2
Flags: W
AnchorPoint: "LatinBelow.mark" 335 0 basechar 0
AnchorPoint: "LatinAbove.mark" 345 330 basechar 0
LayerCount: 2
Fore
SplineSet
125 875 m 1
 315 1020 l 1
 355 1020 l 1
 545 875 l 1
 500 825 l 1
 335 905 l 1
 170 825 l 1
 125 875 l 1
-5 754 m 1
 -5 765 l 1
 185 780 l 1
 335 450 l 1
 485 780 l 1
 675 765 l 1
 675 754 l 1
 420 290 l 1
 420 0 l 1
 250 0 l 1
 250 290 l 1
 -5 754 l 1
EndSplineSet
EndChar

StartChar: ycircumflex
Encoding: 375 375 308
Width: 600
GlyphClass: 2
Flags: W
AnchorPoint: "LatinBelow.mark" 300 -180 basechar 0
AnchorPoint: "LatinAbove.mark" 300 180 basechar 0
LayerCount: 2
Fore
SplineSet
90 725 m 1
 280 870 l 1
 320 870 l 1
 510 725 l 1
 465 675 l 1
 300 755 l 1
 135 675 l 1
 90 725 l 1
0 580 m 1
 0 588 l 1
 175 600 l 1
 302 200 l 1
 425 600 l 1
 600 588 l 1
 600 580 l 1
 365 -15 l 1
 315 -124 278 -231 138 -231 c 0
 80 -231 37 -209 10 -189 c 1
 85 -95 l 1
 100 -108 116 -121 133 -121 c 0
 172 -121 193 -81 232 8 c 1
 0 580 l 1
EndSplineSet
EndChar

StartChar: Ydieresis
Encoding: 376 376 309
Width: 670
GlyphClass: 2
Flags: W
AnchorPoint: "LatinBelow.mark" 335 0 basechar 0
AnchorPoint: "LatinAbove.mark" 345 330 basechar 0
LayerCount: 2
Fore
SplineSet
210 1009 m 0
 259 1009 295 979 295 930 c 0
 295 881 259 851 210 851 c 0
 161 851 125 881 125 930 c 0
 125 979 161 1009 210 1009 c 0
460 1009 m 0
 509 1009 545 979 545 930 c 0
 545 881 509 851 460 851 c 0
 411 851 375 881 375 930 c 0
 375 979 411 1009 460 1009 c 0
-5 754 m 1
 -5 765 l 1
 185 780 l 1
 335 450 l 1
 485 780 l 1
 675 765 l 1
 675 754 l 1
 420 290 l 1
 420 0 l 1
 250 0 l 1
 250 290 l 1
 -5 754 l 1
EndSplineSet
EndChar

StartChar: Zacute
Encoding: 377 377 310
Width: 670
GlyphClass: 2
Flags: W
AnchorPoint: "LatinBelow.mark" 335 0 basechar 0
LayerCount: 2
Fore
SplineSet
500 955 m 1
 255 840 l 1
 215 900 l 1
 435 1060 l 1
 500 955 l 1
20 96 m 1
 413 650 l 1
 50 650 l 1
 50 780 l 1
 627 780 l 1
 639 684 l 1
 248 130 l 1
 650 130 l 1
 650 0 l 1
 32 0 l 1
 20 96 l 1
EndSplineSet
EndChar

StartChar: zacute
Encoding: 378 378 311
Width: 530
GlyphClass: 2
Flags: W
AnchorPoint: "LatinBelow.mark" 265 0 basechar 0
LayerCount: 2
Fore
SplineSet
430 805 m 1
 185 690 l 1
 145 750 l 1
 365 910 l 1
 430 805 l 1
15 79 m 1
 300 490 l 1
 40 490 l 1
 40 600 l 1
 500 600 l 1
 509 521 l 1
 224 110 l 1
 515 110 l 1
 515 0 l 1
 24 0 l 1
 15 79 l 1
EndSplineSet
EndChar

StartChar: Zdotaccent
Encoding: 379 379 312
Width: 670
GlyphClass: 2
Flags: W
AnchorPoint: "LatinBelow.mark" 335 0 basechar 0
LayerCount: 2
Fore
SplineSet
240 930 m 0
 240 984 281 1018 335 1018 c 0
 389 1018 430 984 430 930 c 0
 430 876 389 842 335 842 c 0
 281 842 240 876 240 930 c 0
20 96 m 1
 413 650 l 1
 50 650 l 1
 50 780 l 1
 627 780 l 1
 639 684 l 1
 248 130 l 1
 650 130 l 1
 650 0 l 1
 32 0 l 1
 20 96 l 1
EndSplineSet
EndChar

StartChar: zdotaccent
Encoding: 380 380 313
Width: 530
GlyphClass: 2
Flags: W
AnchorPoint: "LatinBelow.mark" 265 0 basechar 0
LayerCount: 2
Fore
SplineSet
170 780 m 0
 170 834 211 868 265 868 c 0
 319 868 360 834 360 780 c 0
 360 726 319 692 265 692 c 0
 211 692 170 726 170 780 c 0
15 79 m 1
 300 490 l 1
 40 490 l 1
 40 600 l 1
 500 600 l 1
 509 521 l 1
 224 110 l 1
 515 110 l 1
 515 0 l 1
 24 0 l 1
 15 79 l 1
EndSplineSet
EndChar

StartChar: Zcaron
Encoding: 381 381 314
Width: 670
GlyphClass: 2
Flags: W
AnchorPoint: "LatinBelow.mark" 335 0 basechar 0
LayerCount: 2
Fore
SplineSet
545 980 m 1
 355 835 l 1
 315 835 l 1
 125 980 l 1
 170 1030 l 1
 335 950 l 1
 500 1030 l 1
 545 980 l 1
20 96 m 1
 413 650 l 1
 50 650 l 1
 50 780 l 1
 627 780 l 1
 639 684 l 1
 248 130 l 1
 650 130 l 1
 650 0 l 1
 32 0 l 1
 20 96 l 1
EndSplineSet
EndChar

StartChar: zcaron
Encoding: 382 382 315
Width: 530
GlyphClass: 2
Flags: W
AnchorPoint: "LatinBelow.mark" 265 0 basechar 0
LayerCount: 2
Fore
SplineSet
475 830 m 1
 285 685 l 1
 245 685 l 1
 55 830 l 1
 100 880 l 1
 265 800 l 1
 430 880 l 1
 475 830 l 1
15 79 m 1
 300 490 l 1
 40 490 l 1
 40 600 l 1
 500 600 l 1
 509 521 l 1
 224 110 l 1
 515 110 l 1
 515 0 l 1
 24 0 l 1
 15 79 l 1
EndSplineSet
EndChar

StartChar: uni018F
Encoding: 399 399 316
Width: 780
GlyphClass: 2
Flags: W
AnchorPoint: "LatinBelow.mark" 375 0 basechar 0
AnchorPoint: "LatinAbove.mark" 375 150 basechar 0
LayerCount: 2
Fore
SplineSet
735 407 m 2
 735 373 l 2
 735 201 661 -21 376 -21 c 0
 141 -21 35 144 35 313 c 0
 35 350 41 391 50 430 c 1
 570 430 l 1
 564 591 492 679 376 679 c 0
 288 679 235 619 226 567 c 1
 58 583 l 1
 73 665 167 801 376 801 c 0
 661 801 735 579 735 407 c 2
568 320 m 1
 200 320 l 1
 200 313 l 2
 200 164 275 99 376 99 c 0
 484 99 554 177 568 320 c 1
EndSplineSet
EndChar

StartChar: florin
Encoding: 402 402 317
Width: 400
GlyphClass: 2
Flags: W
AnchorPoint: "LatinBelow.mark" 180 0 basechar 0
AnchorPoint: "LatinAbove.mark" 270 180 basechar 0
LayerCount: 2
Fore
SplineSet
20 500 m 1
 20 600 l 1
 100 600 l 1
 100 667 l 2
 100 725 137 831 283 831 c 0
 367 831 421 791 435 780 c 1
 369 695 l 1
 357 703 328 721 295 721 c 0
 271 721 255 701 255 667 c 2
 255 600 l 1
 390 600 l 1
 390 500 l 1
 260 500 l 1
 260 -15 l 2
 260 -136 159 -204 55 -226 c 1
 5 -125 l 1
 70 -109 100 -82 100 -5 c 2
 100 500 l 1
 20 500 l 1
EndSplineSet
EndChar

StartChar: Ohorn
Encoding: 416 416 318
Width: 820
GlyphClass: 3
Flags: W
AnchorPoint: "LatinBelow.mark" 410 0 basechar 0
AnchorPoint: "LatinAbove.mark" 410 150 basechar 0
LayerCount: 2
Fore
SplineSet
410 104 m 0
 531 104 601 197 601 373 c 2
 601 407 l 2
 601 583 531 676 410 676 c 0
 289 676 219 583 219 407 c 2
 219 373 l 2
 219 197 289 104 410 104 c 0
45 373 m 2
 45 407 l 2
 45 581 121 801 410 801 c 0
 508 801 583 776 637 735 c 1
 652 747 665 767 665 800 c 0
 665 829 649 850 640 860 c 1
 735 915 l 1
 757 893 775 856 775 805 c 0
 775 745 736 705 691 682 c 1
 753 604 775 499 775 407 c 2
 775 373 l 2
 775 199 699 -21 410 -21 c 0
 121 -21 45 199 45 373 c 2
EndSplineSet
Ligature2: "Latin.horn subtable" O uni031B
Ligature2: "Latin.horn subtable" O uni200D uni031B
EndChar

StartChar: ohorn
Encoding: 417 417 319
Width: 660
GlyphClass: 3
Flags: W
AnchorPoint: "LatinBelow.mark" 330 0 basechar 0
AnchorPoint: "LatinAbove.mark" 330 0 basechar 0
LayerCount: 2
Fore
SplineSet
330 93 m 0
 405 93 460 153 460 287 c 2
 460 313 l 2
 460 447 405 507 330 507 c 0
 255 507 200 447 200 313 c 2
 200 287 l 2
 200 153 255 93 330 93 c 0
40 287 m 2
 40 313 l 2
 40 443 95 621 330 621 c 0
 415 621 476 598 520 562 c 1
 531 574 540 593 540 620 c 0
 540 649 524 670 515 680 c 1
 610 735 l 1
 632 713 650 676 650 625 c 0
 650 567 614 527 571 504 c 1
 608 445 620 374 620 313 c 2
 620 287 l 2
 620 157 565 -21 330 -21 c 0
 95 -21 40 157 40 287 c 2
EndSplineSet
Ligature2: "Latin.horn subtable" o uni031B
Ligature2: "Latin.horn subtable" o uni200D uni031B
EndChar

StartChar: Uhorn
Encoding: 431 431 320
Width: 780
GlyphClass: 3
Flags: W
AnchorPoint: "LatinBelow.mark" 385 0 basechar 0
AnchorPoint: "LatinAbove.mark" 385 150 basechar 0
LayerCount: 2
Fore
SplineSet
65 246 m 2
 65 780 l 1
 237 780 l 1
 237 246 l 2
 237 143 302 103 385 103 c 0
 468 103 533 143 533 246 c 2
 533 750 l 1
 563 750 l 1
 628 736 l 1
 642 748 655 768 655 800 c 0
 655 829 639 850 630 860 c 1
 725 915 l 1
 747 893 765 856 765 805 c 0
 765 756 739 720 705 696 c 1
 705 246 l 2
 705 99 582 -21 385 -21 c 0
 188 -21 65 99 65 246 c 2
EndSplineSet
Ligature2: "Latin.horn subtable" U uni031B
Ligature2: "Latin.horn subtable" U uni200D uni031B
EndChar

StartChar: uhorn
Encoding: 432 432 321
Width: 635
GlyphClass: 3
Flags: W
AnchorPoint: "LatinBelow.mark" 310 0 basechar 0
AnchorPoint: "LatinAbove.mark" 310 0 basechar 0
LayerCount: 2
Fore
SplineSet
50 194 m 2
 50 600 l 1
 210 600 l 1
 210 194 l 2
 210 118 256 93 310 93 c 0
 364 93 410 118 410 194 c 2
 410 570 l 1
 440 570 l 1
 495 557 l 1
 509 569 520 589 520 620 c 0
 520 649 504 670 495 680 c 1
 590 735 l 1
 612 713 630 676 630 625 c 0
 630 576 604 540 570 516 c 1
 570 194 l 2
 570 78 472 -21 310 -21 c 0
 148 -21 50 78 50 194 c 2
EndSplineSet
Ligature2: "Latin.horn subtable" u uni031B
Ligature2: "Latin.horn subtable" u uni200D uni031B
EndChar

StartChar: uni01CD
Encoding: 461 461 322
Width: 750
GlyphClass: 2
Flags: W
AnchorPoint: "LatinBelow.mark" 375 0 basechar 0
AnchorPoint: "LatinAbove.mark" 375 330 basechar 0
LayerCount: 2
Fore
SplineSet
585 980 m 1
 395 835 l 1
 355 835 l 1
 165 980 l 1
 210 1030 l 1
 375 950 l 1
 540 1030 l 1
 585 980 l 1
750 0 m 1
 560 0 l 1
 511 150 l 1
 239 150 l 1
 190 0 l 1
 0 0 l 1
 0 11 l 1
 305 780 l 1
 445 780 l 1
 750 11 l 1
 750 0 l 1
472 270 m 1
 375 566 l 1
 278 270 l 1
 472 270 l 1
EndSplineSet
EndChar

StartChar: uni01CE
Encoding: 462 462 323
Width: 625
GlyphClass: 2
Flags: W
AnchorPoint: "LatinBelow.mark" 330 0 basechar 0
AnchorPoint: "LatinAbove.mark" 310 180 basechar 0
LayerCount: 2
Fore
SplineSet
520 830 m 1
 330 685 l 1
 290 685 l 1
 100 830 l 1
 145 880 l 1
 310 800 l 1
 475 880 l 1
 520 830 l 1
40 174 m 0
 40 249 103 330 253 330 c 0
 305 330 356 327 400 323 c 1
 400 412 l 2
 400 486 353 507 300 507 c 0
 253 507 214 481 205 415 c 1
 45 427 l 1
 58 519 137 621 300 621 c 0
 457 621 555 528 555 412 c 2
 555 155 l 2
 555 109 563 93 610 87 c 1
 570 -16 l 1
 534 -11 471 2 441 56 c 1
 405 15 351 -16 270 -16 c 0
 124 -16 40 60 40 174 c 0
408 230 m 1
 367 235 313 239 262 239 c 0
 234 239 195 222 195 172 c 0
 195 101 245 79 290 79 c 0
 367 79 398 135 408 203 c 1
 408 230 l 1
EndSplineSet
MultipleSubs2: "Latin.a.decomp subtable" uni0251 uni030C
EndChar

StartChar: uni01CF
Encoding: 463 463 324
Width: 320
GlyphClass: 2
Flags: W
AnchorPoint: "LatinBelow.mark" 160 0 basechar 0
AnchorPoint: "LatinAbove.mark" 160 330 basechar 0
LayerCount: 2
Fore
SplineSet
370 980 m 1
 180 835 l 1
 140 835 l 1
 -50 980 l 1
 -5 1030 l 1
 160 950 l 1
 325 1030 l 1
 370 980 l 1
75 0 m 1
 75 780 l 1
 245 780 l 1
 245 0 l 1
 75 0 l 1
EndSplineSet
EndChar

StartChar: uni01D0
Encoding: 464 464 325
Width: 300
GlyphClass: 2
Flags: W
AnchorPoint: "LatinBelow.mark" 150 0 basechar 0
AnchorPoint: "LatinAbove.mark" 150 180 basechar 0
LayerCount: 2
Fore
SplineSet
360 830 m 1
 170 685 l 1
 130 685 l 1
 -60 830 l 1
 -15 880 l 1
 150 800 l 1
 315 880 l 1
 360 830 l 1
70 0 m 1
 70 600 l 1
 230 600 l 1
 230 0 l 1
 70 0 l 1
EndSplineSet
EndChar

StartChar: uni01D1
Encoding: 465 465 326
Width: 820
GlyphClass: 2
Flags: W
AnchorPoint: "LatinBelow.mark" 410 0 basechar 0
AnchorPoint: "LatinAbove.mark" 410 330 basechar 0
LayerCount: 2
Fore
SplineSet
620 980 m 1
 430 835 l 1
 390 835 l 1
 200 980 l 1
 245 1030 l 1
 410 950 l 1
 575 1030 l 1
 620 980 l 1
45 373 m 2
 45 407 l 2
 45 581 121 801 410 801 c 0
 699 801 775 581 775 407 c 2
 775 373 l 2
 775 199 699 -21 410 -21 c 0
 121 -21 45 199 45 373 c 2
410 104 m 0
 531 104 601 197 601 373 c 2
 601 407 l 2
 601 583 531 676 410 676 c 0
 289 676 219 583 219 407 c 2
 219 373 l 2
 219 197 289 104 410 104 c 0
EndSplineSet
EndChar

StartChar: uni01D2
Encoding: 466 466 327
Width: 660
GlyphClass: 2
Flags: W
AnchorPoint: "LatinBelow.mark" 330 0 basechar 0
AnchorPoint: "LatinAbove.mark" 330 180 basechar 0
LayerCount: 2
Fore
SplineSet
540 830 m 1
 350 685 l 1
 310 685 l 1
 120 830 l 1
 165 880 l 1
 330 800 l 1
 495 880 l 1
 540 830 l 1
40 287 m 2
 40 313 l 2
 40 443 95 621 330 621 c 0
 565 621 620 443 620 313 c 2
 620 287 l 2
 620 157 565 -21 330 -21 c 0
 95 -21 40 157 40 287 c 2
330 93 m 0
 405 93 460 153 460 287 c 2
 460 313 l 2
 460 447 405 507 330 507 c 0
 255 507 200 447 200 313 c 2
 200 287 l 2
 200 153 255 93 330 93 c 0
EndSplineSet
EndChar

StartChar: uni01D3
Encoding: 467 467 328
Width: 770
GlyphClass: 2
Flags: W
AnchorPoint: "LatinBelow.mark" 385 0 basechar 0
AnchorPoint: "LatinAbove.mark" 385 330 basechar 0
LayerCount: 2
Fore
SplineSet
595 980 m 1
 405 835 l 1
 365 835 l 1
 175 980 l 1
 220 1030 l 1
 385 950 l 1
 550 1030 l 1
 595 980 l 1
65 246 m 2
 65 780 l 1
 237 780 l 1
 237 246 l 2
 237 143 302 103 385 103 c 0
 468 103 533 143 533 246 c 2
 533 780 l 1
 705 780 l 1
 705 246 l 2
 705 99 582 -21 385 -21 c 0
 188 -21 65 99 65 246 c 2
EndSplineSet
EndChar

StartChar: uni01D4
Encoding: 468 468 329
Width: 620
GlyphClass: 2
Flags: W
AnchorPoint: "LatinBelow.mark" 310 0 basechar 0
AnchorPoint: "LatinAbove.mark" 310 180 basechar 0
LayerCount: 2
Fore
SplineSet
520 830 m 1
 330 685 l 1
 290 685 l 1
 100 830 l 1
 145 880 l 1
 310 800 l 1
 475 880 l 1
 520 830 l 1
50 194 m 2
 50 600 l 1
 210 600 l 1
 210 194 l 2
 210 118 256 93 310 93 c 0
 364 93 410 118 410 194 c 2
 410 600 l 1
 570 600 l 1
 570 194 l 2
 570 78 472 -21 310 -21 c 0
 148 -21 50 78 50 194 c 2
EndSplineSet
EndChar

StartChar: uni01D5
Encoding: 469 469 330
Width: 770
GlyphClass: 2
Flags: W
AnchorPoint: "LatinBelow.mark" 385 0 basechar 0
LayerCount: 2
Fore
SplineSet
175 1060 m 1
 175 1160 l 1
 595 1160 l 1
 595 1060 l 1
 175 1060 l 1
260 1009 m 0
 309 1009 345 979 345 930 c 0
 345 881 309 851 260 851 c 0
 211 851 175 881 175 930 c 0
 175 979 211 1009 260 1009 c 0
510 1009 m 0
 559 1009 595 979 595 930 c 0
 595 881 559 851 510 851 c 0
 461 851 425 881 425 930 c 0
 425 979 461 1009 510 1009 c 0
65 246 m 2
 65 780 l 1
 237 780 l 1
 237 246 l 2
 237 143 302 103 385 103 c 0
 468 103 533 143 533 246 c 2
 533 780 l 1
 705 780 l 1
 705 246 l 2
 705 99 582 -21 385 -21 c 0
 188 -21 65 99 65 246 c 2
EndSplineSet
EndChar

StartChar: uni01D6
Encoding: 470 470 331
Width: 620
GlyphClass: 2
Flags: W
AnchorPoint: "LatinBelow.mark" 310 0 basechar 0
LayerCount: 2
Fore
SplineSet
100 910 m 1
 100 1010 l 1
 520 1010 l 1
 520 910 l 1
 100 910 l 1
185 859 m 0
 234 859 270 829 270 780 c 0
 270 731 234 701 185 701 c 0
 136 701 100 731 100 780 c 0
 100 829 136 859 185 859 c 0
435 859 m 0
 484 859 520 829 520 780 c 0
 520 731 484 701 435 701 c 0
 386 701 350 731 350 780 c 0
 350 829 386 859 435 859 c 0
50 194 m 2
 50 600 l 1
 210 600 l 1
 210 194 l 2
 210 118 256 93 310 93 c 0
 364 93 410 118 410 194 c 2
 410 600 l 1
 570 600 l 1
 570 194 l 2
 570 78 472 -21 310 -21 c 0
 148 -21 50 78 50 194 c 2
EndSplineSet
EndChar

StartChar: uni01D7
Encoding: 471 471 332
Width: 770
GlyphClass: 2
Flags: W
AnchorPoint: "LatinBelow.mark" 385 0 basechar 0
LayerCount: 2
Fore
SplineSet
550 1135 m 1
 305 1020 l 1
 265 1080 l 1
 485 1240 l 1
 550 1135 l 1
260 1009 m 0
 309 1009 345 979 345 930 c 0
 345 881 309 851 260 851 c 0
 211 851 175 881 175 930 c 0
 175 979 211 1009 260 1009 c 0
510 1009 m 0
 559 1009 595 979 595 930 c 0
 595 881 559 851 510 851 c 0
 461 851 425 881 425 930 c 0
 425 979 461 1009 510 1009 c 0
65 246 m 2
 65 780 l 1
 237 780 l 1
 237 246 l 2
 237 143 302 103 385 103 c 0
 468 103 533 143 533 246 c 2
 533 780 l 1
 705 780 l 1
 705 246 l 2
 705 99 582 -21 385 -21 c 0
 188 -21 65 99 65 246 c 2
EndSplineSet
EndChar

StartChar: uni01D8
Encoding: 472 472 333
Width: 620
GlyphClass: 2
Flags: W
AnchorPoint: "LatinBelow.mark" 310 0 basechar 0
LayerCount: 2
Fore
SplineSet
475 985 m 1
 230 870 l 1
 190 930 l 1
 410 1090 l 1
 475 985 l 1
185 859 m 0
 234 859 270 829 270 780 c 0
 270 731 234 701 185 701 c 0
 136 701 100 731 100 780 c 0
 100 829 136 859 185 859 c 0
435 859 m 0
 484 859 520 829 520 780 c 0
 520 731 484 701 435 701 c 0
 386 701 350 731 350 780 c 0
 350 829 386 859 435 859 c 0
50 194 m 2
 50 600 l 1
 210 600 l 1
 210 194 l 2
 210 118 256 93 310 93 c 0
 364 93 410 118 410 194 c 2
 410 600 l 1
 570 600 l 1
 570 194 l 2
 570 78 472 -21 310 -21 c 0
 148 -21 50 78 50 194 c 2
EndSplineSet
EndChar

StartChar: uni01D9
Encoding: 473 473 334
Width: 770
GlyphClass: 2
Flags: W
AnchorPoint: "LatinBelow.mark" 385 0 basechar 0
LayerCount: 2
Fore
SplineSet
595 1160 m 1
 405 1015 l 1
 365 1015 l 1
 175 1160 l 1
 220 1210 l 1
 385 1130 l 1
 550 1210 l 1
 595 1160 l 1
260 1009 m 0
 309 1009 345 979 345 930 c 0
 345 881 309 851 260 851 c 0
 211 851 175 881 175 930 c 0
 175 979 211 1009 260 1009 c 0
510 1009 m 0
 559 1009 595 979 595 930 c 0
 595 881 559 851 510 851 c 0
 461 851 425 881 425 930 c 0
 425 979 461 1009 510 1009 c 0
65 246 m 2
 65 780 l 1
 237 780 l 1
 237 246 l 2
 237 143 302 103 385 103 c 0
 468 103 533 143 533 246 c 2
 533 780 l 1
 705 780 l 1
 705 246 l 2
 705 99 582 -21 385 -21 c 0
 188 -21 65 99 65 246 c 2
EndSplineSet
EndChar

StartChar: uni01DA
Encoding: 474 474 335
Width: 620
GlyphClass: 2
Flags: W
AnchorPoint: "LatinBelow.mark" 310 0 basechar 0
LayerCount: 2
Fore
SplineSet
520 1010 m 1
 330 865 l 1
 290 865 l 1
 100 1010 l 1
 145 1060 l 1
 310 980 l 1
 475 1060 l 1
 520 1010 l 1
185 859 m 0
 234 859 270 829 270 780 c 0
 270 731 234 701 185 701 c 0
 136 701 100 731 100 780 c 0
 100 829 136 859 185 859 c 0
435 859 m 0
 484 859 520 829 520 780 c 0
 520 731 484 701 435 701 c 0
 386 701 350 731 350 780 c 0
 350 829 386 859 435 859 c 0
50 194 m 2
 50 600 l 1
 210 600 l 1
 210 194 l 2
 210 118 256 93 310 93 c 0
 364 93 410 118 410 194 c 2
 410 600 l 1
 570 600 l 1
 570 194 l 2
 570 78 472 -21 310 -21 c 0
 148 -21 50 78 50 194 c 2
EndSplineSet
EndChar

StartChar: uni01DB
Encoding: 475 475 336
Width: 770
GlyphClass: 2
Flags: W
AnchorPoint: "LatinBelow.mark" 385 0 basechar 0
LayerCount: 2
Fore
SplineSet
220 1135 m 1
 285 1240 l 1
 505 1080 l 1
 465 1020 l 1
 220 1135 l 1
260 1009 m 0
 309 1009 345 979 345 930 c 0
 345 881 309 851 260 851 c 0
 211 851 175 881 175 930 c 0
 175 979 211 1009 260 1009 c 0
510 1009 m 0
 559 1009 595 979 595 930 c 0
 595 881 559 851 510 851 c 0
 461 851 425 881 425 930 c 0
 425 979 461 1009 510 1009 c 0
65 246 m 2
 65 780 l 1
 237 780 l 1
 237 246 l 2
 237 143 302 103 385 103 c 0
 468 103 533 143 533 246 c 2
 533 780 l 1
 705 780 l 1
 705 246 l 2
 705 99 582 -21 385 -21 c 0
 188 -21 65 99 65 246 c 2
EndSplineSet
EndChar

StartChar: uni01DC
Encoding: 476 476 337
Width: 620
GlyphClass: 2
Flags: W
AnchorPoint: "LatinBelow.mark" 310 0 basechar 0
LayerCount: 2
Fore
SplineSet
145 985 m 1
 210 1090 l 1
 430 930 l 1
 390 870 l 1
 145 985 l 1
185 859 m 0
 234 859 270 829 270 780 c 0
 270 731 234 701 185 701 c 0
 136 701 100 731 100 780 c 0
 100 829 136 859 185 859 c 0
435 859 m 0
 484 859 520 829 520 780 c 0
 520 731 484 701 435 701 c 0
 386 701 350 731 350 780 c 0
 350 829 386 859 435 859 c 0
50 194 m 2
 50 600 l 1
 210 600 l 1
 210 194 l 2
 210 118 256 93 310 93 c 0
 364 93 410 118 410 194 c 2
 410 600 l 1
 570 600 l 1
 570 194 l 2
 570 78 472 -21 310 -21 c 0
 148 -21 50 78 50 194 c 2
EndSplineSet
EndChar

StartChar: Gcaron
Encoding: 486 486 338
Width: 770
GlyphClass: 2
Flags: W
AnchorPoint: "LatinBelow.mark" 410 0 basechar 0
LayerCount: 2
Fore
SplineSet
620 980 m 1
 430 835 l 1
 390 835 l 1
 200 980 l 1
 245 1030 l 1
 410 950 l 1
 575 1030 l 1
 620 980 l 1
415 285 m 1
 415 405 l 1
 725 405 l 1
 725 135 l 1
 684 66 586 -21 412 -21 c 0
 123 -21 45 200 45 375 c 2
 45 405 l 2
 45 580 123 801 412 801 c 0
 624 801 715 664 730 582 c 1
 558 566 l 1
 549 616 500 675 412 675 c 0
 291 675 219 586 219 405 c 2
 219 375 l 2
 219 194 291 105 412 105 c 0
 498 105 544 131 570 160 c 1
 570 285 l 1
 415 285 l 1
EndSplineSet
EndChar

StartChar: gcaron
Encoding: 487 487 339
Width: 670
GlyphClass: 2
Flags: W
AnchorPoint: "LatinBelow.mark" 360 -180 basechar 0
LayerCount: 2
Fore
SplineSet
570 830 m 1
 380 685 l 1
 340 685 l 1
 150 830 l 1
 195 880 l 1
 360 800 l 1
 525 880 l 1
 570 830 l 1
40 315 m 0
 40 440 106 616 295 616 c 0
 368 616 421 578 459 527 c 1
 469 600 l 1
 605 600 l 1
 605 -15 l 2
 605 -135 505 -231 347 -231 c 0
 193 -231 112 -159 95 -117 c 1
 243 -75 l 1
 250 -91 281 -122 347 -122 c 0
 410 -122 455 -93 455 -15 c 2
 455 98 l 1
 418 50 365 14 295 14 c 0
 106 14 40 190 40 315 c 0
450 364 m 1
 432 443 386 500 315 500 c 0
 250 500 200 447 200 315 c 0
 200 183 250 130 315 130 c 0
 386 130 432 187 450 266 c 1
 450 364 l 1
EndSplineSet
MultipleSubs2: "Latin.g.decomp subtable" g.alt uni030C
EndChar

StartChar: uni01EA
Encoding: 490 490 340
Width: 820
GlyphClass: 2
Flags: W
AnchorPoint: "LatinAbove.mark" 410 150 basechar 0
LayerCount: 2
Fore
SplineSet
410 104 m 0
 531 104 601 197 601 373 c 2
 601 407 l 2
 601 583 531 676 410 676 c 0
 289 676 219 583 219 407 c 2
 219 373 l 2
 219 197 289 104 410 104 c 0
45 373 m 2
 45 407 l 2
 45 581 121 801 410 801 c 0
 699 801 775 581 775 407 c 2
 775 373 l 2
 775 225 720 44 527 -7 c 1
 507 -35 490 -74 490 -125 c 0
 490 -170 512 -180 535 -180 c 0
 561 -180 589 -169 595 -165 c 1
 620 -238 l 1
 593 -252 556 -260 515 -260 c 0
 433 -260 390 -210 390 -140 c 0
 390 -94 407 -54 429 -21 c 1
 410 -21 l 2
 121 -21 45 199 45 373 c 2
EndSplineSet
EndChar

StartChar: uni01EB
Encoding: 491 491 341
Width: 660
GlyphClass: 2
Flags: W
AnchorPoint: "LatinAbove.mark" 330 0 basechar 0
LayerCount: 2
Fore
SplineSet
330 93 m 0
 405 93 460 153 460 287 c 2
 460 313 l 2
 460 447 405 507 330 507 c 0
 255 507 200 447 200 313 c 2
 200 287 l 2
 200 153 255 93 330 93 c 0
40 287 m 2
 40 313 l 2
 40 443 95 621 330 621 c 0
 565 621 620 443 620 313 c 2
 620 287 l 2
 620 183 585 49 452 -1 c 1
 430 -29 410 -70 410 -125 c 0
 410 -170 432 -180 455 -180 c 0
 481 -180 509 -169 515 -165 c 1
 540 -238 l 1
 513 -252 476 -260 435 -260 c 0
 353 -260 310 -210 310 -140 c 0
 310 -94 327 -54 349 -21 c 1
 330 -21 l 2
 95 -21 40 157 40 287 c 2
EndSplineSet
EndChar

StartChar: uni0218
Encoding: 536 536 342
Width: 710
GlyphClass: 2
Flags: W
AnchorPoint: "LatinAbove.mark" 355 150 basechar 0
LayerCount: 2
Fore
SplineSet
342 -219 m 1
 335 -219 l 2
 292 -219 260 -193 260 -150 c 0
 260 -102 291 -65 347 -65 c 0
 414 -65 440 -116 440 -159 c 0
 440 -268 366 -326 303 -350 c 1
 265 -300 l 1
 295 -289 327 -263 342 -219 c 1
40 184 m 1
 208 208 l 1
 217 156 266 101 355 101 c 0
 454 101 505 139 505 207 c 0
 505 270 459 288 428 297 c 0
 372 312 287 340 230 360 c 0
 157 387 57 448 57 569 c 0
 57 701 178 801 355 801 c 0
 544 801 635 678 650 600 c 1
 482 576 l 1
 473 628 426 679 355 679 c 0
 274 679 222 639 222 577 c 0
 222 527 262 512 304 496 c 0
 356 478 439 452 488 437 c 0
 575 410 670 347 670 215 c 0
 670 82 550 -21 355 -21 c 0
 150 -21 55 104 40 184 c 1
EndSplineSet
EndChar

StartChar: uni0219
Encoding: 537 537 343
Width: 570
GlyphClass: 2
Flags: W
AnchorPoint: "LatinAbove.mark" 285 0 basechar 0
LayerCount: 2
Fore
SplineSet
272 -219 m 1
 265 -219 l 2
 222 -219 190 -193 190 -150 c 0
 190 -102 221 -65 277 -65 c 0
 344 -65 370 -116 370 -159 c 0
 370 -268 296 -326 233 -350 c 1
 195 -300 l 1
 225 -289 257 -263 272 -219 c 1
30 143 m 1
 185 163 l 1
 191 124 228 91 291 91 c 0
 352 91 388 118 388 162 c 0
 388 204 353 219 333 225 c 0
 289 238 228 254 185 270 c 0
 125 292 45 332 45 435 c 0
 45 539 140 621 285 621 c 0
 443 621 513 524 525 460 c 1
 370 440 l 1
 364 479 338 509 285 509 c 0
 233 509 197 483 197 441 c 0
 197 408 230 393 255 385 c 0
 296 372 360 354 393 344 c 0
 465 322 540 281 540 168 c 0
 540 62 442 -21 285 -21 c 0
 116 -21 42 77 30 143 c 1
EndSplineSet
EndChar

StartChar: uni021A
Encoding: 538 538 344
Width: 620
GlyphClass: 2
Flags: W
AnchorPoint: "LatinAbove.mark" 310 150 basechar 0
LayerCount: 2
Fore
SplineSet
297 -219 m 1
 290 -219 l 2
 247 -219 215 -193 215 -150 c 0
 215 -102 246 -65 302 -65 c 0
 369 -65 395 -116 395 -159 c 0
 395 -268 321 -326 258 -350 c 1
 220 -300 l 1
 250 -289 282 -263 297 -219 c 1
15 655 m 1
 15 780 l 1
 605 780 l 1
 605 655 l 1
 395 655 l 1
 395 0 l 1
 225 0 l 1
 225 655 l 1
 15 655 l 1
EndSplineSet
EndChar

StartChar: uni021B
Encoding: 539 539 345
Width: 415
GlyphClass: 2
Flags: W
AnchorPoint: "LatinAbove.mark" 180 120 basechar 0
LayerCount: 2
Fore
SplineSet
267 -219 m 1
 260 -219 l 2
 217 -219 185 -193 185 -150 c 0
 185 -102 216 -65 272 -65 c 0
 339 -65 365 -116 365 -159 c 0
 365 -268 291 -326 228 -350 c 1
 190 -300 l 1
 220 -289 252 -263 267 -219 c 1
20 500 m 1
 20 600 l 1
 106 600 l 1
 106 723 l 1
 257 735 l 1
 257 600 l 1
 390 600 l 1
 390 500 l 1
 260 500 l 1
 260 164 l 2
 260 111 270 98 299 98 c 0
 334 98 370 111 383 119 c 1
 420 15 l 1
 388 -1 342 -16 278 -16 c 0
 173 -16 100 27 100 140 c 2
 100 500 l 1
 20 500 l 1
EndSplineSet
EndChar

StartChar: uni0237
Encoding: 567 567 346
Width: 310
GlyphClass: 2
Flags: W
AnchorPoint: "LatinBelow.mark" 150 -180 basechar 0
AnchorPoint: "LatinAbove.mark" 160 0 basechar 0
LayerCount: 2
Fore
SplineSet
35 -226 m 1
 -15 -125 l 1
 50 -109 80 -82 80 -5 c 2
 80 600 l 1
 240 600 l 1
 240 -15 l 2
 240 -136 139 -204 35 -226 c 1
EndSplineSet
EndChar

StartChar: uni0251
Encoding: 593 593 347
Width: 675
GlyphClass: 2
Flags: W
AnchorPoint: "LatinOgonek.mark" 565 0 basechar 0
AnchorPoint: "LatinBelow.mark" 360 0 basechar 0
AnchorPoint: "LatinAbove.mark" 360 0 basechar 0
LayerCount: 2
Fore
SplineSet
40 290 m 2
 40 310 l 2
 40 440 106 616 295 616 c 0
 368 616 421 578 459 527 c 1
 469 600 l 1
 605 600 l 1
 605 155 l 2
 605 109 613 93 660 87 c 1
 620 -16 l 1
 576 -10 490 9 477 100 c 1
 439 36 380 -16 295 -16 c 0
 106 -16 40 160 40 290 c 2
450 364 m 1
 432 443 386 500 315 500 c 0
 250 500 200 447 200 310 c 2
 200 290 l 2
 200 153 250 100 315 100 c 0
 386 100 432 157 450 236 c 1
 450 364 l 1
EndSplineSet
EndChar

StartChar: uni0259
Encoding: 601 601 348
Width: 640
GlyphClass: 2
Flags: W
AnchorPoint: "LatinBelow.mark" 320 0 basechar 0
AnchorPoint: "LatinAbove.mark" 320 0 basechar 0
LayerCount: 2
Fore
SplineSet
600 313 m 2
 600 287 l 2
 600 156 540 -21 312 -21 c 0
 126 -21 40 115 40 243 c 0
 40 274 44 305 50 335 c 1
 443 335 l 1
 437 453 385 509 312 509 c 0
 253 509 215 469 209 433 c 1
 55 447 l 1
 67 513 141 621 312 621 c 0
 545 621 600 444 600 313 c 2
441 235 m 1
 190 235 l 1
 192 128 247 91 312 91 c 0
 378 91 428 138 441 235 c 1
EndSplineSet
EndChar

StartChar: uni0261
Encoding: 609 609 349
Width: 670
GlyphClass: 2
Flags: W
AnchorPoint: "LatinBelow.mark" 360 -180 basechar 0
AnchorPoint: "LatinAbove.mark" 360 0 basechar 0
LayerCount: 2
Fore
SplineSet
40 315 m 0
 40 440 106 616 295 616 c 0
 368 616 421 578 459 527 c 1
 469 600 l 1
 605 600 l 1
 605 -15 l 2
 605 -135 505 -231 347 -231 c 0
 193 -231 112 -159 95 -117 c 1
 243 -75 l 1
 250 -91 281 -122 347 -122 c 0
 410 -122 455 -93 455 -15 c 2
 455 98 l 1
 418 50 365 14 295 14 c 0
 106 14 40 190 40 315 c 0
450 364 m 1
 432 443 386 500 315 500 c 0
 250 500 200 447 200 315 c 0
 200 183 250 130 315 130 c 0
 386 130 432 187 450 266 c 1
 450 364 l 1
EndSplineSet
EndChar

StartChar: uni02BB
Encoding: 699 699 350
Width: 240
GlyphClass: 2
Flags: W
LayerCount: 2
Fore
SplineSet
215 632 m 0
 215 579 180 540 120 540 c 0
 41 540 10 605 10 665 c 0
 10 788 94 876 167 920 c 1
 215 856 l 1
 171 829 133 784 120 716 c 1
 125 716 l 2
 176 716 215 684 215 632 c 0
EndSplineSet
EndChar

StartChar: uni02BC
Encoding: 700 700 351
Width: 240
GlyphClass: 2
Flags: W
LayerCount: 2
Fore
SplineSet
10 818 m 0
 10 871 45 910 105 910 c 0
 184 910 215 845 215 785 c 0
 215 662 131 574 58 530 c 1
 10 594 l 1
 54 621 92 666 105 734 c 1
 100 734 l 2
 49 734 10 766 10 818 c 0
EndSplineSet
EndChar

StartChar: uni02BD
Encoding: 701 701 352
Width: 240
GlyphClass: 2
Flags: W
LayerCount: 2
Fore
SplineSet
215 818 m 0
 215 766 176 734 125 734 c 2
 120 734 l 1
 133 666 171 621 215 594 c 1
 167 530 l 1
 94 574 10 662 10 785 c 0
 10 845 41 910 120 910 c 0
 180 910 215 871 215 818 c 0
EndSplineSet
EndChar

StartChar: uni02BE
Encoding: 702 702 353
Width: 180
GlyphClass: 2
Flags: W
LayerCount: 2
Fore
SplineSet
155 765 m 0
 155 691 99 645 25 645 c 1
 25 715 l 1
 57 715 75 736 75 765 c 0
 75 794 57 815 25 815 c 1
 25 885 l 1
 99 885 155 839 155 765 c 0
EndSplineSet
EndChar

StartChar: uni02BF
Encoding: 703 703 354
Width: 180
GlyphClass: 2
Flags: W
LayerCount: 2
Fore
SplineSet
25 765 m 0
 25 839 81 885 155 885 c 1
 155 815 l 1
 123 815 105 794 105 765 c 0
 105 736 123 715 155 715 c 1
 155 645 l 1
 81 645 25 691 25 765 c 0
EndSplineSet
EndChar

StartChar: circumflex
Encoding: 710 710 355
Width: 510
GlyphClass: 2
Flags: W
LayerCount: 2
Fore
SplineSet
45 725 m 1
 235 870 l 1
 275 870 l 1
 465 725 l 1
 420 675 l 1
 255 755 l 1
 90 675 l 1
 45 725 l 1
EndSplineSet
EndChar

StartChar: caron
Encoding: 711 711 356
Width: 510
GlyphClass: 2
Flags: W
LayerCount: 2
Fore
SplineSet
465 830 m 1
 275 685 l 1
 235 685 l 1
 45 830 l 1
 90 880 l 1
 255 800 l 1
 420 880 l 1
 465 830 l 1
EndSplineSet
EndChar

StartChar: uni02C8
Encoding: 712 712 357
Width: 210
GlyphClass: 2
Flags: W
LayerCount: 2
Fore
SplineSet
50 675 m 1
 50 900 l 1
 160 900 l 1
 160 675 l 1
 50 675 l 1
EndSplineSet
EndChar

StartChar: uni02C9
Encoding: 713 713 358
Width: 510
GlyphClass: 2
Flags: W
LayerCount: 2
Fore
SplineSet
45 730 m 1
 45 830 l 1
 465 830 l 1
 465 730 l 1
 45 730 l 1
EndSplineSet
EndChar

StartChar: uni02CA
Encoding: 714 714 359
Width: 330
GlyphClass: 2
Flags: W
LayerCount: 2
Fore
SplineSet
315 805 m 1
 70 690 l 1
 30 750 l 1
 250 910 l 1
 315 805 l 1
EndSplineSet
EndChar

StartChar: uni02CB
Encoding: 715 715 360
Width: 330
GlyphClass: 2
Flags: W
LayerCount: 2
Fore
SplineSet
15 805 m 1
 80 910 l 1
 300 750 l 1
 260 690 l 1
 15 805 l 1
EndSplineSet
EndChar

StartChar: uni02CC
Encoding: 716 716 361
Width: 210
GlyphClass: 2
Flags: W
LayerCount: 2
Fore
SplineSet
50 -300 m 1
 50 -75 l 1
 160 -75 l 1
 160 -300 l 1
 50 -300 l 1
EndSplineSet
EndChar

StartChar: uni02D7
Encoding: 727 727 362
Width: 330
GlyphClass: 2
Flags: W
LayerCount: 2
Fore
SplineSet
0 420 m 1
 330 420 l 1
 330 300 l 1
 0 300 l 1
 0 420 l 1
EndSplineSet
EndChar

StartChar: breve
Encoding: 728 728 363
Width: 510
GlyphClass: 2
Flags: W
LayerCount: 2
Fore
SplineSet
45 834 m 1
 141 865 l 1
 152 831 177 785 255 785 c 0
 333 785 358 831 369 865 c 1
 465 834 l 1
 444 766 385 690 255 690 c 0
 125 690 66 766 45 834 c 1
EndSplineSet
EndChar

StartChar: dotaccent
Encoding: 729 729 364
Width: 330
GlyphClass: 2
Flags: W
LayerCount: 2
Fore
SplineSet
70 780 m 0
 70 834 111 868 165 868 c 0
 219 868 260 834 260 780 c 0
 260 726 219 692 165 692 c 0
 111 692 70 726 70 780 c 0
EndSplineSet
EndChar

StartChar: ring
Encoding: 730 730 365
Width: 330
GlyphClass: 2
Flags: W
LayerCount: 2
Fore
SplineSet
165 645 m 0
 91 645 35 691 35 765 c 0
 35 839 91 885 165 885 c 0
 239 885 295 839 295 765 c 0
 295 691 239 645 165 645 c 0
165 715 m 0
 197 715 215 736 215 765 c 0
 215 794 197 815 165 815 c 0
 133 815 115 794 115 765 c 0
 115 736 133 715 165 715 c 0
EndSplineSet
EndChar

StartChar: ogonek
Encoding: 731 731 366
Width: 330
GlyphClass: 2
Flags: W
LayerCount: 2
Fore
SplineSet
75 -140 m 0
 75 -52 135 14 180 50 c 1
 230 14 l 1
 203 -13 175 -59 175 -125 c 0
 175 -170 197 -180 220 -180 c 0
 246 -180 274 -169 280 -165 c 1
 305 -238 l 1
 278 -252 241 -260 200 -260 c 0
 118 -260 75 -210 75 -140 c 0
EndSplineSet
EndChar

StartChar: tilde
Encoding: 732 732 367
Width: 510
GlyphClass: 2
Flags: W
LayerCount: 2
Fore
SplineSet
45 740 m 1
 72 806 105 865 180 865 c 0
 240 865 274 835 295 817 c 0
 314 801 324 790 334 790 c 0
 359 790 376 840 385 860 c 1
 465 830 l 1
 438 764 405 705 330 705 c 0
 270 705 236 735 215 753 c 0
 196 769 186 780 176 780 c 0
 151 780 134 730 125 710 c 1
 45 740 l 1
EndSplineSet
EndChar

StartChar: hungarumlaut
Encoding: 733 733 368
Width: 510
GlyphClass: 2
Flags: W
LayerCount: 2
Fore
SplineSet
45 730 m 1
 150 920 l 1
 240 855 l 1
 100 690 l 1
 45 730 l 1
270 730 m 1
 375 920 l 1
 465 855 l 1
 325 690 l 1
 270 730 l 1
EndSplineSet
EndChar

StartChar: uni0300
Encoding: 768 768 369
Width: 0
GlyphClass: 4
Flags: W
AnchorPoint: "LatinAbove.mkmk" 0 180 basemark 0
AnchorPoint: "LatinAbove.mkmk" 0 0 mark 0
AnchorPoint: "LatinAbove.mark" 0 0 mark 0
LayerCount: 2
Fore
SplineSet
-165 805 m 1
 -100 910 l 1
 120 750 l 1
 80 690 l 1
 -165 805 l 1
EndSplineSet
EndChar

StartChar: uni0301
Encoding: 769 769 370
Width: 0
GlyphClass: 4
Flags: W
AnchorPoint: "LatinAbove.mkmk" 0 180 basemark 0
AnchorPoint: "LatinAbove.mkmk" 0 0 mark 0
AnchorPoint: "LatinAbove.mark" 0 0 mark 0
LayerCount: 2
Fore
SplineSet
165 805 m 1
 -80 690 l 1
 -120 750 l 1
 100 910 l 1
 165 805 l 1
EndSplineSet
EndChar

StartChar: uni0302
Encoding: 770 770 371
Width: 0
GlyphClass: 4
Flags: W
AnchorPoint: "LatinAbove.mkmk" 0 180 basemark 0
AnchorPoint: "LatinAbove.mkmk" 0 0 mark 0
AnchorPoint: "LatinAbove.mark" 0 0 mark 0
LayerCount: 2
Fore
SplineSet
-210 725 m 1
 -20 870 l 1
 20 870 l 1
 210 725 l 1
 165 675 l 1
 0 755 l 1
 -165 675 l 1
 -210 725 l 1
EndSplineSet
EndChar

StartChar: uni0303
Encoding: 771 771 372
Width: 0
GlyphClass: 4
Flags: W
AnchorPoint: "LatinAbove.mkmk" 0 180 basemark 0
AnchorPoint: "LatinAbove.mkmk" 0 0 mark 0
AnchorPoint: "LatinAbove.mark" 0 0 mark 0
LayerCount: 2
Fore
SplineSet
-210 740 m 1
 -183 806 -150 865 -75 865 c 0
 -15 865 19 835 40 817 c 0
 59 801 69 790 79 790 c 0
 104 790 121 840 130 860 c 1
 210 830 l 1
 183 764 150 705 75 705 c 0
 15 705 -19 735 -40 753 c 0
 -59 769 -69 780 -79 780 c 0
 -104 780 -121 730 -130 710 c 1
 -210 740 l 1
EndSplineSet
EndChar

StartChar: uni0304
Encoding: 772 772 373
Width: 0
GlyphClass: 4
Flags: W
AnchorPoint: "LatinAbove.mkmk" 0 180 basemark 0
AnchorPoint: "LatinAbove.mkmk" 0 0 mark 0
AnchorPoint: "LatinAbove.mark" 0 0 mark 0
LayerCount: 2
Fore
SplineSet
-210 730 m 1
 -210 830 l 1
 210 830 l 1
 210 730 l 1
 -210 730 l 1
EndSplineSet
EndChar

StartChar: uni0305
Encoding: 773 773 374
Width: 0
GlyphClass: 4
Flags: W
AnchorPoint: "LatinAbove.mkmk" 0 180 basemark 0
AnchorPoint: "LatinAbove.mkmk" 0 0 mark 0
AnchorPoint: "LatinAbove.mark" 0 0 mark 0
LayerCount: 2
Fore
SplineSet
-300 730 m 1
 -300 830 l 1
 300 830 l 1
 300 730 l 1
 -300 730 l 1
EndSplineSet
EndChar

StartChar: uni0306
Encoding: 774 774 375
Width: 0
GlyphClass: 4
Flags: W
AnchorPoint: "LatinAbove.mkmk" 0 180 basemark 0
AnchorPoint: "LatinAbove.mkmk" 0 0 mark 0
AnchorPoint: "LatinAbove.mark" 0 0 mark 0
LayerCount: 2
Fore
SplineSet
-210 834 m 1
 -114 865 l 1
 -103 831 -78 785 0 785 c 0
 78 785 103 831 114 865 c 1
 210 834 l 1
 189 766 130 690 0 690 c 0
 -130 690 -189 766 -210 834 c 1
EndSplineSet
EndChar

StartChar: uni0307
Encoding: 775 775 376
Width: 0
GlyphClass: 4
Flags: W
AnchorPoint: "LatinAbove.mkmk" 0 180 basemark 0
AnchorPoint: "LatinAbove.mkmk" 0 0 mark 0
AnchorPoint: "LatinAbove.mark" 0 0 mark 0
LayerCount: 2
Fore
SplineSet
-95 780 m 0
 -95 834 -54 868 0 868 c 0
 54 868 95 834 95 780 c 0
 95 726 54 692 0 692 c 0
 -54 692 -95 726 -95 780 c 0
EndSplineSet
EndChar

StartChar: uni0308
Encoding: 776 776 377
Width: 0
GlyphClass: 4
Flags: W
AnchorPoint: "LatinAbove.mkmk" 0 180 basemark 0
AnchorPoint: "LatinAbove.mkmk" 0 0 mark 0
AnchorPoint: "LatinAbove.mark" 0 0 mark 0
LayerCount: 2
Fore
SplineSet
-125 859 m 0
 -76 859 -40 829 -40 780 c 0
 -40 731 -76 701 -125 701 c 0
 -174 701 -210 731 -210 780 c 0
 -210 829 -174 859 -125 859 c 0
125 859 m 0
 174 859 210 829 210 780 c 0
 210 731 174 701 125 701 c 0
 76 701 40 731 40 780 c 0
 40 829 76 859 125 859 c 0
EndSplineSet
EndChar

StartChar: uni0309
Encoding: 777 777 378
Width: 0
GlyphClass: 4
Flags: W
AnchorPoint: "LatinAbove.mkmk" 0 180 basemark 0
AnchorPoint: "LatinAbove.mkmk" 0 0 mark 0
AnchorPoint: "LatinAbove.mark" 0 0 mark 0
LayerCount: 2
Fore
SplineSet
-120 875 m 1
 -91 892 -51 905 2 905 c 0
 68 905 120 872 120 810 c 0
 120 715 37 688 -30 670 c 1
 -55 720 l 1
 -10 738 25 758 25 790 c 0
 25 812 14 820 -17 820 c 0
 -46 820 -89 806 -110 796 c 1
 -120 875 l 1
EndSplineSet
EndChar

StartChar: uni030A
Encoding: 778 778 379
Width: 0
GlyphClass: 4
Flags: W
AnchorPoint: "LatinAbove.mkmk" 0 180 basemark 0
AnchorPoint: "LatinAbove.mkmk" 0 0 mark 0
AnchorPoint: "LatinAbove.mark" 0 0 mark 0
LayerCount: 2
Fore
SplineSet
0 645 m 0
 -74 645 -130 691 -130 765 c 0
 -130 839 -74 885 0 885 c 0
 74 885 130 839 130 765 c 0
 130 691 74 645 0 645 c 0
0 715 m 0
 32 715 50 736 50 765 c 0
 50 794 32 815 0 815 c 0
 -32 815 -50 794 -50 765 c 0
 -50 736 -32 715 0 715 c 0
EndSplineSet
EndChar

